<svg xmlns="http://www.w3.org/2000/svg" width="747" height="272.015625" style="
        width:747px;
        height:272.015625px;
        background: transparent;
        fill: none;
">
        
        
        <svg xmlns="http://www.w3.org/2000/svg" class="role-diagram-draw-area"><g class="shapes-region" style="stroke: black; fill: none;"><g class="composite-shape"><path class="real" d=" M220.33,121.38 C220.33,114.89 225.58,109.64 232.06,109.64 C238.55,109.64 243.8,114.89 243.8,121.38 C243.8,127.86 238.55,133.11 232.06,133.11 C225.58,133.11 220.33,127.86 220.33,121.38 Z" style="stroke-width: 2; stroke: rgb(74, 74, 74); fill: rgb(243, 243, 243);"/></g><g class="composite-shape"><path class="real" d=" M269.62,121.38 C269.62,114.89 274.88,109.64 281.36,109.64 C287.84,109.64 293.09,114.89 293.09,121.38 C293.09,127.86 287.84,133.11 281.36,133.11 C274.88,133.11 269.62,127.86 269.62,121.38 Z" style="stroke-width: 2; stroke: rgb(74, 74, 74); fill: rgb(243, 243, 243);"/></g><g class="arrow-line"><path class="connection real" stroke-dasharray="" d="  M269.62,121.38 L243.8,121.38" style="stroke: rgb(74, 74, 74); stroke-width: 2; fill: none;"/></g><g class="composite-shape"><path class="real" d=" M220.33,156.59 C220.33,150.1 225.58,144.85 232.06,144.85 C238.55,144.85 243.8,150.1 243.8,156.59 C243.8,163.07 238.55,168.32 232.06,168.32 C225.58,168.32 220.33,163.07 220.33,156.59 Z" style="stroke-width: 2; stroke: rgb(74, 74, 74); fill: rgb(243, 243, 243);"/></g><g class="composite-shape"><path class="real" d=" M269.62,156.12 C269.62,149.63 274.88,144.38 281.36,144.38 C287.84,144.38 293.09,149.63 293.09,156.12 C293.09,162.6 287.84,167.85 281.36,167.85 C274.88,167.85 269.62,162.6 269.62,156.12 Z" style="stroke-width: 2; stroke: rgb(74, 74, 74); fill: rgb(243, 243, 243);"/></g><g class="arrow-line"><path class="connection real" stroke-dasharray="" d="  M232.06,144.85 L232.06,133.11" style="stroke: rgb(74, 74, 74); stroke-width: 2; fill: none;"/></g><g class="arrow-line"><path class="connection real" stroke-dasharray="" d="  M281.36,133.11 L281.36,144.38" style="stroke: rgb(74, 74, 74); stroke-width: 2; fill: none;"/></g><g class="arrow-line"><path class="connection real" stroke-dasharray="7.5 6" d="  M232.06,92.59 L232.06,109.64" style="stroke: rgb(74, 74, 74); stroke-width: 2; fill: none;"/></g><g class="composite-shape"><path class="real" d=" M353,119.7 C353,113.22 358.26,107.96 364.74,107.96 C371.22,107.96 376.48,113.22 376.48,119.7 C376.48,126.18 371.22,131.44 364.74,131.44 C358.26,131.44 353,126.18 353,119.7 Z" style="stroke-width: 2; stroke: rgb(74, 74, 74); fill: rgb(243, 243, 243);"/></g><g class="composite-shape"><path class="real" d=" M420.14,119.7 C420.14,113.22 425.39,107.96 431.87,107.96 C438.35,107.96 443.61,113.22 443.61,119.7 C443.61,126.18 438.35,131.44 431.87,131.44 C425.39,131.44 420.14,126.18 420.14,119.7 Z" style="stroke-width: 2; stroke: rgb(74, 74, 74); fill: rgb(243, 243, 243);"/></g><g class="composite-shape"><path class="real" d=" M332.35,153.5 C332.35,147.02 337.6,141.76 344.08,141.76 C350.57,141.76 355.82,147.02 355.82,153.5 C355.82,159.98 350.57,165.24 344.08,165.24 C337.6,165.24 332.35,159.98 332.35,153.5 Z" style="stroke-width: 2; stroke: rgb(74, 74, 74); fill: rgb(243, 243, 243);"/></g><g class="arrow-line"><path class="connection real" stroke-dasharray="" d="  M348.31,142.56 L357.7,129.88" style="stroke: rgb(74, 74, 74); stroke-width: 2; fill: none;"/></g><g class="composite-shape"><path class="real" d=" M371.78,153.97 C371.78,147.49 377.04,142.23 383.52,142.23 C390,142.23 395.25,147.49 395.25,153.97 C395.25,160.45 390,165.71 383.52,165.71 C377.04,165.71 371.78,160.45 371.78,153.97 Z" style="stroke-width: 2; stroke: rgb(74, 74, 74); fill: rgb(243, 243, 243); stroke-dasharray: 2.25, 3.685;"/></g><g class="composite-shape"><path class="real" d=" M401.36,153.5 C401.36,147.02 406.61,141.76 413.09,141.76 C419.58,141.76 424.83,147.02 424.83,153.5 C424.83,159.98 419.58,165.24 413.09,165.24 C406.61,165.24 401.36,159.98 401.36,153.5 Z" style="stroke-width: 2; stroke: rgb(74, 74, 74); fill: rgb(243, 243, 243);"/></g><g class="composite-shape"><path class="real" d=" M440.79,153.97 C440.79,147.49 446.05,142.23 452.53,142.23 C459.01,142.23 464.26,147.49 464.26,153.97 C464.26,160.45 459.01,165.71 452.53,165.71 C446.05,165.71 440.79,160.45 440.79,153.97 Z" style="stroke-width: 2; stroke: rgb(74, 74, 74); fill: rgb(243, 243, 243); stroke-dasharray: 2.25, 3.685;"/></g><g class="arrow-line"><path class="connection real" stroke-dasharray="" d="  M378.35,143.03 L371.31,129.88" style="stroke: rgb(74, 74, 74); stroke-width: 2; fill: none;"/></g><g class="arrow-line"><path class="connection real" stroke-dasharray="" d="  M416.85,142.56 L424.83,128.47" style="stroke: rgb(74, 74, 74); stroke-width: 2; fill: none;"/></g><g class="arrow-line"><path class="connection real" stroke-dasharray="" d="  M447.83,142.56 L439.85,128.47" style="stroke: rgb(74, 74, 74); stroke-width: 2; fill: none;"/></g><g class="arrow-line"><path class="connection real" stroke-dasharray="7.5 6" d="  M364.74,90.92 L364.74,107.96" style="stroke: rgb(74, 74, 74); stroke-width: 2; fill: none;"/></g><g class="composite-shape"><path class="real" d=" M210,87.9 L307.18,87.9 L307.18,177.09 L210,177.09 Z" style="stroke-width: 1; stroke: rgb(0, 0, 0); fill: none; stroke-dasharray: 1.125, 3.35;"/></g><g class="composite-shape"><path class="real" d=" M322.96,88.25 L476,88.25 L476,175.09 L322.96,175.09 Z" style="stroke-width: 1; stroke: rgb(0, 0, 0); fill: none; stroke-dasharray: 1.125, 3.35;"/></g><g class="arrow-line"><path class="connection real" stroke-dasharray="7.5 6" d="  M281.36,92.59 L281.36,109.64" style="stroke: rgb(74, 74, 74); stroke-width: 2; fill: none;"/></g><g class="arrow-line"><path class="connection real" stroke-dasharray="7.5 6" d="  M431.87,90.92 L431.87,107.96" style="stroke: rgb(74, 74, 74); stroke-width: 2; fill: none;"/></g><g class="composite-shape"><path class="real" d=" M25.08,123.11 C25.08,115.72 31.07,109.73 38.46,109.73 C45.85,109.73 51.84,115.72 51.84,123.11 C51.84,130.5 45.85,136.49 38.46,136.49 C31.07,136.49 25.08,130.5 25.08,123.11 Z" style="stroke-width: 2; stroke: rgb(74, 74, 74); fill: rgb(243, 243, 243);"/></g><g class="arrow-line"><path class="connection real" stroke-dasharray="7.5 6" d="  M38.46,90.29 L38.46,109.73" style="stroke: rgb(74, 74, 74); stroke-width: 2; fill: none;"/></g><g class="arrow-line"><path class="connection real" stroke-dasharray="" d="  M149.08,153.94 L149.08,137.88" style="stroke: rgb(74, 74, 74); stroke-width: 2; fill: none;"/></g><g class="composite-shape"><path class="real" d=" M135.17,167.32 C135.17,159.93 141.16,153.94 148.55,153.94 C155.94,153.94 161.93,159.93 161.93,167.32 C161.93,174.71 155.94,180.7 148.55,180.7 C141.16,180.7 135.17,174.71 135.17,167.32 Z" style="stroke-width: 2; stroke: rgb(74, 74, 74); fill: rgb(243, 243, 243); stroke-dasharray: 2.25, 3.685;"/></g><g class="composite-shape"><path class="real" d=" M12.5,88.43 L82.61,88.43 L82.61,148.02 L12.5,148.02 Z" style="stroke-width: 1; stroke: rgb(0, 0, 0); fill: none; stroke-dasharray: 1.125, 3.35;"/></g><g class="arrow-line"><path class="connection real" stroke-dasharray="" d="  M46.22,112.33 C60.13,83.43 88.5,124.64 51.84,124.11" style="stroke: rgb(74, 74, 74); stroke-width: 2; fill: none;"/></g><g class="composite-shape"><path class="real" d=" M135.7,124.5 C135.7,117.11 141.69,111.12 149.08,111.12 C156.47,111.12 162.46,117.11 162.46,124.5 C162.46,131.89 156.47,137.88 149.08,137.88 C141.69,137.88 135.7,131.89 135.7,124.5 Z" style="stroke-width: 2; stroke: rgb(74, 74, 74); fill: rgb(243, 243, 243);"/></g><g class="arrow-line"><path class="connection real" stroke-dasharray="7.5 6" d="  M149.08,91.69 L149.08,111.12" style="stroke: rgb(74, 74, 74); stroke-width: 2; fill: none;"/></g><g class="composite-shape"><path class="real" d=" M116.17,88.43 L182,88.43 L182,192.02 L116.17,192.02 Z" style="stroke-width: 1; stroke: rgb(0, 0, 0); fill: none; stroke-dasharray: 1.125, 3.35;"/></g><g class="composite-shape"><path class="real" d=" M518.91,123.23 C518.91,116.38 524.46,110.83 531.31,110.83 C538.15,110.83 543.7,116.38 543.7,123.23 C543.7,130.07 538.15,135.63 531.31,135.63 C524.46,135.63 518.91,130.07 518.91,123.23 Z" style="stroke-width: 2; stroke: rgb(74, 74, 74); fill: rgb(243, 243, 243);"/></g><g class="composite-shape"><path class="real" d=" M570.98,123.23 C570.98,116.38 576.53,110.83 583.37,110.83 C590.22,110.83 595.77,116.38 595.77,123.23 C595.77,130.07 590.22,135.63 583.37,135.63 C576.53,135.63 570.98,130.07 570.98,123.23 Z" style="stroke-width: 2; stroke: rgb(74, 74, 74); fill: rgb(243, 243, 243);"/></g><g class="composite-shape"><path class="real" d=" M546.68,201.58 C546.68,194.73 552.23,189.18 559.07,189.18 C565.92,189.18 571.47,194.73 571.47,201.58 C571.47,208.42 565.92,213.97 559.07,213.97 C552.23,213.97 546.68,208.42 546.68,201.58 Z" style="stroke-width: 2; stroke: rgb(74, 74, 74); fill: rgb(243, 243, 243);"/></g><g class="composite-shape"><path class="real" d=" M546.68,161.91 C546.68,155.06 552.23,149.51 559.07,149.51 C565.92,149.51 571.47,155.06 571.47,161.91 C571.47,168.75 565.92,174.3 559.07,174.3 C552.23,174.3 546.68,168.75 546.68,161.91 Z" style="stroke-width: 2; stroke: rgb(74, 74, 74); fill: rgb(243, 243, 243);"/></g><g class="arrow-line"><path class="connection real" stroke-dasharray="" d="  M551.14,151 L538.25,134.14" style="stroke: rgb(74, 74, 74); stroke-width: 2; fill: none;"/></g><g class="arrow-line"><path class="connection real" stroke-dasharray="" d="  M576.93,134.63 L565.52,150.5" style="stroke: rgb(74, 74, 74); stroke-width: 2; fill: none;"/></g><g class="arrow-line"><path class="connection real" stroke-dasharray="7.5 6" d="  M531.31,92.83 L531.31,110.83" style="stroke: rgb(74, 74, 74); stroke-width: 2; fill: none;"/></g><g class="composite-shape"><path class="real" d=" M508,87.53 L610.64,87.53 L610.64,223.89 L508,223.89 Z" style="stroke-width: 1; stroke: rgb(0, 0, 0); fill: none; stroke-dasharray: 1.125, 3.35;"/></g><g class="arrow-line"><path class="connection real" stroke-dasharray="" d="  M559.07,189.18 L559.07,174.3" style="stroke: rgb(74, 74, 74); stroke-width: 2; fill: none;"/></g><g class="arrow-line"><path class="connection real" stroke-dasharray="7.5 6" d="  M583.37,92.83 L583.37,110.83" style="stroke: rgb(74, 74, 74); stroke-width: 2; fill: none;"/></g><g class="composite-shape"><path class="real" d=" M637.87,120.19 C637.87,113.34 643.42,107.79 650.26,107.79 C657.11,107.79 662.66,113.34 662.66,120.19 C662.66,127.04 657.11,132.59 650.26,132.59 C643.42,132.59 637.87,127.04 637.87,120.19 Z" style="stroke-width: 2; stroke: rgb(74, 74, 74); fill: rgb(243, 243, 243);"/></g><g class="composite-shape"><path class="real" d=" M704.31,120.19 C704.31,113.34 709.86,107.79 716.71,107.79 C723.56,107.79 729.11,113.34 729.11,120.19 C729.11,127.04 723.56,132.59 716.71,132.59 C709.86,132.59 704.31,127.04 704.31,120.19 Z" style="stroke-width: 2; stroke: rgb(74, 74, 74); fill: rgb(243, 243, 243);"/></g><g class="composite-shape"><path class="real" d=" M704.81,160.36 C704.81,153.51 710.36,147.96 717.21,147.96 C724.05,147.96 729.6,153.51 729.6,160.36 C729.6,167.2 724.05,172.75 717.21,172.75 C710.36,172.75 704.81,167.2 704.81,160.36 Z" style="stroke-width: 2; stroke: rgb(74, 74, 74); fill: rgb(243, 243, 243); stroke-dasharray: 7.5, 6;"/></g><g class="arrow-line"><path class="connection real" stroke-dasharray="7.5 6" d="  M650.26,89.79 L650.26,107.79" style="stroke: rgb(74, 74, 74); stroke-width: 2; fill: none;"/></g><g class="composite-shape"><path class="real" d=" M622.99,86.97 L742,86.97 L742,263 L622.99,263 Z" style="stroke-width: 1; stroke: rgb(0, 0, 0); fill: none; stroke-dasharray: 1.125, 3.35;"/></g><g class="composite-shape"><path class="real" d=" M637.87,240.69 C637.87,233.84 643.42,228.29 650.26,228.29 C657.11,228.29 662.66,233.84 662.66,240.69 C662.66,247.53 657.11,253.08 650.26,253.08 C643.42,253.08 637.87,247.53 637.87,240.69 Z" style="stroke-width: 2; stroke: rgb(74, 74, 74); fill: rgb(243, 243, 243);"/></g><g class="composite-shape"><path class="real" d=" M637.87,201.02 C637.87,194.17 643.42,188.62 650.26,188.62 C657.11,188.62 662.66,194.17 662.66,201.02 C662.66,207.86 657.11,213.41 650.26,213.41 C643.42,213.41 637.87,207.86 637.87,201.02 Z" style="stroke-width: 2; stroke: rgb(74, 74, 74); fill: rgb(243, 243, 243);"/></g><g class="arrow-line"><path class="connection real" stroke-dasharray="" d="  M650.26,228.29 L650.26,213.41" style="stroke: rgb(74, 74, 74); stroke-width: 2; fill: none;"/></g><g class="arrow-line"><path class="connection real" stroke-dasharray="" d="  M650.26,188.62 L650.26,173.74" style="stroke: rgb(74, 74, 74); stroke-width: 2; fill: none;"/></g><g class="composite-shape"><path class="real" d=" M637.87,160.85 C637.87,154 643.42,148.45 650.26,148.45 C657.11,148.45 662.66,154 662.66,160.85 C662.66,167.7 657.11,173.25 650.26,173.25 C643.42,173.25 637.87,167.7 637.87,160.85 Z" style="stroke-width: 2; stroke: rgb(74, 74, 74); fill: rgb(243, 243, 243); stroke-dasharray: 7.5, 6;"/></g><g class="arrow-line"><path class="connection real" stroke-dasharray="" d="  M716.71,147.46 L716.71,132.59" style="stroke: rgb(74, 74, 74); stroke-width: 2; fill: none;"/></g><g class="arrow-line"><path class="connection real" stroke-dasharray="" d="  M650.26,147.46 L650.26,132.59" style="stroke: rgb(74, 74, 74); stroke-width: 2; fill: none;"/></g><g class="arrow-line"><path class="connection real" stroke-dasharray="7.5 6" d="  M716.71,86.79 L716.71,104.79" style="stroke: rgb(74, 74, 74); stroke-width: 2; fill: none;"/></g><g class="composite-shape"><path class="real" d=" M705.21,239.43 C705.21,232.59 710.76,227.04 717.6,227.04 C724.45,227.04 730,232.59 730,239.43 C730,246.28 724.45,251.83 717.6,251.83 C710.76,251.83 705.21,246.28 705.21,239.43 Z" style="stroke-width: 2; stroke: rgb(74, 74, 74); fill: rgb(243, 243, 243);"/></g><g class="composite-shape"><path class="real" d=" M705.21,199.76 C705.21,192.92 710.76,187.37 717.6,187.37 C724.45,187.37 730,192.92 730,199.76 C730,206.61 724.45,212.16 717.6,212.16 C710.76,212.16 705.21,206.61 705.21,199.76 Z" style="stroke-width: 2; stroke: rgb(74, 74, 74); fill: rgb(243, 243, 243);"/></g><g class="arrow-line"><path class="connection real" stroke-dasharray="" d="  M717.6,226.04 L717.6,211.16" style="stroke: rgb(74, 74, 74); stroke-width: 2; fill: none;"/></g><g class="arrow-line"><path class="connection real" stroke-dasharray="" d="  M717.6,186.37 L717.6,171.49" style="stroke: rgb(74, 74, 74); stroke-width: 2; fill: none;"/></g><g class="arrow-line"><path class="connection real" stroke-dasharray="" d="  M79.5,68.64 L120.5,68.64" style="stroke: rgb(0, 0, 0); stroke-width: 1; fill: none;"/><g stroke="none" fill="#000" transform="matrix(-1,1.2246467991473532e-16,-1.2246467991473532e-16,-1,122.49999999999999,68.64062500000001)" style="stroke: none; fill: rgb(0, 0, 0); stroke-width: 1;"><path d=" M8.93,-4.29 L0,0 L8.93,4.29 Z"/></g></g><g class="arrow-line"><path class="connection real" stroke-dasharray="" d="  M200,0.64 L200,268.64" style="stroke: rgb(155, 155, 155); stroke-width: 1; fill: none;"/></g><g class="arrow-line"><path class="connection real" stroke-dasharray="" d="  M492,-1.36 L492,269.64" style="stroke: rgb(155, 155, 155); stroke-width: 1; fill: none;"/></g><g class="arrow-line"><path class="connection real" stroke-dasharray="" d="  M292.5,69.64 L357.5,69.64" style="stroke: rgb(0, 0, 0); stroke-width: 1; fill: none;"/><g stroke="none" fill="#000" transform="matrix(-1,1.2246467991473532e-16,-1.2246467991473532e-16,-1,359.5,69.64062499999999)" style="stroke: none; fill: rgb(0, 0, 0); stroke-width: 1;"><path d=" M8.93,-4.29 L0,0 L8.93,4.29 Z"/></g></g><g class="arrow-line"><path class="connection real" stroke-dasharray="" d="  M595.5,69.64 L653.5,69.64" style="stroke: rgb(0, 0, 0); stroke-width: 1; fill: none;"/><g stroke="none" fill="#000" transform="matrix(-1,1.2246467991473532e-16,-1.2246467991473532e-16,-1,655.5,69.640625)" style="stroke: none; fill: rgb(0, 0, 0); stroke-width: 1;"><path d=" M8.93,-4.29 L0,0 L8.93,4.29 Z"/></g></g><g/></g><g/><g/><g/></svg>
        <svg xmlns="http://www.w3.org/2000/svg" width="745" height="270.015625" style="width:745px;height:270.015625px;font-family:Asana-Math, Asana;background:transparent;"><g><g><text x="227.0546875" y="112.375" style="white-space:pre;stroke:none;fill:rgb(74, 74, 74);font-size:15px;font-family:Arial, Helvetica, sans-serif;font-weight:400;font-style:normal;dominant-baseline:text-before-edge;text-decoration:none solid rgb(74, 74, 74);">A</text></g></g><g><g><text x="276.3359375" y="112.375" style="white-space:pre;stroke:none;fill:rgb(74, 74, 74);font-size:15px;font-family:Arial, Helvetica, sans-serif;font-weight:400;font-style:normal;dominant-baseline:text-before-edge;text-decoration:none solid rgb(74, 74, 74);">B</text></g></g><g><g><g style="transform:matrix(1,0,0,1,223.1171875,158.9171875);"><path d="M171 -15C331 -15 431 100 434 257C436 343 410 361 345 404L345 407C398 407 457 403 511 411C518 431 521 451 524 474C485 453 364 467 313 457C150 424 28 329 28 153C28 48 59 -15 171 -15ZM367 267C367 168 329 13 203 13C111 13 103 112 104 182C105 292 143 412 274 412C359 412 367 328 367 267Z" stroke="rgb(74, 74, 74)" stroke-width="8" fill="rgb(74, 74, 74)" style="transform:matrix(0.015300000000000001,0,0,-0.015300000000000001,0,0);"></path></g><g><g><g><g style="transform:matrix(1,0,0,1,232.0078125,161.6240625);"><path d="M567 55C567 39 552 30 524 28L480 25L480 -3C582 0 582 0 602 0C622 0 622 0 724 -3L724 25L698 28C651 35 650 35 642 80L555 705L509 705L136 112C100 56 82 40 48 32L28 27L28 -3C120 0 120 0 140 0C159 0 161 0 247 -3L247 25L195 28C179 29 164 38 164 47C164 55 171 69 190 102L292 277L538 277L563 89L563 86C563 84 567 69 567 55ZM496 601L533 313L317 313Z" stroke="rgb(74, 74, 74)" stroke-width="8" fill="rgb(74, 74, 74)" style="transform:matrix(0.01071,0,0,-0.01071,0,0);"></path></g></g></g></g></g></g><g><g><g style="transform:matrix(1,0,0,1,273.1484375,158.4484375);"><path d="M171 -15C331 -15 431 100 434 257C436 343 410 361 345 404L345 407C398 407 457 403 511 411C518 431 521 451 524 474C485 453 364 467 313 457C150 424 28 329 28 153C28 48 59 -15 171 -15ZM367 267C367 168 329 13 203 13C111 13 103 112 104 182C105 292 143 412 274 412C359 412 367 328 367 267Z" stroke="rgb(74, 74, 74)" stroke-width="8" fill="rgb(74, 74, 74)" style="transform:matrix(0.015300000000000001,0,0,-0.015300000000000001,0,0);"></path></g><g><g><g><g style="transform:matrix(1,0,0,1,282.0390625,161.1553125);"><path d="M543 227C543 337 459 353 377 365C434 385 459 397 490 425C536 464 559 511 559 562C559 644 501 692 401 692C399 692 389 692 374 691L311 690C299 689 263 689 251 689C232 689 201 690 152 691L100 692L97 664L150 662C174 661 185 653 185 635C185 621 181 589 176 559L89 55C85 37 73 30 31 23L26 -3L63 -2C90 0 105 0 117 0C128 0 154 -1 180 -2L217 -3L237 -4C256 -5 269 -6 277 -6C392 -6 543 87 543 227ZM166 41L217 340L302 340C405 340 455 298 455 211C455 108 382 34 282 34C228 34 207 38 166 41ZM352 655C433 655 473 619 473 544C473 439 399 376 275 376L223 376L272 650C288 650 329 655 352 655Z" stroke="rgb(74, 74, 74)" stroke-width="8" fill="rgb(74, 74, 74)" style="transform:matrix(0.01071,0,0,-0.01071,0,0);"></path></g></g></g></g></g></g><g><g><text x="359.7265625" y="110.6875" style="white-space:pre;stroke:none;fill:rgb(74, 74, 74);font-size:15px;font-family:Arial, Helvetica, sans-serif;font-weight:400;font-style:normal;dominant-baseline:text-before-edge;text-decoration:none solid rgb(74, 74, 74);">A</text></g></g><g><g><text x="426.8515625" y="110.6875" style="white-space:pre;stroke:none;fill:rgb(74, 74, 74);font-size:15px;font-family:Arial, Helvetica, sans-serif;font-weight:400;font-style:normal;dominant-baseline:text-before-edge;text-decoration:none solid rgb(74, 74, 74);">B</text></g></g><g><g><g style="transform:matrix(1,0,0,1,376.4609375,158.4921875);"><path d="M168 267L37 213L32 204L68 153L78 153L184 241L202 99L212 95L280 121L280 131L212 253L350 233L359 241L359 303L353 307L214 283L283 408L280 423L218 442L209 438L183 295L88 393L78 393L34 341L37 331Z" stroke="rgb(74, 74, 74)" stroke-width="8" fill="rgb(74, 74, 74)" style="transform:matrix(0.017,0,0,-0.017,0,0);"></path></g><g><g><g><g style="transform:matrix(1,0,0,1,383.5546875,161.5015625);"><path d="M418 -3L418 27L366 30C311 33 301 44 301 96L301 700L60 598L67 548L217 614L217 96C217 44 206 33 152 30L96 27L96 -3C250 0 250 0 261 0C292 0 402 -3 418 -3Z" stroke="rgb(74, 74, 74)" stroke-width="8" fill="rgb(74, 74, 74)" style="transform:matrix(0.0119,0,0,-0.0119,0,0);"></path></g></g></g></g></g></g><g><g><g style="transform:matrix(1,0,0,1,446.171875,157.6984375);"><path d="M168 267L37 213L32 204L68 153L78 153L184 241L202 99L212 95L280 121L280 131L212 253L350 233L359 241L359 303L353 307L214 283L283 408L280 423L218 442L209 438L183 295L88 393L78 393L34 341L37 331Z" stroke="rgb(74, 74, 74)" stroke-width="8" fill="rgb(74, 74, 74)" style="transform:matrix(0.015300000000000001,0,0,-0.015300000000000001,0,0);"></path></g><g><g><g><g style="transform:matrix(1,0,0,1,452.546875,160.4053125);"><path d="M418 -3L418 27L366 30C311 33 301 44 301 96L301 700L60 598L67 548L217 614L217 96C217 44 206 33 152 30L96 27L96 -3C250 0 250 0 261 0C292 0 402 -3 418 -3Z" stroke="rgb(74, 74, 74)" stroke-width="8" fill="rgb(74, 74, 74)" style="transform:matrix(0.01071,0,0,-0.01071,0,0);"></path></g></g></g></g></g></g><g><g><g style="transform:matrix(1,0,0,1,335.1328125,155.2296875);"><path d="M171 -15C331 -15 431 100 434 257C436 343 410 361 345 404L345 407C398 407 457 403 511 411C518 431 521 451 524 474C485 453 364 467 313 457C150 424 28 329 28 153C28 48 59 -15 171 -15ZM367 267C367 168 329 13 203 13C111 13 103 112 104 182C105 292 143 412 274 412C359 412 367 328 367 267Z" stroke="rgb(74, 74, 74)" stroke-width="8" fill="rgb(74, 74, 74)" style="transform:matrix(0.015300000000000001,0,0,-0.015300000000000001,0,0);"></path></g><g><g><g><g style="transform:matrix(1,0,0,1,344.0234375,157.9365625);"><path d="M567 55C567 39 552 30 524 28L480 25L480 -3C582 0 582 0 602 0C622 0 622 0 724 -3L724 25L698 28C651 35 650 35 642 80L555 705L509 705L136 112C100 56 82 40 48 32L28 27L28 -3C120 0 120 0 140 0C159 0 161 0 247 -3L247 25L195 28C179 29 164 38 164 47C164 55 171 69 190 102L292 277L538 277L563 89L563 86C563 84 567 69 567 55ZM496 601L533 313L317 313Z" stroke="rgb(74, 74, 74)" stroke-width="8" fill="rgb(74, 74, 74)" style="transform:matrix(0.01071,0,0,-0.01071,0,0);"></path></g></g></g></g></g></g><g><g><g style="transform:matrix(1,0,0,1,404.8828125,156.2296875);"><path d="M171 -15C331 -15 431 100 434 257C436 343 410 361 345 404L345 407C398 407 457 403 511 411C518 431 521 451 524 474C485 453 364 467 313 457C150 424 28 329 28 153C28 48 59 -15 171 -15ZM367 267C367 168 329 13 203 13C111 13 103 112 104 182C105 292 143 412 274 412C359 412 367 328 367 267Z" stroke="rgb(74, 74, 74)" stroke-width="8" fill="rgb(74, 74, 74)" style="transform:matrix(0.015300000000000001,0,0,-0.015300000000000001,0,0);"></path></g><g><g><g><g style="transform:matrix(1,0,0,1,413.7734375,158.9365625);"><path d="M543 227C543 337 459 353 377 365C434 385 459 397 490 425C536 464 559 511 559 562C559 644 501 692 401 692C399 692 389 692 374 691L311 690C299 689 263 689 251 689C232 689 201 690 152 691L100 692L97 664L150 662C174 661 185 653 185 635C185 621 181 589 176 559L89 55C85 37 73 30 31 23L26 -3L63 -2C90 0 105 0 117 0C128 0 154 -1 180 -2L217 -3L237 -4C256 -5 269 -6 277 -6C392 -6 543 87 543 227ZM166 41L217 340L302 340C405 340 455 298 455 211C455 108 382 34 282 34C228 34 207 38 166 41ZM352 655C433 655 473 619 473 544C473 439 399 376 275 376L223 376L272 650C288 650 329 655 352 655Z" stroke="rgb(74, 74, 74)" stroke-width="8" fill="rgb(74, 74, 74)" style="transform:matrix(0.01071,0,0,-0.01071,0,0);"></path></g></g></g></g></g></g><g><g><g style="transform:matrix(1,0,0,1,315.109375,59.9921875);"><path d="M176 -11C232 -11 347 62 390 125C431 186 465 296 465 371C465 438 442 482 406 482C364 482 311 456 259 409C218 374 198 348 162 289L186 408C189 425 191 440 191 452C191 471 183 482 169 482C148 482 110 461 36 408L8 388L15 368L47 389C75 407 86 412 95 412C105 412 112 403 112 389C112 381 110 361 108 351L50 8C40 -52 21 -143 1 -233L-7 -270L0 -276C21 -269 41 -264 73 -259L115 3C136 -4 158 -11 176 -11ZM143 165C165 293 272 424 355 424C381 424 393 402 393 356C393 275 353 156 300 80C280 51 248 36 207 36C176 36 151 43 125 59Z" stroke="rgb(0, 0, 0)" stroke-width="8" fill="rgb(0, 0, 0)" style="transform:matrix(0.017,0,0,-0.017,0,0);"></path></g><g><g><g><g style="transform:matrix(1,0,0,1,324.078125,63.0015625);"><path d="M342 330L365 330C373 395 380 432 389 458C365 473 330 482 293 482C248 483 175 463 118 400C64 352 25 241 25 136C25 40 67 -11 147 -11C201 -11 249 9 304 54L354 95L346 115L331 105C259 57 221 40 186 40C130 40 101 80 101 159C101 267 136 371 185 409C206 425 230 433 261 433C306 433 342 414 342 390Z" stroke="rgb(0, 0, 0)" stroke-width="8" fill="rgb(0, 0, 0)" style="transform:matrix(0.0119,0,0,-0.0119,0,0);"></path></g></g></g></g></g></g><g><g><g style="transform:matrix(1,0,0,1,253.78125,117.690625);"><path d="M342 330L365 330C373 395 380 432 389 458C365 473 330 482 293 482C248 483 175 463 118 400C64 352 25 241 25 136C25 40 67 -11 147 -11C201 -11 249 9 304 54L354 95L346 115L331 105C259 57 221 40 186 40C130 40 101 80 101 159C101 267 136 371 185 409C206 425 230 433 261 433C306 433 342 414 342 390Z" stroke="rgb(0, 0, 0)" stroke-width="8" fill="rgb(0, 0, 0)" style="transform:matrix(0.015300000000000001,0,0,-0.015300000000000001,0,0);"></path></g></g></g><g><g><g style="transform:matrix(1,0,0,1,235.75,142.08125);"><path d="M271 204L242 77C238 60 236 42 236 26C236 4 245 -9 260 -9C283 -9 324 17 406 85L399 106C375 86 346 59 324 59C315 59 309 68 309 82C309 87 309 90 310 93L402 472L392 481L359 463C318 478 301 482 274 482C246 482 226 477 199 464C137 433 104 403 79 354C35 265 4 145 4 67C4 23 19 -11 38 -11C75 -11 155 41 271 204ZM319 414C297 305 278 253 244 201C187 117 126 59 94 59C82 59 76 72 76 99C76 163 104 280 139 360C163 415 186 433 234 433C257 433 275 429 319 414Z" stroke="rgb(0, 0, 0)" stroke-width="8" fill="rgb(0, 0, 0)" style="transform:matrix(0.015300000000000001,0,0,-0.015300000000000001,0,0);"></path></g></g></g><g><g><g style="transform:matrix(1,0,0,1,289.578125,143.08125);"><path d="M235 722L223 733C171 707 135 698 63 691L59 670L107 670C131 670 141 663 141 646C141 639 140 628 139 622L38 71C37 68 37 64 37 61C37 22 85 -11 140 -11C177 -11 228 8 271 39C367 107 433 244 433 376C433 414 424 453 412 468C405 477 392 482 377 482C353 482 323 474 295 460C244 433 211 403 149 324ZM322 424C348 424 361 401 361 352C361 288 340 202 310 137C277 68 237 36 183 36C137 36 112 59 112 101C112 135 127 276 208 361C241 395 293 424 322 424Z" stroke="rgb(0, 0, 0)" stroke-width="8" fill="rgb(0, 0, 0)" style="transform:matrix(0.015300000000000001,0,0,-0.015300000000000001,0,0);"></path></g></g></g><g><g><g style="transform:matrix(1,0,0,1,379.359375,138.190625);"><path d="M342 330L365 330C373 395 380 432 389 458C365 473 330 482 293 482C248 483 175 463 118 400C64 352 25 241 25 136C25 40 67 -11 147 -11C201 -11 249 9 304 54L354 95L346 115L331 105C259 57 221 40 186 40C130 40 101 80 101 159C101 267 136 371 185 409C206 425 230 433 261 433C306 433 342 414 342 390Z" stroke="rgb(0, 0, 0)" stroke-width="8" fill="rgb(0, 0, 0)" style="transform:matrix(0.015300000000000001,0,0,-0.015300000000000001,0,0);"></path></g></g></g><g><g><g style="transform:matrix(1,0,0,1,339.921875,138.190625);"><path d="M271 204L242 77C238 60 236 42 236 26C236 4 245 -9 260 -9C283 -9 324 17 406 85L399 106C375 86 346 59 324 59C315 59 309 68 309 82C309 87 309 90 310 93L402 472L392 481L359 463C318 478 301 482 274 482C246 482 226 477 199 464C137 433 104 403 79 354C35 265 4 145 4 67C4 23 19 -11 38 -11C75 -11 155 41 271 204ZM319 414C297 305 278 253 244 201C187 117 126 59 94 59C82 59 76 72 76 99C76 163 104 280 139 360C163 415 186 433 234 433C257 433 275 429 319 414Z" stroke="rgb(0, 0, 0)" stroke-width="8" fill="rgb(0, 0, 0)" style="transform:matrix(0.015300000000000001,0,0,-0.015300000000000001,0,0);"></path></g></g></g><g><g><g style="transform:matrix(1,0,0,1,408.34375,138.190625);"><path d="M235 722L223 733C171 707 135 698 63 691L59 670L107 670C131 670 141 663 141 646C141 639 140 628 139 622L38 71C37 68 37 64 37 61C37 22 85 -11 140 -11C177 -11 228 8 271 39C367 107 433 244 433 376C433 414 424 453 412 468C405 477 392 482 377 482C353 482 323 474 295 460C244 433 211 403 149 324ZM322 424C348 424 361 401 361 352C361 288 340 202 310 137C277 68 237 36 183 36C137 36 112 59 112 101C112 135 127 276 208 361C241 395 293 424 322 424Z" stroke="rgb(0, 0, 0)" stroke-width="8" fill="rgb(0, 0, 0)" style="transform:matrix(0.015300000000000001,0,0,-0.015300000000000001,0,0);"></path></g></g></g><g><g><g style="transform:matrix(1,0,0,1,449.765625,138.190625);"><path d="M342 330L365 330C373 395 380 432 389 458C365 473 330 482 293 482C248 483 175 463 118 400C64 352 25 241 25 136C25 40 67 -11 147 -11C201 -11 249 9 304 54L354 95L346 115L331 105C259 57 221 40 186 40C130 40 101 80 101 159C101 267 136 371 185 409C206 425 230 433 261 433C306 433 342 414 342 390Z" stroke="rgb(0, 0, 0)" stroke-width="8" fill="rgb(0, 0, 0)" style="transform:matrix(0.015300000000000001,0,0,-0.015300000000000001,0,0);"></path></g></g></g><g><g><g style="transform:matrix(1,0,0,1,234.5546875,76.9625);"><path d="M349 664L352 692L238 689C222 689 204 689 161 690L97 692L94 664L141 662C165 661 176 653 176 635L81 55C77 37 65 30 21 23L16 -3L57 -2C88 -1 150 0 170 0L467 -1L500 0C499 25 510 103 523 165L492 165L475 103C466 71 457 54 448 49C435 44 371 39 304 39C255 39 228 40 162 46C165 64 256 605 256 613C263 651 270 658 307 661ZM776 385L818 613C825 652 832 658 869 661L911 664L914 692L890 692L800 689C784 689 766 689 723 690L659 692L656 664L703 662C727 661 738 653 738 635C738 621 734 590 729 559L655 125C638 33 637 32 597 28L556 25L552 -3L594 -2C642 -1 665 0 684 0L781 -3L807 -3L810 25L761 28C734 30 725 37 725 58C725 67 726 74 729 93L771 340L832 341C894 342 936 343 955 343C974 343 1015 342 1078 341L1139 340L1099 125C1090 76 1083 48 1078 42C1074 34 1063 30 1041 28L991 25L987 -3L1043 -2C1087 -1 1117 0 1128 0C1144 0 1175 -1 1218 -2L1260 -3L1263 25L1205 28C1179 29 1169 37 1169 58C1169 67 1170 76 1173 93L1265 613C1272 652 1278 657 1316 661L1352 664L1355 692L1339 692L1248 689C1233 689 1212 689 1168 690L1105 692L1102 664L1150 662C1174 661 1185 653 1185 635C1185 621 1181 589 1176 559L1146 385ZM1440 471C1440 386 1478 339 1562 319L1657 296C1711 283 1738 248 1738 191C1738 96 1667 30 1564 30C1510 30 1472 42 1428 73L1428 172L1398 172C1392 117 1385 72 1374 20C1423 -5 1476 -18 1529 -18C1684 -18 1817 99 1817 234C1817 313 1774 355 1673 377L1608 391C1542 405 1512 442 1512 508C1512 595 1579 658 1671 658C1720 658 1753 645 1783 613L1783 537L1813 537C1817 591 1824 629 1838 672C1793 696 1753 706 1706 706C1582 706 1440 614 1440 471Z" stroke="rgb(0, 0, 0)" stroke-width="8" fill="rgb(0, 0, 0)" style="transform:matrix(0.020399999999999998,0,0,-0.020399999999999998,0,0);"></path></g><g><g><g><g style="transform:matrix(1,0,0,1,273.6484375,80.56125);"><path d="M342 330L365 330C373 395 380 432 389 458C365 473 330 482 293 482C248 483 175 463 118 400C64 352 25 241 25 136C25 40 67 -11 147 -11C201 -11 249 9 304 54L354 95L346 115L331 105C259 57 221 40 186 40C130 40 101 80 101 159C101 267 136 371 185 409C206 425 230 433 261 433C306 433 342 414 342 390Z" stroke="rgb(0, 0, 0)" stroke-width="8" fill="rgb(0, 0, 0)" style="transform:matrix(0.01428,0,0,-0.01428,0,0);"></path></g></g></g></g></g></g><g><g><g style="transform:matrix(1,0,0,1,374.359375,76.43125);"><path d="M105 664L161 662C185 661 196 653 196 635C196 621 192 589 187 559L112 125C96 34 94 32 54 28L13 25L9 -3L51 -2C98 0 117 0 141 0L238 -3L264 -3L267 25L218 28C191 30 182 38 182 58C182 67 183 76 186 93L287 648C316 654 336 656 363 656C450 656 496 617 496 543C496 448 418 378 314 378L270 378L267 367C401 172 432 124 507 -3L592 0C593 0 607 -1 626 -3L639 -3L639 24C599 29 588 37 559 79L375 354C430 364 459 376 495 402C553 444 584 499 584 560C584 646 520 693 409 691L108 691ZM887 385L929 613C936 652 943 658 980 661L1022 664L1025 692L1001 692L911 689C895 689 877 689 834 690L770 692L767 664L814 662C838 661 849 653 849 635C849 621 845 590 840 559L766 125C749 33 748 32 708 28L667 25L663 -3L705 -2C753 -1 776 0 795 0L892 -3L918 -3L921 25L872 28C845 30 836 37 836 58C836 67 837 74 840 93L882 340L943 341C1005 342 1047 343 1066 343C1085 343 1126 342 1189 341L1250 340L1210 125C1201 76 1194 48 1189 42C1185 34 1174 30 1152 28L1102 25L1098 -3L1154 -2C1198 -1 1228 0 1239 0C1255 0 1286 -1 1329 -2L1371 -3L1374 25L1316 28C1290 29 1280 37 1280 58C1280 67 1281 76 1284 93L1376 613C1383 652 1389 657 1427 661L1463 664L1466 692L1450 692L1359 689C1344 689 1323 689 1279 690L1216 692L1213 664L1261 662C1285 661 1296 653 1296 635C1296 621 1292 589 1287 559L1257 385ZM1551 471C1551 386 1589 339 1673 319L1768 296C1822 283 1849 248 1849 191C1849 96 1778 30 1675 30C1621 30 1583 42 1539 73L1539 172L1509 172C1503 117 1496 72 1485 20C1534 -5 1587 -18 1640 -18C1795 -18 1928 99 1928 234C1928 313 1885 355 1784 377L1719 391C1653 405 1623 442 1623 508C1623 595 1690 658 1782 658C1831 658 1864 645 1894 613L1894 537L1924 537C1928 591 1935 629 1949 672C1904 696 1864 706 1817 706C1693 706 1551 614 1551 471Z" stroke="rgb(0, 0, 0)" stroke-width="8" fill="rgb(0, 0, 0)" style="transform:matrix(0.020399999999999998,0,0,-0.020399999999999998,0,0);"></path></g><g><g><g><g style="transform:matrix(1,0,0,1,415.71875,80.03);"><path d="M342 330L365 330C373 395 380 432 389 458C365 473 330 482 293 482C248 483 175 463 118 400C64 352 25 241 25 136C25 40 67 -11 147 -11C201 -11 249 9 304 54L354 95L346 115L331 105C259 57 221 40 186 40C130 40 101 80 101 159C101 267 136 371 185 409C206 425 230 433 261 433C306 433 342 414 342 390Z" stroke="rgb(0, 0, 0)" stroke-width="8" fill="rgb(0, 0, 0)" style="transform:matrix(0.01428,0,0,-0.01428,0,0);"></path></g></g></g></g></g></g><g><g><text x="33.4453125" y="114.09375" style="white-space:pre;stroke:none;fill:rgb(74, 74, 74);font-size:15px;font-family:Arial, Helvetica, sans-serif;font-weight:400;font-style:normal;dominant-baseline:text-before-edge;text-decoration:none solid rgb(74, 74, 74);">A</text></g></g><g><g><g style="transform:matrix(1,0,0,1,141.1484375,173.571875);"><path d="M424 599C424 656 388 689 326 689C299 689 278 682 260 666C237 653 215 638 192 606C177 593 168 561 168 520C168 479 177 440 198 387C158 364 43 301 43 172C43 60 130 -20 249 -20C322 -20 380 2 451 57C509 12 584 -20 632 -20C650 -20 660 -18 666 -14L753 49L747 74C717 60 703 55 686 55C637 55 599 69 514 118C573 184 595 232 595 295C595 310 594 319 590 334C661 331 691 328 730 322C730 347 733 365 742 394L548 387C522 387 501 387 451 389L418 344C477 339 493 337 505 334C520 330 532 295 532 254C532 218 520 189 484 141C395 232 336 306 280 397C349 448 424 509 424 599ZM213 352C258 271 307 208 420 82C373 50 336 36 296 36C207 36 130 116 130 209C130 267 152 304 213 352ZM264 431C245 487 238 522 238 557C238 608 259 636 299 636C332 636 357 607 357 569C357 528 314 470 264 431Z" stroke="rgb(74, 74, 74)" stroke-width="8" fill="rgb(74, 74, 74)" style="transform:matrix(0.020399999999999998,0,0,-0.020399999999999998,0,0);"></path></g></g></g><g><g><g style="transform:matrix(1,0,0,1,70.78125,103.3);"><path d="M271 204L242 77C238 60 236 42 236 26C236 4 245 -9 260 -9C283 -9 324 17 406 85L399 106C375 86 346 59 324 59C315 59 309 68 309 82C309 87 309 90 310 93L402 472L392 481L359 463C318 478 301 482 274 482C246 482 226 477 199 464C137 433 104 403 79 354C35 265 4 145 4 67C4 23 19 -11 38 -11C75 -11 155 41 271 204ZM319 414C297 305 278 253 244 201C187 117 126 59 94 59C82 59 76 72 76 99C76 163 104 280 139 360C163 415 186 433 234 433C257 433 275 429 319 414Z" stroke="rgb(0, 0, 0)" stroke-width="8" fill="rgb(0, 0, 0)" style="transform:matrix(0.015300000000000001,0,0,-0.015300000000000001,0,0);"></path></g></g></g><g><g><text x="144.0703125" y="115.5" style="white-space:pre;stroke:none;fill:rgb(74, 74, 74);font-size:15px;font-family:Arial, Helvetica, sans-serif;font-weight:400;font-style:normal;dominant-baseline:text-before-edge;text-decoration:none solid rgb(74, 74, 74);">A</text></g></g><g><g><g style="transform:matrix(1,0,0,1,154.03125,150.596875);"><path d="M271 204L242 77C238 60 236 42 236 26C236 4 245 -9 260 -9C283 -9 324 17 406 85L399 106C375 86 346 59 324 59C315 59 309 68 309 82C309 87 309 90 310 93L402 472L392 481L359 463C318 478 301 482 274 482C246 482 226 477 199 464C137 433 104 403 79 354C35 265 4 145 4 67C4 23 19 -11 38 -11C75 -11 155 41 271 204ZM319 414C297 305 278 253 244 201C187 117 126 59 94 59C82 59 76 72 76 99C76 163 104 280 139 360C163 415 186 433 234 433C257 433 275 429 319 414Z" stroke="rgb(0, 0, 0)" stroke-width="8" fill="rgb(0, 0, 0)" style="transform:matrix(0.015300000000000001,0,0,-0.015300000000000001,0,0);"></path></g></g></g><g><g><g style="transform:matrix(1,0,0,1,92.203125,54.9921875);"><path d="M176 -11C232 -11 347 62 390 125C431 186 465 296 465 371C465 438 442 482 406 482C364 482 311 456 259 409C218 374 198 348 162 289L186 408C189 425 191 440 191 452C191 471 183 482 169 482C148 482 110 461 36 408L8 388L15 368L47 389C75 407 86 412 95 412C105 412 112 403 112 389C112 381 110 361 108 351L50 8C40 -52 21 -143 1 -233L-7 -270L0 -276C21 -269 41 -264 73 -259L115 3C136 -4 158 -11 176 -11ZM143 165C165 293 272 424 355 424C381 424 393 402 393 356C393 275 353 156 300 80C280 51 248 36 207 36C176 36 151 43 125 59Z" stroke="rgb(0, 0, 0)" stroke-width="8" fill="rgb(0, 0, 0)" style="transform:matrix(0.017,0,0,-0.017,0,0);"></path></g><g><g><g><g style="transform:matrix(1,0,0,1,101.171875,58.0015625);"><path d="M31 148C26 97 20 62 9 16C47 -2 81 -11 116 -11C165 -11 211 7 262 47C313 87 334 124 334 174C334 228 302 257 228 271L185 279C125 290 106 307 106 348C106 401 151 442 208 442C249 442 287 424 303 397L303 342L326 342C330 377 334 404 345 455C306 474 278 482 245 482C193 482 132 452 84 404C58 377 47 352 47 316C47 260 78 228 144 215L207 203C251 195 267 177 267 138C267 73 221 29 150 29C115 29 84 40 56 64L56 148Z" stroke="rgb(0, 0, 0)" stroke-width="8" fill="rgb(0, 0, 0)" style="transform:matrix(0.0119,0,0,-0.0119,0,0);"></path></g></g></g></g></g></g><g><g><g style="transform:matrix(1,0,0,1,27.6875,75.9625);"><path d="M349 664L352 692L238 689C222 689 204 689 161 690L97 692L94 664L141 662C165 661 176 653 176 635L81 55C77 37 65 30 21 23L16 -3L57 -2C88 -1 150 0 170 0L467 -1L500 0C499 25 510 103 523 165L492 165L475 103C466 71 457 54 448 49C435 44 371 39 304 39C255 39 228 40 162 46C165 64 256 605 256 613C263 651 270 658 307 661ZM776 385L818 613C825 652 832 658 869 661L911 664L914 692L890 692L800 689C784 689 766 689 723 690L659 692L656 664L703 662C727 661 738 653 738 635C738 621 734 590 729 559L655 125C638 33 637 32 597 28L556 25L552 -3L594 -2C642 -1 665 0 684 0L781 -3L807 -3L810 25L761 28C734 30 725 37 725 58C725 67 726 74 729 93L771 340L832 341C894 342 936 343 955 343C974 343 1015 342 1078 341L1139 340L1099 125C1090 76 1083 48 1078 42C1074 34 1063 30 1041 28L991 25L987 -3L1043 -2C1087 -1 1117 0 1128 0C1144 0 1175 -1 1218 -2L1260 -3L1263 25L1205 28C1179 29 1169 37 1169 58C1169 67 1170 76 1173 93L1265 613C1272 652 1278 657 1316 661L1352 664L1355 692L1339 692L1248 689C1233 689 1212 689 1168 690L1105 692L1102 664L1150 662C1174 661 1185 653 1185 635C1185 621 1181 589 1176 559L1146 385ZM1440 471C1440 386 1478 339 1562 319L1657 296C1711 283 1738 248 1738 191C1738 96 1667 30 1564 30C1510 30 1472 42 1428 73L1428 172L1398 172C1392 117 1385 72 1374 20C1423 -5 1476 -18 1529 -18C1684 -18 1817 99 1817 234C1817 313 1774 355 1673 377L1608 391C1542 405 1512 442 1512 508C1512 595 1579 658 1671 658C1720 658 1753 645 1783 613L1783 537L1813 537C1817 591 1824 629 1838 672C1793 696 1753 706 1706 706C1582 706 1440 614 1440 471Z" stroke="rgb(0, 0, 0)" stroke-width="8" fill="rgb(0, 0, 0)" style="transform:matrix(0.020399999999999998,0,0,-0.020399999999999998,0,0);"></path></g><g><g><g><g style="transform:matrix(1,0,0,1,66.78125,79.56125);"><path d="M31 148C26 97 20 62 9 16C47 -2 81 -11 116 -11C165 -11 211 7 262 47C313 87 334 124 334 174C334 228 302 257 228 271L185 279C125 290 106 307 106 348C106 401 151 442 208 442C249 442 287 424 303 397L303 342L326 342C330 377 334 404 345 455C306 474 278 482 245 482C193 482 132 452 84 404C58 377 47 352 47 316C47 260 78 228 144 215L207 203C251 195 267 177 267 138C267 73 221 29 150 29C115 29 84 40 56 64L56 148Z" stroke="rgb(0, 0, 0)" stroke-width="8" fill="rgb(0, 0, 0)" style="transform:matrix(0.01428,0,0,-0.01428,0,0);"></path></g></g></g></g></g></g><g><g><g style="transform:matrix(1,0,0,1,128.4921875,76.43125);"><path d="M105 664L161 662C185 661 196 653 196 635C196 621 192 589 187 559L112 125C96 34 94 32 54 28L13 25L9 -3L51 -2C98 0 117 0 141 0L238 -3L264 -3L267 25L218 28C191 30 182 38 182 58C182 67 183 76 186 93L287 648C316 654 336 656 363 656C450 656 496 617 496 543C496 448 418 378 314 378L270 378L267 367C401 172 432 124 507 -3L592 0C593 0 607 -1 626 -3L639 -3L639 24C599 29 588 37 559 79L375 354C430 364 459 376 495 402C553 444 584 499 584 560C584 646 520 693 409 691L108 691ZM887 385L929 613C936 652 943 658 980 661L1022 664L1025 692L1001 692L911 689C895 689 877 689 834 690L770 692L767 664L814 662C838 661 849 653 849 635C849 621 845 590 840 559L766 125C749 33 748 32 708 28L667 25L663 -3L705 -2C753 -1 776 0 795 0L892 -3L918 -3L921 25L872 28C845 30 836 37 836 58C836 67 837 74 840 93L882 340L943 341C1005 342 1047 343 1066 343C1085 343 1126 342 1189 341L1250 340L1210 125C1201 76 1194 48 1189 42C1185 34 1174 30 1152 28L1102 25L1098 -3L1154 -2C1198 -1 1228 0 1239 0C1255 0 1286 -1 1329 -2L1371 -3L1374 25L1316 28C1290 29 1280 37 1280 58C1280 67 1281 76 1284 93L1376 613C1383 652 1389 657 1427 661L1463 664L1466 692L1450 692L1359 689C1344 689 1323 689 1279 690L1216 692L1213 664L1261 662C1285 661 1296 653 1296 635C1296 621 1292 589 1287 559L1257 385ZM1551 471C1551 386 1589 339 1673 319L1768 296C1822 283 1849 248 1849 191C1849 96 1778 30 1675 30C1621 30 1583 42 1539 73L1539 172L1509 172C1503 117 1496 72 1485 20C1534 -5 1587 -18 1640 -18C1795 -18 1928 99 1928 234C1928 313 1885 355 1784 377L1719 391C1653 405 1623 442 1623 508C1623 595 1690 658 1782 658C1831 658 1864 645 1894 613L1894 537L1924 537C1928 591 1935 629 1949 672C1904 696 1864 706 1817 706C1693 706 1551 614 1551 471Z" stroke="rgb(0, 0, 0)" stroke-width="8" fill="rgb(0, 0, 0)" style="transform:matrix(0.020399999999999998,0,0,-0.020399999999999998,0,0);"></path></g><g><g><g><g style="transform:matrix(1,0,0,1,169.8515625,80.03);"><path d="M31 148C26 97 20 62 9 16C47 -2 81 -11 116 -11C165 -11 211 7 262 47C313 87 334 124 334 174C334 228 302 257 228 271L185 279C125 290 106 307 106 348C106 401 151 442 208 442C249 442 287 424 303 397L303 342L326 342C330 377 334 404 345 455C306 474 278 482 245 482C193 482 132 452 84 404C58 377 47 352 47 316C47 260 78 228 144 215L207 203C251 195 267 177 267 138C267 73 221 29 150 29C115 29 84 40 56 64L56 148Z" stroke="rgb(0, 0, 0)" stroke-width="8" fill="rgb(0, 0, 0)" style="transform:matrix(0.01428,0,0,-0.01428,0,0);"></path></g></g></g></g></g></g><g><g><text x="526.2890625" y="114.21875" style="white-space:pre;stroke:none;fill:rgb(74, 74, 74);font-size:15px;font-family:Arial, Helvetica, sans-serif;font-weight:400;font-style:normal;dominant-baseline:text-before-edge;text-decoration:none solid rgb(74, 74, 74);">A</text></g></g><g><g><text x="578.3515625" y="114.21875" style="white-space:pre;stroke:none;fill:rgb(74, 74, 74);font-size:15px;font-family:Arial, Helvetica, sans-serif;font-weight:400;font-style:normal;dominant-baseline:text-before-edge;text-decoration:none solid rgb(74, 74, 74);">B</text></g></g><g><g><g style="transform:matrix(1,0,0,1,549.5,205.0390625);"><path d="M171 -15C331 -15 431 100 434 257C436 343 410 361 345 404L345 407C398 407 457 403 511 411C518 431 521 451 524 474C485 453 364 467 313 457C150 424 28 329 28 153C28 48 59 -15 171 -15ZM367 267C367 168 329 13 203 13C111 13 103 112 104 182C105 292 143 412 274 412C359 412 367 328 367 267Z" stroke="rgb(74, 74, 74)" stroke-width="8" fill="rgb(74, 74, 74)" style="transform:matrix(0.017,0,0,-0.017,0,0);"></path></g><g><g><g><g style="transform:matrix(1,0,0,1,559.375,208.0484375);"><path d="M45 284C45 90 152 -18 343 -18C439 -18 510 5 600 67L610 103L600 110C506 53 454 35 376 35C219 35 133 131 133 309C133 447 190 653 418 653C489 653 541 639 597 603L597 519L624 519C629 576 637 619 651 665C575 694 518 706 456 706C276 706 45 578 45 284Z" stroke="rgb(74, 74, 74)" stroke-width="8" fill="rgb(74, 74, 74)" style="transform:matrix(0.0119,0,0,-0.0119,0,0);"></path></g></g></g></g></g></g><g><g><g style="transform:matrix(1,0,0,1,529.78125,147.3);"><path d="M271 204L242 77C238 60 236 42 236 26C236 4 245 -9 260 -9C283 -9 324 17 406 85L399 106C375 86 346 59 324 59C315 59 309 68 309 82C309 87 309 90 310 93L402 472L392 481L359 463C318 478 301 482 274 482C246 482 226 477 199 464C137 433 104 403 79 354C35 265 4 145 4 67C4 23 19 -11 38 -11C75 -11 155 41 271 204ZM319 414C297 305 278 253 244 201C187 117 126 59 94 59C82 59 76 72 76 99C76 163 104 280 139 360C163 415 186 433 234 433C257 433 275 429 319 414Z" stroke="rgb(0, 0, 0)" stroke-width="8" fill="rgb(0, 0, 0)" style="transform:matrix(0.015300000000000001,0,0,-0.015300000000000001,0,0);"></path></g></g></g><g><g><g style="transform:matrix(1,0,0,1,575.171875,152.346875);"><path d="M235 722L223 733C171 707 135 698 63 691L59 670L107 670C131 670 141 663 141 646C141 639 140 628 139 622L38 71C37 68 37 64 37 61C37 22 85 -11 140 -11C177 -11 228 8 271 39C367 107 433 244 433 376C433 414 424 453 412 468C405 477 392 482 377 482C353 482 323 474 295 460C244 433 211 403 149 324ZM322 424C348 424 361 401 361 352C361 288 340 202 310 137C277 68 237 36 183 36C137 36 112 59 112 101C112 135 127 276 208 361C241 395 293 424 322 424Z" stroke="rgb(0, 0, 0)" stroke-width="8" fill="rgb(0, 0, 0)" style="transform:matrix(0.015300000000000001,0,0,-0.015300000000000001,0,0);"></path></g></g></g><g><g><g style="transform:matrix(1,0,0,1,547.40625,187.034375);"><path d="M342 330L365 330C373 395 380 432 389 458C365 473 330 482 293 482C248 483 175 463 118 400C64 352 25 241 25 136C25 40 67 -11 147 -11C201 -11 249 9 304 54L354 95L346 115L331 105C259 57 221 40 186 40C130 40 101 80 101 159C101 267 136 371 185 409C206 425 230 433 261 433C306 433 342 414 342 390Z" stroke="rgb(0, 0, 0)" stroke-width="8" fill="rgb(0, 0, 0)" style="transform:matrix(0.015300000000000001,0,0,-0.015300000000000001,0,0);"></path></g></g></g><g><g><text x="553.640625" y="152.890625" style="white-space:pre;stroke:none;fill:rgb(74, 74, 74);font-size:15px;font-family:Arial, Helvetica, sans-serif;font-weight:400;font-style:normal;dominant-baseline:text-before-edge;text-decoration:none solid rgb(74, 74, 74);">C</text></g></g><g><g><g style="transform:matrix(1,0,0,1,536.6484375,79.728125);"><path d="M349 664L352 692L238 689C222 689 204 689 161 690L97 692L94 664L141 662C165 661 176 653 176 635L81 55C77 37 65 30 21 23L16 -3L57 -2C88 -1 150 0 170 0L467 -1L500 0C499 25 510 103 523 165L492 165L475 103C466 71 457 54 448 49C435 44 371 39 304 39C255 39 228 40 162 46C165 64 256 605 256 613C263 651 270 658 307 661ZM776 385L818 613C825 652 832 658 869 661L911 664L914 692L890 692L800 689C784 689 766 689 723 690L659 692L656 664L703 662C727 661 738 653 738 635C738 621 734 590 729 559L655 125C638 33 637 32 597 28L556 25L552 -3L594 -2C642 -1 665 0 684 0L781 -3L807 -3L810 25L761 28C734 30 725 37 725 58C725 67 726 74 729 93L771 340L832 341C894 342 936 343 955 343C974 343 1015 342 1078 341L1139 340L1099 125C1090 76 1083 48 1078 42C1074 34 1063 30 1041 28L991 25L987 -3L1043 -2C1087 -1 1117 0 1128 0C1144 0 1175 -1 1218 -2L1260 -3L1263 25L1205 28C1179 29 1169 37 1169 58C1169 67 1170 76 1173 93L1265 613C1272 652 1278 657 1316 661L1352 664L1355 692L1339 692L1248 689C1233 689 1212 689 1168 690L1105 692L1102 664L1150 662C1174 661 1185 653 1185 635C1185 621 1181 589 1176 559L1146 385ZM1440 471C1440 386 1478 339 1562 319L1657 296C1711 283 1738 248 1738 191C1738 96 1667 30 1564 30C1510 30 1472 42 1428 73L1428 172L1398 172C1392 117 1385 72 1374 20C1423 -5 1476 -18 1529 -18C1684 -18 1817 99 1817 234C1817 313 1774 355 1673 377L1608 391C1542 405 1512 442 1512 508C1512 595 1579 658 1671 658C1720 658 1753 645 1783 613L1783 537L1813 537C1817 591 1824 629 1838 672C1793 696 1753 706 1706 706C1582 706 1440 614 1440 471Z" stroke="rgb(0, 0, 0)" stroke-width="8" fill="rgb(0, 0, 0)" style="transform:matrix(0.020399999999999998,0,0,-0.020399999999999998,0,0);"></path></g><g><g><g><g style="transform:matrix(1,0,0,1,575.7421875,83.326875);"><path d="M34 388L41 368L73 389C110 412 113 414 120 414C130 414 138 404 138 391C138 384 134 361 130 347L64 107C56 76 51 49 51 30C51 6 62 -9 81 -9C107 -9 143 12 241 85L231 103L205 86C176 67 153 56 144 56C137 56 131 66 131 76C131 86 133 95 138 116L215 420C219 437 221 448 221 456C221 473 212 482 196 482C174 482 137 461 62 408ZM228 712C199 712 170 679 170 645C170 620 185 604 209 604C240 604 264 633 264 671C264 695 249 712 228 712Z" stroke="rgb(0, 0, 0)" stroke-width="8" fill="rgb(0, 0, 0)" style="transform:matrix(0.01428,0,0,-0.01428,0,0);"></path></g></g></g></g></g></g><g><g><text x="645.2421875" y="111.1875" style="white-space:pre;stroke:none;fill:rgb(74, 74, 74);font-size:15px;font-family:Arial, Helvetica, sans-serif;font-weight:400;font-style:normal;dominant-baseline:text-before-edge;text-decoration:none solid rgb(74, 74, 74);">A</text></g></g><g><g><text x="711.6953125" y="108.1875" style="white-space:pre;stroke:none;fill:rgb(74, 74, 74);font-size:15px;font-family:Arial, Helvetica, sans-serif;font-weight:400;font-style:normal;dominant-baseline:text-before-edge;text-decoration:none solid rgb(74, 74, 74);">B</text></g></g><g><g><g style="transform:matrix(1,0,0,1,634.125,144.33125);"><path d="M271 204L242 77C238 60 236 42 236 26C236 4 245 -9 260 -9C283 -9 324 17 406 85L399 106C375 86 346 59 324 59C315 59 309 68 309 82C309 87 309 90 310 93L402 472L392 481L359 463C318 478 301 482 274 482C246 482 226 477 199 464C137 433 104 403 79 354C35 265 4 145 4 67C4 23 19 -11 38 -11C75 -11 155 41 271 204ZM319 414C297 305 278 253 244 201C187 117 126 59 94 59C82 59 76 72 76 99C76 163 104 280 139 360C163 415 186 433 234 433C257 433 275 429 319 414Z" stroke="rgb(0, 0, 0)" stroke-width="8" fill="rgb(0, 0, 0)" style="transform:matrix(0.015300000000000001,0,0,-0.015300000000000001,0,0);"></path></g></g></g><g><g><g style="transform:matrix(1,0,0,1,702.390625,145.33125);"><path d="M235 722L223 733C171 707 135 698 63 691L59 670L107 670C131 670 141 663 141 646C141 639 140 628 139 622L38 71C37 68 37 64 37 61C37 22 85 -11 140 -11C177 -11 228 8 271 39C367 107 433 244 433 376C433 414 424 453 412 468C405 477 392 482 377 482C353 482 323 474 295 460C244 433 211 403 149 324ZM322 424C348 424 361 401 361 352C361 288 340 202 310 137C277 68 237 36 183 36C137 36 112 59 112 101C112 135 127 276 208 361C241 395 293 424 322 424Z" stroke="rgb(0, 0, 0)" stroke-width="8" fill="rgb(0, 0, 0)" style="transform:matrix(0.015300000000000001,0,0,-0.015300000000000001,0,0);"></path></g></g></g><g><g><g style="transform:matrix(1,0,0,1,634.125,185.9875);"><path d="M342 330L365 330C373 395 380 432 389 458C365 473 330 482 293 482C248 483 175 463 118 400C64 352 25 241 25 136C25 40 67 -11 147 -11C201 -11 249 9 304 54L354 95L346 115L331 105C259 57 221 40 186 40C130 40 101 80 101 159C101 267 136 371 185 409C206 425 230 433 261 433C306 433 342 414 342 390Z" stroke="rgb(0, 0, 0)" stroke-width="8" fill="rgb(0, 0, 0)" style="transform:matrix(0.015300000000000001,0,0,-0.015300000000000001,0,0);"></path></g></g></g><g><g><g style="transform:matrix(1,0,0,1,640.6875,244.1484375);"><path d="M171 -15C331 -15 431 100 434 257C436 343 410 361 345 404L345 407C398 407 457 403 511 411C518 431 521 451 524 474C485 453 364 467 313 457C150 424 28 329 28 153C28 48 59 -15 171 -15ZM367 267C367 168 329 13 203 13C111 13 103 112 104 182C105 292 143 412 274 412C359 412 367 328 367 267Z" stroke="rgb(74, 74, 74)" stroke-width="8" fill="rgb(74, 74, 74)" style="transform:matrix(0.017,0,0,-0.017,0,0);"></path></g><g><g><g><g style="transform:matrix(1,0,0,1,650.5625,247.1578125);"><path d="M45 284C45 90 152 -18 343 -18C439 -18 510 5 600 67L610 103L600 110C506 53 454 35 376 35C219 35 133 131 133 309C133 447 190 653 418 653C489 653 541 639 597 603L597 519L624 519C629 576 637 619 651 665C575 694 518 706 456 706C276 706 45 578 45 284Z" stroke="rgb(74, 74, 74)" stroke-width="8" fill="rgb(74, 74, 74)" style="transform:matrix(0.0119,0,0,-0.0119,0,0);"></path></g></g></g></g></g></g><g><g><text x="644.828125" y="192.015625" style="white-space:pre;stroke:none;fill:rgb(74, 74, 74);font-size:15px;font-family:Arial, Helvetica, sans-serif;font-weight:400;font-style:normal;dominant-baseline:text-before-edge;text-decoration:none solid rgb(74, 74, 74);">C</text></g></g><g><g><g style="transform:matrix(1,0,0,1,643.0546875,165.9953125);"><path d="M470 280L370 280L390 419L495 419L495 475L398 475L428 684L370 684L340 475L207 475L238 684L180 684L149 475L31 475L31 419L141 419L120 280L4 280L4 224L111 224L78 0L136 0L169 224L303 224L272 0L330 0L361 224L470 224ZM332 419L312 280L178 280L199 419Z" stroke="rgb(74, 74, 74)" stroke-width="8" fill="rgb(74, 74, 74)" style="transform:matrix(0.015300000000000001,0,0,-0.015300000000000001,0,0);"></path></g><g><g><g><g style="transform:matrix(1,0,0,1,651.1328125,168.7021875);"><path d="M418 -3L418 27L366 30C311 33 301 44 301 96L301 700L60 598L67 548L217 614L217 96C217 44 206 33 152 30L96 27L96 -3C250 0 250 0 261 0C292 0 402 -3 418 -3Z" stroke="rgb(74, 74, 74)" stroke-width="8" fill="rgb(74, 74, 74)" style="transform:matrix(0.01071,0,0,-0.01071,0,0);"></path></g></g></g></g></g></g><g><g><g style="transform:matrix(1,0,0,1,634.125,225.659375);"><path d="M342 330L365 330C373 395 380 432 389 458C365 473 330 482 293 482C248 483 175 463 118 400C64 352 25 241 25 136C25 40 67 -11 147 -11C201 -11 249 9 304 54L354 95L346 115L331 105C259 57 221 40 186 40C130 40 101 80 101 159C101 267 136 371 185 409C206 425 230 433 261 433C306 433 342 414 342 390Z" stroke="rgb(0, 0, 0)" stroke-width="8" fill="rgb(0, 0, 0)" style="transform:matrix(0.015300000000000001,0,0,-0.015300000000000001,0,0);"></path></g></g></g><g><g><g style="transform:matrix(1,0,0,1,710.0078125,164.4953125);"><path d="M470 280L370 280L390 419L495 419L495 475L398 475L428 684L370 684L340 475L207 475L238 684L180 684L149 475L31 475L31 419L141 419L120 280L4 280L4 224L111 224L78 0L136 0L169 224L303 224L272 0L330 0L361 224L470 224ZM332 419L312 280L178 280L199 419Z" stroke="rgb(74, 74, 74)" stroke-width="8" fill="rgb(74, 74, 74)" style="transform:matrix(0.015300000000000001,0,0,-0.015300000000000001,0,0);"></path></g><g><g><g><g style="transform:matrix(1,0,0,1,718.0859375,167.2021875);"><path d="M418 -3L418 27L366 30C311 33 301 44 301 96L301 700L60 598L67 548L217 614L217 96C217 44 206 33 152 30L96 27L96 -3C250 0 250 0 261 0C292 0 402 -3 418 -3Z" stroke="rgb(74, 74, 74)" stroke-width="8" fill="rgb(74, 74, 74)" style="transform:matrix(0.01071,0,0,-0.01071,0,0);"></path></g></g></g></g></g></g><g><g><g style="transform:matrix(1,0,0,1,662.421875,78.18125);"><path d="M105 664L161 662C185 661 196 653 196 635C196 621 192 589 187 559L112 125C96 34 94 32 54 28L13 25L9 -3L51 -2C98 0 117 0 141 0L238 -3L264 -3L267 25L218 28C191 30 182 38 182 58C182 67 183 76 186 93L287 648C316 654 336 656 363 656C450 656 496 617 496 543C496 448 418 378 314 378L270 378L267 367C401 172 432 124 507 -3L592 0C593 0 607 -1 626 -3L639 -3L639 24C599 29 588 37 559 79L375 354C430 364 459 376 495 402C553 444 584 499 584 560C584 646 520 693 409 691L108 691ZM887 385L929 613C936 652 943 658 980 661L1022 664L1025 692L1001 692L911 689C895 689 877 689 834 690L770 692L767 664L814 662C838 661 849 653 849 635C849 621 845 590 840 559L766 125C749 33 748 32 708 28L667 25L663 -3L705 -2C753 -1 776 0 795 0L892 -3L918 -3L921 25L872 28C845 30 836 37 836 58C836 67 837 74 840 93L882 340L943 341C1005 342 1047 343 1066 343C1085 343 1126 342 1189 341L1250 340L1210 125C1201 76 1194 48 1189 42C1185 34 1174 30 1152 28L1102 25L1098 -3L1154 -2C1198 -1 1228 0 1239 0C1255 0 1286 -1 1329 -2L1371 -3L1374 25L1316 28C1290 29 1280 37 1280 58C1280 67 1281 76 1284 93L1376 613C1383 652 1389 657 1427 661L1463 664L1466 692L1450 692L1359 689C1344 689 1323 689 1279 690L1216 692L1213 664L1261 662C1285 661 1296 653 1296 635C1296 621 1292 589 1287 559L1257 385ZM1551 471C1551 386 1589 339 1673 319L1768 296C1822 283 1849 248 1849 191C1849 96 1778 30 1675 30C1621 30 1583 42 1539 73L1539 172L1509 172C1503 117 1496 72 1485 20C1534 -5 1587 -18 1640 -18C1795 -18 1928 99 1928 234C1928 313 1885 355 1784 377L1719 391C1653 405 1623 442 1623 508C1623 595 1690 658 1782 658C1831 658 1864 645 1894 613L1894 537L1924 537C1928 591 1935 629 1949 672C1904 696 1864 706 1817 706C1693 706 1551 614 1551 471Z" stroke="rgb(0, 0, 0)" stroke-width="8" fill="rgb(0, 0, 0)" style="transform:matrix(0.020399999999999998,0,0,-0.020399999999999998,0,0);"></path></g><g><g><g><g style="transform:matrix(1,0,0,1,703.78125,81.78);"><path d="M34 388L41 368L73 389C110 412 113 414 120 414C130 414 138 404 138 391C138 384 134 361 130 347L64 107C56 76 51 49 51 30C51 6 62 -9 81 -9C107 -9 143 12 241 85L231 103L205 86C176 67 153 56 144 56C137 56 131 66 131 76C131 86 133 95 138 116L215 420C219 437 221 448 221 456C221 473 212 482 196 482C174 482 137 461 62 408ZM228 712C199 712 170 679 170 645C170 620 185 604 209 604C240 604 264 633 264 671C264 695 249 712 228 712Z" stroke="rgb(0, 0, 0)" stroke-width="8" fill="rgb(0, 0, 0)" style="transform:matrix(0.01428,0,0,-0.01428,0,0);"></path></g></g></g></g></g></g><g><g><g style="transform:matrix(1,0,0,1,701.46875,184.7375);"><path d="M342 330L365 330C373 395 380 432 389 458C365 473 330 482 293 482C248 483 175 463 118 400C64 352 25 241 25 136C25 40 67 -11 147 -11C201 -11 249 9 304 54L354 95L346 115L331 105C259 57 221 40 186 40C130 40 101 80 101 159C101 267 136 371 185 409C206 425 230 433 261 433C306 433 342 414 342 390Z" stroke="rgb(0, 0, 0)" stroke-width="8" fill="rgb(0, 0, 0)" style="transform:matrix(0.015300000000000001,0,0,-0.015300000000000001,0,0);"></path></g></g></g><g><g><g style="transform:matrix(1,0,0,1,708.03125,242.8828125);"><path d="M171 -15C331 -15 431 100 434 257C436 343 410 361 345 404L345 407C398 407 457 403 511 411C518 431 521 451 524 474C485 453 364 467 313 457C150 424 28 329 28 153C28 48 59 -15 171 -15ZM367 267C367 168 329 13 203 13C111 13 103 112 104 182C105 292 143 412 274 412C359 412 367 328 367 267Z" stroke="rgb(74, 74, 74)" stroke-width="8" fill="rgb(74, 74, 74)" style="transform:matrix(0.017,0,0,-0.017,0,0);"></path></g><g><g><g><g style="transform:matrix(1,0,0,1,717.90625,245.8921875);"><path d="M45 284C45 90 152 -18 343 -18C439 -18 510 5 600 67L610 103L600 110C506 53 454 35 376 35C219 35 133 131 133 309C133 447 190 653 418 653C489 653 541 639 597 603L597 519L624 519C629 576 637 619 651 665C575 694 518 706 456 706C276 706 45 578 45 284Z" stroke="rgb(74, 74, 74)" stroke-width="8" fill="rgb(74, 74, 74)" style="transform:matrix(0.0119,0,0,-0.0119,0,0);"></path></g></g></g></g></g></g><g><g><text x="712.171875" y="190.75" style="white-space:pre;stroke:none;fill:rgb(74, 74, 74);font-size:15px;font-family:Arial, Helvetica, sans-serif;font-weight:400;font-style:normal;dominant-baseline:text-before-edge;text-decoration:none solid rgb(74, 74, 74);">C</text></g></g><g><g><g style="transform:matrix(1,0,0,1,701.46875,224.409375);"><path d="M342 330L365 330C373 395 380 432 389 458C365 473 330 482 293 482C248 483 175 463 118 400C64 352 25 241 25 136C25 40 67 -11 147 -11C201 -11 249 9 304 54L354 95L346 115L331 105C259 57 221 40 186 40C130 40 101 80 101 159C101 267 136 371 185 409C206 425 230 433 261 433C306 433 342 414 342 390Z" stroke="rgb(0, 0, 0)" stroke-width="8" fill="rgb(0, 0, 0)" style="transform:matrix(0.015300000000000001,0,0,-0.015300000000000001,0,0);"></path></g></g></g><g><g><g style="transform:matrix(1,0,0,1,43.6875,24.321875);"><path d="M108 471C108 386 146 339 230 319L325 296C379 283 406 248 406 191C406 96 335 30 232 30C178 30 140 42 96 73L96 172L66 172C60 117 53 72 42 20C91 -5 144 -18 197 -18C352 -18 485 99 485 234C485 313 442 355 341 377L276 391C210 405 180 442 180 508C180 595 247 658 339 658C388 658 421 645 451 613L451 537L481 537C485 591 492 629 506 672C461 696 421 706 374 706C250 706 108 614 108 471ZM883 111L859 94C806 56 758 36 722 36C675 36 646 73 646 133C646 158 649 185 654 214C671 218 780 248 805 259C890 296 929 342 929 404C929 451 895 482 845 482C777 496 667 423 630 349C600 299 570 180 570 113C570 35 614 -11 686 -11C743 -11 799 17 891 92ZM668 274C685 343 705 386 734 412C752 428 783 440 807 440C836 440 855 420 855 388C855 344 820 297 768 272C740 258 704 247 659 237ZM1194 722L1182 733C1130 707 1094 698 1022 691L1018 670L1066 670C1090 670 1100 663 1100 648C1100 645 1100 640 1097 622C1086 567 1013 182 998 132C985 82 979 52 979 31C979 6 990 -9 1009 -9C1035 -9 1071 12 1169 85L1159 103L1133 86C1104 67 1082 56 1072 56C1065 56 1059 66 1059 76C1059 82 1060 89 1063 104ZM1565 437L1549 437L1570 549C1586 635 1614 673 1660 673C1690 673 1717 658 1732 634L1742 638C1747 654 1757 685 1765 705L1770 720C1754 727 1723 733 1700 733C1689 733 1673 730 1665 726C1641 715 1559 654 1536 630C1514 608 1502 578 1491 521L1476 442C1435 422 1415 414 1390 405L1385 383L1466 383L1457 327C1427 132 1390 -54 1368 -123C1350 -182 1320 -213 1284 -213C1261 -213 1250 -206 1232 -184L1218 -188C1214 -211 1200 -259 1195 -268C1204 -273 1219 -276 1230 -276C1271 -276 1325 -245 1364 -198C1435 -114 1455 -18 1539 383L1643 383C1647 402 1654 425 1660 439L1656 446C1627 439 1628 437 1565 437Z" stroke="rgb(0, 0, 0)" stroke-width="8" fill="rgb(0, 0, 0)" style="transform:matrix(0.020399999999999998,0,0,-0.020399999999999998,0,0);"></path></g><g style="transform:matrix(1,0,0,1,83.78125,24.321875);"><path d="M555 243L555 299L51 299L51 243Z" stroke="rgb(0, 0, 0)" stroke-width="8" fill="rgb(0, 0, 0)" style="transform:matrix(0.020399999999999998,0,0,-0.020399999999999998,0,0);"></path></g><g style="transform:matrix(1,0,0,1,100.109375,24.321875);"><path d="M235 722L223 733C171 707 135 698 63 691L59 670L107 670C131 670 141 663 141 646C141 639 140 628 139 622L38 71C37 68 37 64 37 61C37 22 85 -11 140 -11C177 -11 228 8 271 39C367 107 433 244 433 376C433 414 424 453 412 468C405 477 392 482 377 482C353 482 323 474 295 460C244 433 211 403 149 324ZM322 424C348 424 361 401 361 352C361 288 340 202 310 137C277 68 237 36 183 36C137 36 112 59 112 101C112 135 127 276 208 361C241 395 293 424 322 424ZM479 152C479 46 524 -11 607 -11C662 -11 722 15 767 57C829 116 873 230 873 331C873 425 823 482 740 482C636 482 479 382 479 152ZM703 444C764 444 797 399 797 315C797 219 766 113 722 60C704 39 678 27 647 27C589 27 555 72 555 151C555 264 594 387 643 427C656 438 679 444 703 444ZM1397 473L1390 482L1322 465L1312 414C1297 336 1272 268 1241 221C1182 130 1104 59 1064 59C1056 59 1051 68 1051 85C1051 99 1053 112 1058 137L1115 408C1118 424 1120 438 1120 451C1120 470 1111 482 1097 482C1077 482 1039 461 965 408L937 388L944 368L976 389C1004 407 1015 412 1024 412C1033 412 1041 403 1041 392C1041 388 1040 378 1039 374L976 77C974 68 972 44 972 30C972 7 987 -11 1007 -11C1070 -11 1191 101 1275 239L1238 97C1231 73 1227 46 1227 31C1227 6 1238 -9 1257 -9C1283 -9 1319 12 1417 85L1407 103L1381 86C1357 70 1331 59 1320 59C1312 59 1307 66 1307 76C1307 112 1382 416 1397 473ZM1484 388L1491 368L1523 389C1560 412 1563 414 1570 414C1581 414 1588 404 1588 389C1588 338 1547 145 1506 2L1513 -9C1538 -2 1561 4 1583 8C1602 134 1623 199 1669 268C1723 352 1798 414 1843 414C1854 414 1860 405 1860 390C1860 372 1857 351 1849 319L1797 107C1788 70 1784 47 1784 31C1784 6 1795 -9 1814 -9C1840 -9 1876 12 1974 85L1964 103L1938 86C1909 67 1887 56 1877 56C1870 56 1864 65 1864 76C1864 81 1865 92 1866 96L1932 372C1939 401 1943 429 1943 446C1943 469 1932 482 1912 482C1870 482 1801 444 1742 389C1704 354 1676 320 1624 247L1662 408C1666 426 1668 438 1668 449C1668 470 1660 482 1645 482C1624 482 1585 460 1512 408ZM2498 722L2486 733C2434 707 2398 698 2326 691L2322 670L2370 670C2394 670 2404 663 2404 646C2404 638 2403 629 2402 622L2374 468C2344 477 2317 482 2292 482C2223 482 2129 410 2083 323C2052 265 2032 170 2032 86C2032 21 2047 -11 2076 -11C2103 -11 2140 6 2174 33C2228 77 2261 116 2328 217L2305 126C2294 82 2289 50 2289 24C2289 3 2298 -9 2315 -9C2332 -9 2356 3 2390 28L2471 88L2461 107L2417 76C2403 66 2387 59 2378 59C2370 59 2364 68 2364 82C2364 90 2365 99 2372 128ZM2129 59C2113 59 2104 73 2104 98C2104 224 2150 380 2199 418C2212 428 2231 433 2258 433C2302 433 2331 427 2364 410L2352 351C2315 171 2174 59 2129 59Z" stroke="rgb(0, 0, 0)" stroke-width="8" fill="rgb(0, 0, 0)" style="transform:matrix(0.020399999999999998,0,0,-0.020399999999999998,0,0);"></path></g></g></g><g><g><g style="transform:matrix(1,0,0,1,282.2109375,23.321875);"><path d="M45 284C45 90 152 -18 343 -18C439 -18 510 5 600 67L610 103L600 110C506 53 454 35 376 35C219 35 133 131 133 309C133 447 190 653 418 653C489 653 541 639 597 603L597 519L624 519C629 576 637 619 651 665C575 694 518 706 456 706C276 706 45 578 45 284ZM704 152C704 46 749 -11 832 -11C887 -11 947 15 992 57C1054 116 1098 230 1098 331C1098 425 1048 482 965 482C861 482 704 382 704 152ZM928 444C989 444 1022 399 1022 315C1022 219 991 113 947 60C929 39 903 27 872 27C814 27 780 72 780 151C780 264 819 387 868 427C881 438 904 444 928 444Z" stroke="rgb(0, 0, 0)" stroke-width="8" fill="rgb(0, 0, 0)" style="transform:matrix(0.020399999999999998,0,0,-0.020399999999999998,0,0);"></path></g><g style="transform:matrix(1,0,0,1,309.2578125,23.321875);"><path d="M555 243L555 299L51 299L51 243Z" stroke="rgb(0, 0, 0)" stroke-width="8" fill="rgb(0, 0, 0)" style="transform:matrix(0.020399999999999998,0,0,-0.020399999999999998,0,0);"></path></g><g style="transform:matrix(1,0,0,1,325.5859375,23.321875);"><path d="M235 722L223 733C171 707 135 698 63 691L59 670L107 670C131 670 141 663 141 646C141 639 140 628 139 622L38 71C37 68 37 64 37 61C37 22 85 -11 140 -11C177 -11 228 8 271 39C367 107 433 244 433 376C433 414 424 453 412 468C405 477 392 482 377 482C353 482 323 474 295 460C244 433 211 403 149 324ZM322 424C348 424 361 401 361 352C361 288 340 202 310 137C277 68 237 36 183 36C137 36 112 59 112 101C112 135 127 276 208 361C241 395 293 424 322 424ZM479 152C479 46 524 -11 607 -11C662 -11 722 15 767 57C829 116 873 230 873 331C873 425 823 482 740 482C636 482 479 382 479 152ZM703 444C764 444 797 399 797 315C797 219 766 113 722 60C704 39 678 27 647 27C589 27 555 72 555 151C555 264 594 387 643 427C656 438 679 444 703 444ZM1397 473L1390 482L1322 465L1312 414C1297 336 1272 268 1241 221C1182 130 1104 59 1064 59C1056 59 1051 68 1051 85C1051 99 1053 112 1058 137L1115 408C1118 424 1120 438 1120 451C1120 470 1111 482 1097 482C1077 482 1039 461 965 408L937 388L944 368L976 389C1004 407 1015 412 1024 412C1033 412 1041 403 1041 392C1041 388 1040 378 1039 374L976 77C974 68 972 44 972 30C972 7 987 -11 1007 -11C1070 -11 1191 101 1275 239L1238 97C1231 73 1227 46 1227 31C1227 6 1238 -9 1257 -9C1283 -9 1319 12 1417 85L1407 103L1381 86C1357 70 1331 59 1320 59C1312 59 1307 66 1307 76C1307 112 1382 416 1397 473ZM1484 388L1491 368L1523 389C1560 412 1563 414 1570 414C1581 414 1588 404 1588 389C1588 338 1547 145 1506 2L1513 -9C1538 -2 1561 4 1583 8C1602 134 1623 199 1669 268C1723 352 1798 414 1843 414C1854 414 1860 405 1860 390C1860 372 1857 351 1849 319L1797 107C1788 70 1784 47 1784 31C1784 6 1795 -9 1814 -9C1840 -9 1876 12 1974 85L1964 103L1938 86C1909 67 1887 56 1877 56C1870 56 1864 65 1864 76C1864 81 1865 92 1866 96L1932 372C1939 401 1943 429 1943 446C1943 469 1932 482 1912 482C1870 482 1801 444 1742 389C1704 354 1676 320 1624 247L1662 408C1666 426 1668 438 1668 449C1668 470 1660 482 1645 482C1624 482 1585 460 1512 408ZM2498 722L2486 733C2434 707 2398 698 2326 691L2322 670L2370 670C2394 670 2404 663 2404 646C2404 638 2403 629 2402 622L2374 468C2344 477 2317 482 2292 482C2223 482 2129 410 2083 323C2052 265 2032 170 2032 86C2032 21 2047 -11 2076 -11C2103 -11 2140 6 2174 33C2228 77 2261 116 2328 217L2305 126C2294 82 2289 50 2289 24C2289 3 2298 -9 2315 -9C2332 -9 2356 3 2390 28L2471 88L2461 107L2417 76C2403 66 2387 59 2378 59C2370 59 2364 68 2364 82C2364 90 2365 99 2372 128ZM2129 59C2113 59 2104 73 2104 98C2104 224 2150 380 2199 418C2212 428 2231 433 2258 433C2302 433 2331 427 2364 410L2352 351C2315 171 2174 59 2129 59Z" stroke="rgb(0, 0, 0)" stroke-width="8" fill="rgb(0, 0, 0)" style="transform:matrix(0.020399999999999998,0,0,-0.020399999999999998,0,0);"></path></g></g></g><g><g><g style="transform:matrix(1,0,0,1,584.6875,19.321875);"><path d="M103 664L150 662C174 661 185 653 185 636C185 629 179 576 176 559L104 125C89 36 86 31 46 28L10 25L7 -3L39 -3L133 0L227 -3L259 -3L262 25L210 28C184 30 174 37 174 57C174 63 175 74 176 78L265 613C272 652 277 657 316 661L351 664L354 692L248 689C231 689 213 689 170 690L106 692ZM356 388L363 368L395 389C432 412 435 414 442 414C453 414 460 404 460 389C460 338 419 145 378 2L385 -9C410 -2 433 4 455 8C474 134 495 199 541 268C595 352 670 414 715 414C726 414 732 405 732 390C732 372 729 351 721 319L669 107C660 70 656 47 656 31C656 6 667 -9 686 -9C712 -9 748 12 846 85L836 103L810 86C781 67 759 56 749 56C742 56 736 65 736 76C736 81 737 92 738 96L804 372C811 401 815 429 815 446C815 469 804 482 784 482C742 482 673 444 614 389C576 354 548 320 496 247L534 408C538 426 540 438 540 449C540 470 532 482 517 482C496 482 457 460 384 408Z" stroke="rgb(0, 0, 0)" stroke-width="8" fill="rgb(0, 0, 0)" style="transform:matrix(0.020399999999999998,0,0,-0.020399999999999998,0,0);"></path></g><g style="transform:matrix(1,0,0,1,606.78125,19.321875);"><path d="M555 243L555 299L51 299L51 243Z" stroke="rgb(0, 0, 0)" stroke-width="8" fill="rgb(0, 0, 0)" style="transform:matrix(0.020399999999999998,0,0,-0.020399999999999998,0,0);"></path></g><g style="transform:matrix(1,0,0,1,623.109375,19.321875);"><path d="M235 722L223 733C171 707 135 698 63 691L59 670L107 670C131 670 141 663 141 646C141 639 140 628 139 622L38 71C37 68 37 64 37 61C37 22 85 -11 140 -11C177 -11 228 8 271 39C367 107 433 244 433 376C433 414 424 453 412 468C405 477 392 482 377 482C353 482 323 474 295 460C244 433 211 403 149 324ZM322 424C348 424 361 401 361 352C361 288 340 202 310 137C277 68 237 36 183 36C137 36 112 59 112 101C112 135 127 276 208 361C241 395 293 424 322 424ZM479 152C479 46 524 -11 607 -11C662 -11 722 15 767 57C829 116 873 230 873 331C873 425 823 482 740 482C636 482 479 382 479 152ZM703 444C764 444 797 399 797 315C797 219 766 113 722 60C704 39 678 27 647 27C589 27 555 72 555 151C555 264 594 387 643 427C656 438 679 444 703 444ZM1397 473L1390 482L1322 465L1312 414C1297 336 1272 268 1241 221C1182 130 1104 59 1064 59C1056 59 1051 68 1051 85C1051 99 1053 112 1058 137L1115 408C1118 424 1120 438 1120 451C1120 470 1111 482 1097 482C1077 482 1039 461 965 408L937 388L944 368L976 389C1004 407 1015 412 1024 412C1033 412 1041 403 1041 392C1041 388 1040 378 1039 374L976 77C974 68 972 44 972 30C972 7 987 -11 1007 -11C1070 -11 1191 101 1275 239L1238 97C1231 73 1227 46 1227 31C1227 6 1238 -9 1257 -9C1283 -9 1319 12 1417 85L1407 103L1381 86C1357 70 1331 59 1320 59C1312 59 1307 66 1307 76C1307 112 1382 416 1397 473ZM1484 388L1491 368L1523 389C1560 412 1563 414 1570 414C1581 414 1588 404 1588 389C1588 338 1547 145 1506 2L1513 -9C1538 -2 1561 4 1583 8C1602 134 1623 199 1669 268C1723 352 1798 414 1843 414C1854 414 1860 405 1860 390C1860 372 1857 351 1849 319L1797 107C1788 70 1784 47 1784 31C1784 6 1795 -9 1814 -9C1840 -9 1876 12 1974 85L1964 103L1938 86C1909 67 1887 56 1877 56C1870 56 1864 65 1864 76C1864 81 1865 92 1866 96L1932 372C1939 401 1943 429 1943 446C1943 469 1932 482 1912 482C1870 482 1801 444 1742 389C1704 354 1676 320 1624 247L1662 408C1666 426 1668 438 1668 449C1668 470 1660 482 1645 482C1624 482 1585 460 1512 408ZM2498 722L2486 733C2434 707 2398 698 2326 691L2322 670L2370 670C2394 670 2404 663 2404 646C2404 638 2403 629 2402 622L2374 468C2344 477 2317 482 2292 482C2223 482 2129 410 2083 323C2052 265 2032 170 2032 86C2032 21 2047 -11 2076 -11C2103 -11 2140 6 2174 33C2228 77 2261 116 2328 217L2305 126C2294 82 2289 50 2289 24C2289 3 2298 -9 2315 -9C2332 -9 2356 3 2390 28L2471 88L2461 107L2417 76C2403 66 2387 59 2378 59C2370 59 2364 68 2364 82C2364 90 2365 99 2372 128ZM2129 59C2113 59 2104 73 2104 98C2104 224 2150 380 2199 418C2212 428 2231 433 2258 433C2302 433 2331 427 2364 410L2352 351C2315 171 2174 59 2129 59Z" stroke="rgb(0, 0, 0)" stroke-width="8" fill="rgb(0, 0, 0)" style="transform:matrix(0.020399999999999998,0,0,-0.020399999999999998,0,0);"></path></g></g></g><g><g><g style="transform:matrix(1,0,0,1,615.8828125,59.9921875);"><path d="M176 -11C232 -11 347 62 390 125C431 186 465 296 465 371C465 438 442 482 406 482C364 482 311 456 259 409C218 374 198 348 162 289L186 408C189 425 191 440 191 452C191 471 183 482 169 482C148 482 110 461 36 408L8 388L15 368L47 389C75 407 86 412 95 412C105 412 112 403 112 389C112 381 110 361 108 351L50 8C40 -52 21 -143 1 -233L-7 -270L0 -276C21 -269 41 -264 73 -259L115 3C136 -4 158 -11 176 -11ZM143 165C165 293 272 424 355 424C381 424 393 402 393 356C393 275 353 156 300 80C280 51 248 36 207 36C176 36 151 43 125 59Z" stroke="rgb(0, 0, 0)" stroke-width="8" fill="rgb(0, 0, 0)" style="transform:matrix(0.017,0,0,-0.017,0,0);"></path></g><g><g><g><g style="transform:matrix(1,0,0,1,624.8515625,63.0015625);"><path d="M34 388L41 368L73 389C110 412 113 414 120 414C130 414 138 404 138 391C138 384 134 361 130 347L64 107C56 76 51 49 51 30C51 6 62 -9 81 -9C107 -9 143 12 241 85L231 103L205 86C176 67 153 56 144 56C137 56 131 66 131 76C131 86 133 95 138 116L215 420C219 437 221 448 221 456C221 473 212 482 196 482C174 482 137 461 62 408ZM228 712C199 712 170 679 170 645C170 620 185 604 209 604C240 604 264 633 264 671C264 695 249 712 228 712Z" stroke="rgb(0, 0, 0)" stroke-width="8" fill="rgb(0, 0, 0)" style="transform:matrix(0.0119,0,0,-0.0119,0,0);"></path></g></g></g></g></g></g></svg>
</svg>
