<svg xmlns="http://www.w3.org/2000/svg" width="662" height="219" style="
        width:662px;
        height:219px;
        background: transparent;
        fill: none;
">
        
        
        <svg xmlns="http://www.w3.org/2000/svg" class="role-diagram-draw-area"><g class="shapes-region" style="stroke: black; fill: none;"><g class="composite-shape"><path class="real" d=" M336.72,56 L368.8,74.73 L368.62,111.88 L336.35,130.3 L304.27,111.57 L304.45,74.42 Z" style="stroke-width: 2; stroke: rgb(74, 74, 74); fill: none;"/></g><g class="composite-shape"><path class="real" d=" M431.22,93.75 L409.32,123.89 L373.89,112.38 L373.89,75.12 L409.32,63.61 Z" style="stroke-width: 2; stroke: rgb(74, 74, 74); fill: none;"/></g><g class="grouped-shape"><g class="arrow-line"><path class="connection real" stroke-dasharray="" d="  M335.74,29.14 L335.74,56.82" style="stroke: rgb(74, 74, 74); stroke-width: 2; fill: none;"/></g><g class="arrow-line"><path class="connection real" stroke-dasharray="" d="  M341.5,29.14 L341.5,56.82" style="stroke: rgb(74, 74, 74); stroke-width: 2; fill: none;"/></g></g><g class="arrow-line"><path class="connection real" stroke-dasharray="" d="  M403.24,122.97 L427.93,90.05" style="stroke: rgb(74, 74, 74); stroke-width: 2; fill: none;"/></g><g class="arrow-line"><path class="connection real" stroke-dasharray="" d="  M409.32,63.61 L418.05,44.78" style="stroke: rgb(74, 74, 74); stroke-width: 2; fill: none;"/></g><g class="arrow-line"><path class="connection real" stroke-dasharray="" d="  M304.45,74.42 L281.42,62.88" style="stroke: rgb(74, 74, 74); stroke-width: 2; fill: none;"/></g><g class="arrow-line"><path class="connection real" stroke-dasharray="" d="  M336.56,163.3 L336.35,130.3" style="stroke: rgb(74, 74, 74); stroke-width: 2; fill: none;"/></g><g class="composite-shape"><path class="real" d=" M326.69,59.59 C326.69,53.68 331.48,48.89 337.39,48.89 C343.3,48.89 348.09,53.68 348.09,59.59 C348.09,65.5 343.3,70.29 337.39,70.29 C331.48,70.29 326.69,65.5 326.69,59.59 Z" style="stroke-width: 2; stroke: rgb(74, 74, 74); fill: rgb(228, 228, 228);"/></g><g class="composite-shape"><path class="real" d=" M360.43,113.92 C360.43,108.01 365.22,103.22 371.13,103.22 C377.04,103.22 381.83,108.01 381.83,113.92 C381.83,119.83 377.04,124.62 371.13,124.62 C365.22,124.62 360.43,119.83 360.43,113.92 Z" style="stroke-width: 2; stroke: rgb(74, 74, 74); fill: rgb(228, 228, 228);"/></g><g class="composite-shape"><path class="real" d=" M360.43,76.05 C360.43,70.14 365.22,65.35 371.13,65.35 C377.04,65.35 381.83,70.14 381.83,76.05 C381.83,81.96 377.04,86.75 371.13,86.75 C365.22,86.75 360.43,81.96 360.43,76.05 Z" style="stroke-width: 2; stroke: rgb(74, 74, 74); fill: rgb(228, 228, 228);"/></g><g class="composite-shape"><path class="real" d=" M264.95,59.59 C264.95,53.68 269.75,48.89 275.65,48.89 C281.56,48.89 286.36,53.68 286.36,59.59 C286.36,65.5 281.56,70.29 275.65,70.29 C269.75,70.29 264.95,65.5 264.95,59.59 Z" style="stroke-width: 2; stroke: rgb(74, 74, 74); fill: rgb(228, 228, 228);"/></g><g class="grouped-shape"><g class="arrow-line"><path class="connection real" stroke-dasharray="" d="  M285.18,135.57 L306.11,117.45" style="stroke: rgb(74, 74, 74); stroke-width: 2; fill: none;"/></g><g class="arrow-line"><path class="connection real" stroke-dasharray="" d="  M281.41,131.22 L302.34,113.09" style="stroke: rgb(74, 74, 74); stroke-width: 2; fill: none;"/></g></g><g class="composite-shape"><path class="real" d=" M294.59,113.92 C294.59,108.01 299.38,103.22 305.29,103.22 C311.2,103.22 315.99,108.01 315.99,113.92 C315.99,119.83 311.2,124.62 305.29,124.62 C299.38,124.62 294.59,119.83 294.59,113.92 Z" style="stroke-width: 2; stroke: rgb(74, 74, 74); fill: rgb(228, 228, 228);"/></g><g class="composite-shape"><path class="real" d=" M396.65,122.15 C396.65,116.24 401.44,111.45 407.35,111.45 C413.26,111.45 418.05,116.24 418.05,122.15 C418.05,128.06 413.26,132.85 407.35,132.85 C401.44,132.85 396.65,128.06 396.65,122.15 Z" style="stroke-width: 2; stroke: rgb(74, 74, 74); fill: rgb(175, 210, 252);"/></g><g class="composite-shape"><path class="real" d=" M396.65,67.82 C396.65,61.91 401.44,57.12 407.35,57.12 C413.26,57.12 418.05,61.91 418.05,67.82 C418.05,73.73 413.26,78.52 407.35,78.52 C401.44,78.52 396.65,73.73 396.65,67.82 Z" style="stroke-width: 2; stroke: rgb(74, 74, 74); fill: rgb(175, 210, 252);"/></g><g class="composite-shape"><path class="real" d=" M294.59,72.76 C294.59,66.85 299.38,62.06 305.29,62.06 C311.2,62.06 315.99,66.85 315.99,72.76 C315.99,78.67 311.2,83.46 305.29,83.46 C299.38,83.46 294.59,78.67 294.59,72.76 Z" style="stroke-width: 2; stroke: rgb(74, 74, 74); fill: rgb(175, 210, 252);"/></g><g class="composite-shape"><path class="real" d=" M325.86,129.56 C325.86,123.65 330.65,118.85 336.56,118.85 C342.47,118.85 347.26,123.65 347.26,129.56 C347.26,135.46 342.47,140.26 336.56,140.26 C330.65,140.26 325.86,135.46 325.86,129.56 Z" style="stroke-width: 2; stroke: rgb(74, 74, 74); fill: rgb(175, 210, 252);"/></g><g class="composite-shape"><path class="real" d=" M264.95,138.61 C264.95,132.7 269.75,127.91 275.65,127.91 C281.56,127.91 286.36,132.7 286.36,138.61 C286.36,144.52 281.56,149.31 275.65,149.31 C269.75,149.31 264.95,144.52 264.95,138.61 Z" style="stroke-width: 2; stroke: rgb(74, 74, 74); fill: rgba(226, 41, 55, 0.66);"/></g><g class="composite-shape"><path class="real" d=" M327.51,19.26 C327.51,13.35 332.3,8.56 338.21,8.56 C344.12,8.56 348.91,13.35 348.91,19.26 C348.91,25.17 344.12,29.96 338.21,29.96 C332.3,29.96 327.51,25.17 327.51,19.26 Z" style="stroke-width: 2; stroke: rgb(74, 74, 74); fill: rgba(226, 41, 55, 0.66);"/></g><g class="arrow-line"><path class="connection real" stroke-dasharray="" d="  M275.65,59.59 L260.21,28.51" style="stroke: rgb(74, 74, 74); stroke-width: 2; fill: none;"/></g><g class="arrow-line"><path class="connection real" stroke-dasharray="" d="  M260.21,86.12 L275.65,59.59" style="stroke: rgb(74, 74, 74); stroke-width: 2; fill: none;"/></g><g class="arrow-line"><path class="connection real" stroke-dasharray="" d="  M243.75,59.4 L275.65,59.59" style="stroke: rgb(74, 74, 74); stroke-width: 2; fill: none;"/></g><g class="composite-shape"><path class="real" d=" M264.56,20.35 C269.06,22.75 270.77,28.35 268.37,32.86 C265.97,37.36 260.37,39.07 255.86,36.67 C251.35,34.26 249.65,28.66 252.05,24.16 C254.45,19.65 260.05,17.95 264.56,20.35 Z" style="stroke-width: 2; stroke: rgb(74, 74, 74); fill: rgb(255, 255, 255);"/></g><g class="composite-shape"><path class="real" d=" M248.1,51.24 C252.6,53.64 254.31,59.24 251.91,63.75 C249.5,68.25 243.9,69.96 239.4,67.56 C234.89,65.16 233.19,59.56 235.59,55.05 C237.99,50.54 243.59,48.84 248.1,51.24 Z" style="stroke-width: 2; stroke: rgb(74, 74, 74); fill: rgb(255, 255, 255);"/></g><g class="composite-shape"><path class="real" d=" M264.56,77.97 C269.06,80.37 270.77,85.97 268.37,90.47 C265.97,94.98 260.37,96.68 255.86,94.28 C251.35,91.88 249.65,86.28 252.05,81.78 C254.45,77.27 260.05,75.56 264.56,77.97 Z" style="stroke-width: 2; stroke: rgb(74, 74, 74); fill: rgb(255, 255, 255);"/></g><g class="arrow-line"><path class="connection real" stroke-dasharray="" d="  M425.46,94.16 L457.75,93.97" style="stroke: rgb(74, 74, 74); stroke-width: 2; fill: none;"/></g><g class="arrow-line"><path class="connection real" stroke-dasharray="" d="  M365.18,182.86 L336.56,163.3" style="stroke: rgb(74, 74, 74); stroke-width: 2; fill: none;"/></g><g class="arrow-line"><path class="connection real" stroke-dasharray="" d="  M307.56,182.86 L336.56,163.3" style="stroke: rgb(74, 74, 74); stroke-width: 2; fill: none;"/></g><g class="arrow-line"><path class="connection real" stroke-dasharray="" d="  M336.76,199.33 L336.56,163.3" style="stroke: rgb(74, 74, 74); stroke-width: 2; fill: none;"/></g><g class="arrow-line"><path class="connection real" stroke-dasharray="" d="  M423.81,39.84 L408.37,12.05" style="stroke: rgb(74, 74, 74); stroke-width: 2; fill: none;"/></g><g class="arrow-line"><path class="connection real" stroke-dasharray="" d="  M423.81,39.84 L447.49,12.05" style="stroke: rgb(74, 74, 74); stroke-width: 2; fill: none;"/></g><g class="arrow-line"><path class="connection real" stroke-dasharray="" d="  M423.81,39.84 L457.75,44.97" style="stroke: rgb(74, 74, 74); stroke-width: 2; fill: none;"/></g><g class="composite-shape"><path class="real" d=" M264.95,59.59 C264.95,53.68 269.75,48.89 275.65,48.89 C281.56,48.89 286.36,53.68 286.36,59.59 C286.36,65.5 281.56,70.29 275.65,70.29 C269.75,70.29 264.95,65.5 264.95,59.59 Z" style="stroke-width: 2; stroke: rgb(74, 74, 74); fill: rgb(228, 228, 228);"/></g><g class="composite-shape"><path class="real" d=" M412.33,3.89 C416.84,6.29 418.54,11.89 416.14,16.39 C413.74,20.9 408.14,22.61 403.63,20.2 C399.13,17.8 397.42,12.2 399.82,7.7 C402.22,3.19 407.82,1.48 412.33,3.89 Z" style="stroke-width: 2; stroke: rgb(74, 74, 74); fill: rgb(255, 255, 255);"/></g><g class="composite-shape"><path class="real" d=" M451.84,3.89 C456.34,6.29 458.05,11.89 455.65,16.39 C453.25,20.9 447.65,22.61 443.14,20.2 C438.63,17.8 436.93,12.2 439.33,7.7 C441.73,3.19 447.33,1.48 451.84,3.89 Z" style="stroke-width: 2; stroke: rgb(74, 74, 74); fill: rgb(255, 255, 255);"/></g><g class="composite-shape"><path class="real" d=" M460.07,36.81 C464.58,39.21 466.28,44.81 463.88,49.32 C461.48,53.82 455.88,55.53 451.37,53.13 C446.87,50.73 445.16,45.13 447.56,40.62 C449.96,36.11 455.56,34.41 460.07,36.81 Z" style="stroke-width: 2; stroke: rgb(74, 74, 74); fill: rgb(255, 255, 255);"/></g><g class="composite-shape"><path class="real" d=" M462.1,85.81 C466.61,88.21 468.31,93.81 465.91,98.32 C463.51,102.82 457.91,104.53 453.4,102.13 C448.9,99.73 447.19,94.13 449.59,89.62 C452,85.11 457.6,83.41 462.1,85.81 Z" style="stroke-width: 2; stroke: rgb(74, 74, 74); fill: rgb(255, 255, 255);"/></g><g class="composite-shape"><path class="real" d=" M414.76,94.16 C414.76,88.25 419.55,83.46 425.46,83.46 C431.37,83.46 436.16,88.25 436.16,94.16 C436.16,100.07 431.37,104.86 425.46,104.86 C419.55,104.86 414.76,100.07 414.76,94.16 Z" style="stroke-width: 2; stroke: rgb(74, 74, 74); fill: rgb(228, 228, 228);"/></g><g class="composite-shape"><path class="real" d=" M325.86,163.3 C325.86,157.39 330.65,152.6 336.56,152.6 C342.47,152.6 347.26,157.39 347.26,163.3 C347.26,169.21 342.47,174 336.56,174 C330.65,174 325.86,169.21 325.86,163.3 Z" style="stroke-width: 2; stroke: rgb(74, 74, 74); fill: rgb(228, 228, 228);"/></g><g class="composite-shape"><path class="real" d=" M413.43,36.83 C413.43,30.92 418.23,26.13 424.13,26.13 C430.04,26.13 434.83,30.92 434.83,36.83 C434.83,42.74 430.04,47.53 424.13,47.53 C418.23,47.53 413.43,42.74 413.43,36.83 Z" style="stroke-width: 2; stroke: rgb(74, 74, 74); fill: rgb(228, 228, 228);"/></g><g class="composite-shape"><path class="real" d=" M311.91,174.7 C316.42,177.11 318.12,182.71 315.72,187.21 C313.32,191.72 307.72,193.42 303.21,191.02 C298.71,188.62 297,183.02 299.4,178.51 C301.81,174.01 307.41,172.3 311.91,174.7 Z" style="stroke-width: 2; stroke: rgb(74, 74, 74); fill: rgb(255, 255, 255);"/></g><g class="composite-shape"><path class="real" d=" M341.11,191.17 C345.61,193.57 347.32,199.17 344.92,203.67 C342.51,208.18 336.91,209.89 332.41,207.48 C327.9,205.08 326.2,199.48 328.6,194.98 C331,190.47 336.6,188.76 341.11,191.17 Z" style="stroke-width: 2; stroke: rgb(74, 74, 74); fill: rgb(255, 255, 255);"/></g><g class="composite-shape"><path class="real" d=" M369.53,174.7 C374.03,177.11 375.74,182.71 373.34,187.21 C370.94,191.72 365.34,193.42 360.83,191.02 C356.32,188.62 354.62,183.02 357.02,178.51 C359.42,174.01 365.02,172.3 369.53,174.7 Z" style="stroke-width: 2; stroke: rgb(74, 74, 74); fill: rgb(255, 255, 255);"/></g><g/></g><g/><g/><g/></svg>
        <svg xmlns="http://www.w3.org/2000/svg" width="660" height="217" style="width:660px;height:217px;font-family:Asana-Math, Asana;background:transparent;"></svg>
</svg>
