<svg xmlns="http://www.w3.org/2000/svg" width="662" height="203" style="
        width:662px;
        height:203px;
        background: transparent;
        fill: none;
">
        
        
        <svg xmlns="http://www.w3.org/2000/svg" class="role-diagram-draw-area"><g class="shapes-region" style="stroke: black; fill: none;"><g class="arrow-line"><path class="connection real" stroke-dasharray="" d="  M130.12,73.78 L105.72,53.49" style="stroke: rgb(0, 0, 0); stroke-width: 1; fill: none;"/></g><g class="arrow-line"><path class="connection real" stroke-dasharray="" d="  M130.12,73.78 L164.2,73.78" style="stroke: rgb(0, 0, 0); stroke-width: 1; fill: none;"/></g><g class="arrow-line"><path class="connection real" stroke-dasharray="" d="  M130.12,103.6 L164.2,103.6" style="stroke: rgb(0, 0, 0); stroke-width: 1; fill: none;"/></g><g class="arrow-line"><path class="connection real" stroke-dasharray="" d="  M130.12,73.78 L130.12,103.6" style="stroke: rgb(0, 0, 0); stroke-width: 1; fill: none;"/></g><g class="arrow-line"><path class="connection real" stroke-dasharray="" d="  M164.2,103.6 L164.2,73.78" style="stroke: rgb(0, 0, 0); stroke-width: 1; fill: none;"/></g><g class="arrow-line"><path class="connection real" stroke-dasharray="" d="  M164.2,103.6 L188.02,124.42" style="stroke: rgb(0, 0, 0); stroke-width: 1; fill: none;"/></g><g class="arrow-line"><path class="connection real" stroke-dasharray="" d="  M188.02,53.49 L164.2,73.78" style="stroke: rgb(0, 0, 0); stroke-width: 1; fill: none;"/></g><g class="arrow-line"><path class="connection real" stroke-dasharray="" d="  M129.15,102.44 L105.72,124.42" style="stroke: rgb(0, 0, 0); stroke-width: 1; fill: none;"/></g><g class="arrow-line"><path class="connection real" stroke-dasharray="" d="  M34.72,43.83 L68.8,43.83" style="stroke: rgb(0, 0, 0); stroke-width: 1; fill: none;"/></g><g class="arrow-line"><path class="connection real" stroke-dasharray="" d="  M34.72,43.83 L68.8,73.65" style="stroke: rgb(0, 0, 0); stroke-width: 1; fill: none;"/></g><g class="arrow-line"><path class="connection real" stroke-dasharray="" d="  M34.72,43.83 L68.8,103.47" style="stroke: rgb(0, 0, 0); stroke-width: 1; fill: none;"/></g><g class="arrow-line"><path class="connection real" stroke-dasharray="" d="  M34.72,73.65 L68.8,43.83" style="stroke: rgb(0, 0, 0); stroke-width: 1; fill: none;"/></g><g class="arrow-line"><path class="connection real" stroke-dasharray="" d="  M34.72,103.47 L68.8,43.83" style="stroke: rgb(0, 0, 0); stroke-width: 1; fill: none;"/></g><g class="arrow-line"><path class="connection real" stroke-dasharray="" d="  M34.72,73.65 L68.8,73.65" style="stroke: rgb(0, 0, 0); stroke-width: 1; fill: none;"/></g><g class="arrow-line"><path class="connection real" stroke-dasharray="" d="  M34.72,103.47 L68.8,103.47" style="stroke: rgb(0, 0, 0); stroke-width: 1; fill: none;"/></g><g class="arrow-line"><path class="connection real" stroke-dasharray="" d="  M34.72,133.29 L68.8,133.29" style="stroke: rgb(0, 0, 0); stroke-width: 1; fill: none;"/></g><g class="arrow-line"><path class="connection real" stroke-dasharray="" d="  M35.88,74.04 L68.8,133.29" style="stroke: rgb(0, 0, 0); stroke-width: 1; fill: none;"/></g><g class="arrow-line"><path class="connection real" stroke-dasharray="" d="  M34.72,133.29 L68.8,73.65" style="stroke: rgb(0, 0, 0); stroke-width: 1; fill: none;"/></g><g class="arrow-line"><path class="connection real" stroke-dasharray="" d="  M35.88,132.13 L68.8,103.47" style="stroke: rgb(0, 0, 0); stroke-width: 1; fill: none;"/></g><g class="arrow-line"><path class="connection real" stroke-dasharray="" d="  M34.72,103.47 L68.8,133.29" style="stroke: rgb(0, 0, 0); stroke-width: 1; fill: none;"/></g><g class="composite-shape"><path class="real" d=" M105.72,53.49 L188.02,53.49 L188.02,124.42 L105.72,124.42 Z" style="stroke-width: 1; stroke: rgb(0, 0, 0); fill: none;"/></g><g class="composite-shape"><path class="real" d=" M26.2,43.83 C26.2,39.13 30.01,35.31 34.72,35.31 C39.43,35.31 43.24,39.13 43.24,43.83 C43.24,48.54 39.43,52.35 34.72,52.35 C30.01,52.35 26.2,48.54 26.2,43.83 Z" style="stroke-width: 2; stroke: rgb(74, 74, 74); fill: rgb(171, 210, 255);"/></g><g class="composite-shape"><path class="real" d=" M60.28,43.83 C60.28,39.13 64.09,35.31 68.8,35.31 C73.51,35.31 77.32,39.13 77.32,43.83 C77.32,48.54 73.51,52.35 68.8,52.35 C64.09,52.35 60.28,48.54 60.28,43.83 Z" style="stroke-width: 2; stroke: rgb(74, 74, 74); fill: rgb(184, 233, 134);"/></g><g class="composite-shape"><path class="real" d=" M26.2,73.65 C26.2,68.95 30.01,65.13 34.72,65.13 C39.43,65.13 43.24,68.95 43.24,73.65 C43.24,78.36 39.43,82.17 34.72,82.17 C30.01,82.17 26.2,78.36 26.2,73.65 Z" style="stroke-width: 2; stroke: rgb(74, 74, 74); fill: rgb(245, 166, 35);"/></g><g class="composite-shape"><path class="real" d=" M60.28,73.65 C60.28,68.95 64.09,65.13 68.8,65.13 C73.51,65.13 77.32,68.95 77.32,73.65 C77.32,78.36 73.51,82.17 68.8,82.17 C64.09,82.17 60.28,78.36 60.28,73.65 Z" style="stroke-width: 2; stroke: rgb(74, 74, 74); fill: rgb(240, 171, 255);"/></g><g class="composite-shape"><path class="real" d=" M26.2,103.47 C26.2,98.77 30.01,94.95 34.72,94.95 C39.43,94.95 43.24,98.77 43.24,103.47 C43.24,108.18 39.43,111.99 34.72,111.99 C30.01,111.99 26.2,108.18 26.2,103.47 Z" style="stroke-width: 2; stroke: rgb(74, 74, 74); fill: rgb(255, 137, 151);"/></g><g class="composite-shape"><path class="real" d=" M60.28,103.47 C60.28,98.77 64.09,94.95 68.8,94.95 C73.51,94.95 77.32,98.77 77.32,103.47 C77.32,108.18 73.51,111.99 68.8,111.99 C64.09,111.99 60.28,108.18 60.28,103.47 Z" style="stroke-width: 2; stroke: rgb(74, 74, 74); fill: rgb(248, 231, 28);"/></g><g class="composite-shape"><path class="real" d=" M26.2,133.29 C26.2,128.59 30.01,124.77 34.72,124.77 C39.43,124.77 43.24,128.59 43.24,133.29 C43.24,138 39.43,141.81 34.72,141.81 C30.01,141.81 26.2,138 26.2,133.29 Z" style="stroke-width: 2; stroke: rgb(74, 74, 74); fill: rgb(192, 153, 123);"/></g><g class="composite-shape"><path class="real" d=" M60.28,133.29 C60.28,128.59 64.09,124.77 68.8,124.77 C73.51,124.77 77.32,128.59 77.32,133.29 C77.32,138 73.51,141.81 68.8,141.81 C64.09,141.81 60.28,138 60.28,133.29 Z" style="stroke-width: 2; stroke: rgb(74, 74, 74); fill: rgb(175, 150, 221);"/></g><g class="composite-shape"><path class="real" d=" M179.5,124.42 C179.5,119.71 183.31,115.9 188.02,115.9 C192.72,115.9 196.54,119.71 196.54,124.42 C196.54,129.12 192.72,132.94 188.02,132.94 C183.31,132.94 179.5,129.12 179.5,124.42 Z" style="stroke-width: 2; stroke: rgb(74, 74, 74); fill: rgb(192, 153, 123);"/></g><g class="composite-shape"><path class="real" d=" M179.5,53.49 C179.5,48.78 183.31,44.97 188.02,44.97 C192.72,44.97 196.54,48.78 196.54,53.49 C196.54,58.19 192.72,62.01 188.02,62.01 C183.31,62.01 179.5,58.19 179.5,53.49 Z" style="stroke-width: 2; stroke: rgb(74, 74, 74); fill: rgb(240, 171, 255);"/></g><g class="composite-shape"><path class="real" d=" M97.2,124.42 C97.2,119.71 101.01,115.9 105.72,115.9 C110.43,115.9 114.24,119.71 114.24,124.42 C114.24,129.12 110.43,132.94 105.72,132.94 C101.01,132.94 97.2,129.12 97.2,124.42 Z" style="stroke-width: 2; stroke: rgb(74, 74, 74); fill: rgb(248, 231, 28);"/></g><g class="composite-shape"><path class="real" d=" M97.2,53.49 C97.2,48.78 101.01,44.97 105.72,44.97 C110.43,44.97 114.24,48.78 114.24,53.49 C114.24,58.19 110.43,62.01 105.72,62.01 C101.01,62.01 97.2,58.19 97.2,53.49 Z" style="stroke-width: 2; stroke: rgb(74, 74, 74); fill: rgb(171, 210, 255);"/></g><g class="composite-shape"><path class="real" d=" M121.6,73.78 C121.6,69.08 125.41,65.26 130.12,65.26 C134.82,65.26 138.64,69.08 138.64,73.78 C138.64,78.49 134.82,82.3 130.12,82.3 C125.41,82.3 121.6,78.49 121.6,73.78 Z" style="stroke-width: 2; stroke: rgb(74, 74, 74); fill: rgb(184, 233, 134);"/></g><g class="composite-shape"><path class="real" d=" M155.68,73.78 C155.68,69.08 159.49,65.26 164.2,65.26 C168.9,65.26 172.72,69.08 172.72,73.78 C172.72,78.49 168.9,82.3 164.2,82.3 C159.49,82.3 155.68,78.49 155.68,73.78 Z" style="stroke-width: 2; stroke: rgb(74, 74, 74); fill: rgb(245, 166, 35);"/></g><g class="composite-shape"><path class="real" d=" M121.6,103.6 C121.6,98.9 125.41,95.08 130.12,95.08 C134.82,95.08 138.64,98.9 138.64,103.6 C138.64,108.31 134.82,112.12 130.12,112.12 C125.41,112.12 121.6,108.31 121.6,103.6 Z" style="stroke-width: 2; stroke: rgb(74, 74, 74); fill: rgb(255, 137, 151);"/></g><g class="composite-shape"><path class="real" d=" M155.68,103.6 C155.68,98.9 159.49,95.08 164.2,95.08 C168.9,95.08 172.72,98.9 172.72,103.6 C172.72,108.31 168.9,112.12 164.2,112.12 C159.49,112.12 155.68,108.31 155.68,103.6 Z" style="stroke-width: 2; stroke: rgb(74, 74, 74); fill: rgb(175, 150, 221);"/></g><g class="composite-shape"><path class="real" d=" M12,22 L331.5,22 L331.5,170.63 L12,170.63 Z" style="stroke-width: 1; stroke: rgb(0, 0, 0); fill: none; stroke-dasharray: 6, 6;"/></g><g class="arrow-line"><path class="connection real" stroke-dasharray="" d="  M247.72,43.83 L281.8,43.83" style="stroke: rgb(0, 0, 0); stroke-width: 1; fill: none;"/></g><g class="arrow-line"><path class="connection real" stroke-dasharray="" d="  M247.72,43.83 L221.8,71.17" style="stroke: rgb(0, 0, 0); stroke-width: 1; fill: none;"/></g><g class="arrow-line"><path class="connection real" stroke-dasharray="" d="  M247.72,43.83 L221.8,105.96" style="stroke: rgb(0, 0, 0); stroke-width: 1; fill: none;"/></g><g class="arrow-line"><path class="connection real" stroke-dasharray="" d="  M309.85,71.17 L281.8,43.83" style="stroke: rgb(0, 0, 0); stroke-width: 1; fill: none;"/></g><g class="arrow-line"><path class="connection real" stroke-dasharray="" d="  M310.56,105.96 L281.8,43.83" style="stroke: rgb(0, 0, 0); stroke-width: 1; fill: none;"/></g><g class="arrow-line"><path class="connection real" stroke-dasharray="" d="  M221.8,71.17 L247.72,133.29" style="stroke: rgb(0, 0, 0); stroke-width: 1; fill: none;"/></g><g class="arrow-line"><path class="connection real" stroke-dasharray="" d="  M310.56,105.96 L281.8,133.29" style="stroke: rgb(0, 0, 0); stroke-width: 1; fill: none;"/></g><g class="arrow-line"><path class="connection real" stroke-dasharray="" d="  M247.72,133.29 L281.8,133.29" style="stroke: rgb(0, 0, 0); stroke-width: 1; fill: none;"/></g><g class="arrow-line"><path class="connection real" stroke-dasharray="" d="  M221.8,71.17 L309.85,71.17" style="stroke: rgb(0, 0, 0); stroke-width: 1; fill: none;"/></g><g class="arrow-line"><path class="connection real" stroke-dasharray="" d="  M221.8,105.96 L310.56,105.96" style="stroke: rgb(0, 0, 0); stroke-width: 1; fill: none;"/></g><g class="arrow-line"><path class="connection real" stroke-dasharray="" d="  M281.8,133.29 L309.85,71.17" style="stroke: rgb(0, 0, 0); stroke-width: 1; fill: none;"/></g><g class="arrow-line"><path class="connection real" stroke-dasharray="" d="  M221.8,105.96 L247.72,133.29" style="stroke: rgb(0, 0, 0); stroke-width: 1; fill: none;"/></g><g class="composite-shape"><path class="real" d=" M239.2,43.83 C239.2,39.13 243.01,35.31 247.72,35.31 C252.43,35.31 256.24,39.13 256.24,43.83 C256.24,48.54 252.43,52.35 247.72,52.35 C243.01,52.35 239.2,48.54 239.2,43.83 Z" style="stroke-width: 2; stroke: rgb(74, 74, 74); fill: rgb(171, 210, 255);"/></g><g class="composite-shape"><path class="real" d=" M273.28,43.83 C273.28,39.13 277.09,35.31 281.8,35.31 C286.51,35.31 290.32,39.13 290.32,43.83 C290.32,48.54 286.51,52.35 281.8,52.35 C277.09,52.35 273.28,48.54 273.28,43.83 Z" style="stroke-width: 2; stroke: rgb(74, 74, 74); fill: rgb(184, 233, 134);"/></g><g class="composite-shape"><path class="real" d=" M301.33,71.17 C301.33,66.46 305.14,62.65 309.84,62.65 C314.55,62.65 318.36,66.46 318.36,71.17 C318.36,75.87 314.55,79.69 309.84,79.69 C305.14,79.69 301.33,75.87 301.33,71.17 Z" style="stroke-width: 2; stroke: rgb(74, 74, 74); fill: rgb(245, 166, 35);"/></g><g class="composite-shape"><path class="real" d=" M213.28,71.17 C213.28,66.46 217.1,62.65 221.81,62.65 C226.51,62.65 230.33,66.46 230.33,71.17 C230.33,75.87 226.51,79.69 221.81,79.69 C217.1,79.69 213.28,75.87 213.28,71.17 Z" style="stroke-width: 2; stroke: rgb(74, 74, 74); fill: rgb(240, 171, 255);"/></g><g class="composite-shape"><path class="real" d=" M302.04,105.96 C302.04,101.25 305.85,97.44 310.56,97.44 C315.26,97.44 319.08,101.25 319.08,105.96 C319.08,110.66 315.26,114.48 310.56,114.48 C305.85,114.48 302.04,110.66 302.04,105.96 Z" style="stroke-width: 2; stroke: rgb(74, 74, 74); fill: rgb(255, 137, 151);"/></g><g class="composite-shape"><path class="real" d=" M213.28,105.96 C213.28,101.25 217.1,97.44 221.81,97.44 C226.51,97.44 230.33,101.25 230.33,105.96 C230.33,110.66 226.51,114.48 221.81,114.48 C217.1,114.48 213.28,110.66 213.28,105.96 Z" style="stroke-width: 2; stroke: rgb(74, 74, 74); fill: rgb(248, 231, 28);"/></g><g class="composite-shape"><path class="real" d=" M239.2,133.29 C239.2,128.59 243.01,124.77 247.72,124.77 C252.43,124.77 256.24,128.59 256.24,133.29 C256.24,138 252.43,141.81 247.72,141.81 C243.01,141.81 239.2,138 239.2,133.29 Z" style="stroke-width: 2; stroke: rgb(74, 74, 74); fill: rgb(192, 153, 123);"/></g><g class="composite-shape"><path class="real" d=" M273.28,133.29 C273.28,128.59 277.09,124.77 281.8,124.77 C286.51,124.77 290.32,128.59 290.32,133.29 C290.32,138 286.51,141.81 281.8,141.81 C277.09,141.81 273.28,138 273.28,133.29 Z" style="stroke-width: 2; stroke: rgb(74, 74, 74); fill: rgb(175, 150, 221);"/></g><g class="arrow-line"><path class="connection real" stroke-dasharray="" d="  M436.34,127.08 L452.56,77.47" style="stroke: rgb(0, 0, 0); stroke-width: 1; fill: none;"/></g><g class="arrow-line"><path class="connection real" stroke-dasharray="" d="  M436.34,127.08 L384.15,126.99" style="stroke: rgb(0, 0, 0); stroke-width: 1; fill: none;"/></g><g class="arrow-line"><path class="connection real" stroke-dasharray="" d="  M369.53,76.86 L385.57,126.53 M366.68,77.78 L382.72,127.45" style="stroke: rgb(0, 0, 0); stroke-width: 1; fill: none;"/></g><g class="arrow-line"><path class="connection real" stroke-dasharray="" d="  M452.56,77.47 Q449.06,78.01 448.52,74.52 Q447.97,71.03 444.48,71.58 Q440.99,72.12 440.44,68.63 Q439.89,65.14 436.4,65.69 Q432.91,66.23 432.36,62.74 Q431.81,59.25 428.32,59.79 Q424.83,60.34 424.28,56.85 Q423.73,53.36 420.24,53.9 Q416.75,54.45 416.2,50.96 Q415.65,47.47 412.16,48.01 L410.38,46.72 L410.38,46.72" style="stroke: rgb(0, 0, 0); stroke-width: 1; fill: none;"/></g><g class="arrow-line"><path class="connection real" stroke-dasharray="" d="  M368.1,77.32 L410.38,46.72" style="stroke: rgb(0, 0, 0); stroke-width: 1; fill: none;"/></g><g class="composite-shape"><path class="real" d=" M401.86,46.72 C401.86,42.01 405.68,38.2 410.38,38.2 C415.09,38.2 418.9,42.01 418.9,46.72 C418.9,51.42 415.09,55.24 410.38,55.24 C405.68,55.24 401.86,51.42 401.86,46.72 Z" style="stroke-width: 2; stroke: rgb(74, 74, 74); fill: rgb(171, 210, 255);"/></g><g class="composite-shape"><path class="real" d=" M359.58,77.32 C359.58,72.62 363.4,68.8 368.1,68.8 C372.81,68.8 376.62,72.62 376.62,77.32 C376.62,82.03 372.81,85.84 368.1,85.84 C363.4,85.84 359.58,82.03 359.58,77.32 Z" style="stroke-width: 2; stroke: rgb(74, 74, 74); fill: rgb(184, 233, 134);"/></g><g class="composite-shape"><path class="real" d=" M444.03,77.47 C444.03,72.76 447.85,68.95 452.55,68.95 C457.26,68.95 461.08,72.76 461.08,77.47 C461.08,82.18 457.26,85.99 452.55,85.99 C447.85,85.99 444.03,82.18 444.03,77.47 Z" style="stroke-width: 2; stroke: rgb(74, 74, 74); fill: rgb(245, 166, 35);"/></g><g class="composite-shape"><path class="real" d=" M375.63,126.99 C375.63,122.28 379.44,118.47 384.15,118.47 C388.85,118.47 392.67,122.28 392.67,126.99 C392.67,131.69 388.85,135.51 384.15,135.51 C379.44,135.51 375.63,131.69 375.63,126.99 Z" style="stroke-width: 2; stroke: rgb(74, 74, 74); fill: rgb(240, 171, 255);"/></g><g class="composite-shape"><path class="real" d=" M427.82,127.08 C427.82,122.37 431.63,118.56 436.34,118.56 C441.05,118.56 444.86,122.37 444.86,127.08 C444.86,131.79 441.05,135.6 436.34,135.6 C431.63,135.6 427.82,131.79 427.82,127.08 Z" style="stroke-width: 2; stroke: rgb(74, 74, 74); fill: rgb(175, 150, 221);"/></g><g class="arrow-line"><path class="connection real" stroke-dasharray="" d="  M555.33,127.97 L485.04,74.36" style="stroke: rgb(0, 0, 0); stroke-width: 1; fill: none;"/></g><g class="arrow-line"><path class="connection real" stroke-dasharray="" d="  M564.56,74.72 L485.39,74.72" style="stroke: rgb(0, 0, 0); stroke-width: 1; fill: none;"/></g><g class="arrow-line"><path class="connection real" stroke-dasharray="" d="  M493.37,126.06 L563.66,73.52 M495.17,128.46 L565.46,75.92" style="stroke: rgb(0, 0, 0); stroke-width: 1; fill: none;"/></g><g class="arrow-line"><path class="connection real" stroke-dasharray="" d="  M555.33,127.97 Q552.14,126.44 553.66,123.25 Q555.19,120.06 552,118.54 Q548.81,117.01 550.33,113.82 Q551.86,110.63 548.67,109.11 Q545.48,107.58 547.01,104.39 Q548.53,101.2 545.34,99.68 Q542.15,98.15 543.68,94.96 Q545.2,91.77 542.01,90.25 Q538.82,88.72 540.35,85.53 Q541.87,82.34 538.68,80.82 Q535.49,79.29 537.02,76.1 Q538.55,72.91 535.36,71.39 Q532.17,69.86 533.69,66.67 Q535.22,63.48 532.03,61.96 Q528.84,60.43 530.36,57.24 Q531.89,54.05 528.7,52.53 Q525.51,51 527.04,47.81 L526.96,47.61 L526.96,47.61" style="stroke: rgb(0, 0, 0); stroke-width: 1; fill: none;"/></g><g class="arrow-line"><path class="connection real" stroke-dasharray="" d="  M494.27,127.26 L526.96,47.61" style="stroke: rgb(0, 0, 0); stroke-width: 1; fill: none;"/></g><g class="composite-shape"><path class="real" d=" M518.44,47.61 C518.44,42.9 522.26,39.09 526.96,39.09 C531.67,39.09 535.48,42.9 535.48,47.61 C535.48,52.31 531.67,56.13 526.96,56.13 C522.26,56.13 518.44,52.31 518.44,47.61 Z" style="stroke-width: 2; stroke: rgb(74, 74, 74); fill: rgb(171, 210, 255);"/></g><g class="composite-shape"><path class="real" d=" M485.75,127.26 C485.75,122.55 489.56,118.74 494.27,118.74 C498.97,118.74 502.79,122.55 502.79,127.26 C502.79,131.96 498.97,135.78 494.27,135.78 C489.56,135.78 485.75,131.96 485.75,127.26 Z" style="stroke-width: 2; stroke: rgb(74, 74, 74); fill: rgb(184, 233, 134);"/></g><g class="composite-shape"><path class="real" d=" M546.81,127.97 C546.81,123.26 550.62,119.45 555.33,119.45 C560.03,119.45 563.85,123.26 563.85,127.97 C563.85,132.67 560.03,136.49 555.33,136.49 C550.62,136.49 546.81,132.67 546.81,127.97 Z" style="stroke-width: 2; stroke: rgb(74, 74, 74); fill: rgb(245, 166, 35);"/></g><g class="composite-shape"><path class="real" d=" M556.04,74.72 C556.04,70.01 559.85,66.2 564.56,66.2 C569.26,66.2 573.08,70.01 573.08,74.72 C573.08,79.42 569.26,83.24 564.56,83.24 C559.85,83.24 556.04,79.42 556.04,74.72 Z" style="stroke-width: 2; stroke: rgb(74, 74, 74); fill: rgb(240, 171, 255);"/></g><g class="composite-shape"><path class="real" d=" M476.87,74.72 C476.87,70.01 480.69,66.2 485.39,66.2 C490.1,66.2 493.91,70.01 493.91,74.72 C493.91,79.42 490.1,83.24 485.39,83.24 C480.69,83.24 476.87,79.42 476.87,74.72 Z" style="stroke-width: 2; stroke: rgb(74, 74, 74); fill: rgb(175, 150, 221);"/></g><g class="composite-shape"><path class="real" d=" M349.25,22 L580,22 L580,170.63 L349.25,170.63 Z" style="stroke-width: 1; stroke: rgb(0, 0, 0); fill: none; stroke-dasharray: 6, 6;"/></g><g class="composite-shape"><path class="real" d=" M2.02,4.86 L650,4.86 L650,190 L2.02,190 Z" style="stroke-width: 1; stroke: rgb(0, 0, 0); fill: none; stroke-dasharray: 1.125, 3.35;"/></g><g/></g><g/><g/><g/></svg>
        <svg xmlns="http://www.w3.org/2000/svg" width="660" height="201" style="width:660px;height:201px;font-family:Asana-Math, Asana;background:transparent;"><g><g><g style="transform:matrix(1,0,0,1,589.296875,163.4);"><path d="M728 246L724 271C683 269 642 269 601 269C561 269 520 269 479 271L479 241L562 234C588 232 596 222 596 199L596 98C596 73 595 69 591 57C586 39 528 22 451 22C362 22 289 49 236 95L236 613C282 648 343 667 418 667C483 667 526 660 558 649C605 633 641 616 641 569L641 516L672 516C672 568 680 621 692 668C646 681 568 709 444 709C203 709 22 567 22 347C22 96 202 -20 425 -20C494 -20 602 6 688 31L688 199C688 228 689 232 699 236ZM205 127C155 187 129 269 129 364C129 455 155 532 205 585Z" stroke="rgb(74, 74, 74)" stroke-width="8" fill="rgb(74, 74, 74)" style="transform:matrix(0.020399999999999998,0,0,-0.020399999999999998,0,0);"></path></g><g style="transform:matrix(1,0,0,1,608.828125,163.4);"><path d="M297 714L242 714L-37 -169L18 -169Z" stroke="rgb(74, 74, 74)" stroke-width="8" fill="rgb(74, 74, 74)" style="transform:matrix(0.020399999999999998,0,0,-0.020399999999999998,0,0);"></path></g><g style="transform:matrix(1,0,0,1,624.65625,163.4);"><path d="M604 389L583 399C566 339 536 285 467 285C389 285 319 400 227 400C136 400 88 344 65 261L86 252C109 306 145 345 207 345C285 345 347 231 446 231C547 231 589 297 604 389ZM604 107L604 166L65 166L65 107Z" stroke="rgb(74, 74, 74)" stroke-width="8" fill="rgb(74, 74, 74)" style="transform:matrix(0.020399999999999998,0,0,-0.020399999999999998,0,0);"></path></g></g></g><g><g><g style="transform:matrix(1,0,0,1,601.90625,94.98);"><path d="M124 111C94 111 67 83 67 53C67 23 94 -5 123 -5C155 -5 183 22 183 53C183 83 155 111 124 111ZM373 111C343 111 316 83 316 53C316 23 343 -5 372 -5C404 -5 432 22 432 53C432 83 404 111 373 111ZM622 111C592 111 565 83 565 53C565 23 592 -5 621 -5C653 -5 681 22 681 53C681 83 653 111 622 111Z" stroke="rgb(74, 74, 74)" stroke-width="8" fill="rgb(74, 74, 74)" style="transform:matrix(0.024480000000000002,0,0,-0.024480000000000002,0,0);"></path></g></g></g><g><g><g style="transform:matrix(1,0,0,1,153.390625,156.6796875);"><path d="M45 284C45 90 152 -18 343 -18C439 -18 510 5 600 67L610 103L600 110C506 53 454 35 376 35C219 35 133 131 133 309C133 447 190 653 418 653C489 653 541 639 597 603L597 519L624 519C629 576 637 619 651 665C575 694 518 706 456 706C276 706 45 578 45 284Z" stroke="rgb(0, 0, 0)" stroke-width="8" fill="rgb(0, 0, 0)" style="transform:matrix(0.017,0,0,-0.017,0,0);"></path></g><g><g><g><g style="transform:matrix(1,0,0,1,165.5625,159.6890625);"><path d="M418 -3L418 27L366 30C311 33 301 44 301 96L301 700L60 598L67 548L217 614L217 96C217 44 206 33 152 30L96 27L96 -3C250 0 250 0 261 0C292 0 402 -3 418 -3Z" stroke="rgb(0, 0, 0)" stroke-width="8" fill="rgb(0, 0, 0)" style="transform:matrix(0.0119,0,0,-0.0119,0,0);"></path></g></g></g></g></g></g><g><g><g style="transform:matrix(1,0,0,1,462.953125,156.6796875);"><path d="M45 284C45 90 152 -18 343 -18C439 -18 510 5 600 67L610 103L600 110C506 53 454 35 376 35C219 35 133 131 133 309C133 447 190 653 418 653C489 653 541 639 597 603L597 519L624 519C629 576 637 619 651 665C575 694 518 706 456 706C276 706 45 578 45 284Z" stroke="rgb(0, 0, 0)" stroke-width="8" fill="rgb(0, 0, 0)" style="transform:matrix(0.017,0,0,-0.017,0,0);"></path></g><g><g><g><g style="transform:matrix(1,0,0,1,475.125,159.6890625);"><path d="M16 23L16 -3C203 -3 203 0 239 0C275 0 275 -3 468 -3L468 82C353 77 307 81 122 77L304 270C401 373 431 428 431 503C431 618 353 689 226 689C154 689 105 669 56 619L39 483L68 483L81 529C97 587 133 612 200 612C286 612 341 558 341 473C341 398 299 324 186 204Z" stroke="rgb(0, 0, 0)" stroke-width="8" fill="rgb(0, 0, 0)" style="transform:matrix(0.0119,0,0,-0.0119,0,0);"></path></g></g></g></g></g></g></svg>
</svg>
