<svg xmlns="http://www.w3.org/2000/svg" width="747" height="163" style="
        width:747px;
        height:163px;
        background: transparent;
        fill: none;
">
        
        
        <svg xmlns="http://www.w3.org/2000/svg" class="role-diagram-draw-area"><g class="shapes-region" style="stroke: black; fill: none;"><g class="arrow-line"><path class="connection real" stroke-dasharray="" d="  M27.94,56.77 L27.94,69.83" style="stroke: rgb(74, 74, 74); stroke-width: 2; fill: none;"/></g><g class="arrow-line"><path class="connection real" stroke-dasharray="" d="  M41.58,25.59 L29.89,37.28" style="stroke: rgb(74, 74, 74); stroke-width: 2; fill: none;"/></g><g class="arrow-line"><path class="connection real" stroke-dasharray="" d="  M66.91,89.32 L66.91,101.01" style="stroke: rgb(74, 74, 74); stroke-width: 2; fill: none;"/></g><g class="arrow-line"><path class="connection real" stroke-dasharray="" d="  M53.27,25.59 L64.96,41.18" style="stroke: rgb(74, 74, 74); stroke-width: 2; fill: none;"/></g><g class="arrow-line"><path class="connection real" stroke-dasharray="7.5 6" d="  M37.68,47.02 L57.17,47.02" style="stroke: rgb(74, 74, 74); stroke-width: 2; fill: none;"/></g><g class="arrow-line"><path class="connection real" stroke-dasharray="7.5 6" d="  M37.68,78.2 L57.17,78.2" style="stroke: rgb(74, 74, 74); stroke-width: 2; fill: none;"/></g><g class="arrow-line"><path class="connection real" stroke-dasharray="7.5 6" d="  M66.91,69.83 L66.91,56.77" style="stroke: rgb(74, 74, 74); stroke-width: 2; fill: none;"/></g><g class="arrow-line"><path class="connection real" stroke-dasharray="7.5 6" d="  M33.78,52.87 L61.06,72.35" style="stroke: rgb(74, 74, 74); stroke-width: 2; fill: none;"/></g><g class="composite-shape"><path class="real" d=" M37.68,19.74 C37.68,14.36 42.04,10 47.42,10 C52.8,10 57.17,14.36 57.17,19.74 C57.17,25.12 52.8,29.49 47.42,29.49 C42.04,29.49 37.68,25.12 37.68,19.74 Z" style="stroke-width: 2; stroke: rgb(74, 74, 74); fill: rgb(243, 243, 243);"/></g><g class="composite-shape"><path class="real" d=" M57.17,110.75 C57.17,105.37 61.53,101.01 66.91,101.01 C72.29,101.01 76.65,105.37 76.65,110.75 C76.65,116.13 72.29,120.5 66.91,120.5 C61.53,120.5 57.17,116.13 57.17,110.75 Z" style="stroke-width: 2; stroke: rgb(74, 74, 74); fill: rgb(255, 227, 249);"/></g><g class="composite-shape"><path class="real" d=" M18.19,47.02 C18.19,41.64 22.56,37.28 27.94,37.28 C33.32,37.28 37.68,41.64 37.68,47.02 C37.68,52.4 33.32,56.77 27.94,56.77 C22.56,56.77 18.19,52.4 18.19,47.02 Z" style="stroke-width: 2; stroke: rgb(74, 74, 74); fill: rgb(255, 228, 228);"/></g><g class="composite-shape"><path class="real" d=" M57.17,79.58 C57.17,74.19 61.53,69.83 66.91,69.83 C72.29,69.83 76.65,74.19 76.65,79.58 C76.65,84.96 72.29,89.32 66.91,89.32 C61.53,89.32 57.17,84.96 57.17,79.58 Z" style="stroke-width: 2; stroke: rgb(74, 74, 74); fill: rgb(255, 254, 214);"/></g><g class="composite-shape"><path class="real" d=" M18.19,79.58 C18.19,74.19 22.56,69.83 27.94,69.83 C33.32,69.83 37.68,74.19 37.68,79.58 C37.68,84.96 33.32,89.32 27.94,89.32 C22.56,89.32 18.19,84.96 18.19,79.58 Z" style="stroke-width: 2; stroke: rgb(74, 74, 74); fill: rgb(237, 255, 237);"/></g><g class="composite-shape"><path class="real" d=" M57.17,47.02 C57.17,41.64 61.53,37.28 66.91,37.28 C72.29,37.28 76.65,41.64 76.65,47.02 C76.65,52.4 72.29,56.77 66.91,56.77 C61.53,56.77 57.17,52.4 57.17,47.02 Z" style="stroke-width: 2; stroke: rgb(74, 74, 74); fill: rgb(223, 240, 255);"/></g><g class="arrow-line"><path class="connection real" stroke-dasharray="7.5 6" d="  M76.07,72.89 C104.59,68.27 92.26,104.12 73.37,86" style="stroke: rgb(74, 144, 226); stroke-width: 2; fill: none;"/></g><g class="arrow-line"><path class="connection real" stroke-dasharray="" d="  M153.68,59.29 L153.68,72.35" style="stroke: rgb(74, 74, 74); stroke-width: 2; fill: none;"/></g><g class="arrow-line"><path class="connection real" stroke-dasharray="" d="  M167.32,28.11 L155.63,39.8" style="stroke: rgb(74, 74, 74); stroke-width: 2; fill: none;"/></g><g class="arrow-line"><path class="connection real" stroke-dasharray="" d="  M192.65,91.84 L192.65,103.53" style="stroke: rgb(74, 74, 74); stroke-width: 2; fill: none;"/></g><g class="arrow-line"><path class="connection real" stroke-dasharray="" d="  M179.01,28.11 L190.7,43.7" style="stroke: rgb(74, 74, 74); stroke-width: 2; fill: none;"/></g><g class="arrow-line"><path class="connection real" stroke-dasharray="7.5 6" d="  M163.42,49.54 L182.91,49.54" style="stroke: rgb(74, 74, 74); stroke-width: 2; fill: none;"/></g><g class="arrow-line"><path class="connection real" stroke-dasharray="7.5 6" d="  M163.42,80.72 L182.91,80.72" style="stroke: rgb(74, 144, 226); stroke-width: 2; fill: none;"/></g><g class="arrow-line"><path class="connection real" stroke-dasharray="7.5 6" d="  M192.65,72.35 L192.65,59.29" style="stroke: rgb(74, 74, 74); stroke-width: 2; fill: none;"/></g><g class="arrow-line"><path class="connection real" stroke-dasharray="7.5 6" d="  M159.52,55.39 L186.8,74.88" style="stroke: rgb(74, 74, 74); stroke-width: 2; fill: none;"/></g><g class="composite-shape"><path class="real" d=" M163.42,22.26 C163.42,16.88 167.78,12.52 173.16,12.52 C178.54,12.52 182.91,16.88 182.91,22.26 C182.91,27.65 178.54,32.01 173.16,32.01 C167.78,32.01 163.42,27.65 163.42,22.26 Z" style="stroke-width: 2; stroke: rgb(74, 74, 74); fill: rgb(243, 243, 243);"/></g><g class="composite-shape"><path class="real" d=" M182.91,113.27 C182.91,107.89 187.27,103.53 192.65,103.53 C198.03,103.53 202.39,107.89 202.39,113.27 C202.39,118.65 198.03,123.02 192.65,123.02 C187.27,123.02 182.91,118.65 182.91,113.27 Z" style="stroke-width: 2; stroke: rgb(74, 74, 74); fill: rgb(255, 227, 249);"/></g><g class="composite-shape"><path class="real" d=" M143.93,49.54 C143.93,44.16 148.3,39.8 153.68,39.8 C159.06,39.8 163.42,44.16 163.42,49.54 C163.42,54.93 159.06,59.29 153.68,59.29 C148.3,59.29 143.93,54.93 143.93,49.54 Z" style="stroke-width: 2; stroke: rgb(74, 74, 74); fill: rgb(255, 228, 228);"/></g><g class="composite-shape"><path class="real" d=" M182.91,82.1 C182.91,76.72 187.27,72.35 192.65,72.35 C198.03,72.35 202.39,76.72 202.39,82.1 C202.39,87.48 198.03,91.84 192.65,91.84 C187.27,91.84 182.91,87.48 182.91,82.1 Z" style="stroke-width: 2; stroke: rgb(74, 74, 74); fill: rgb(255, 254, 214);"/></g><g class="composite-shape"><path class="real" d=" M143.93,82.1 C143.93,76.72 148.3,72.35 153.68,72.35 C159.06,72.35 163.42,76.72 163.42,82.1 C163.42,87.48 159.06,91.84 153.68,91.84 C148.3,91.84 143.93,87.48 143.93,82.1 Z" style="stroke-width: 2; stroke: rgb(74, 74, 74); fill: rgb(237, 255, 237);"/></g><g class="composite-shape"><path class="real" d=" M182.91,49.54 C182.91,44.16 187.27,39.8 192.65,39.8 C198.03,39.8 202.39,44.16 202.39,49.54 C202.39,54.93 198.03,59.29 192.65,59.29 C187.27,59.29 182.91,54.93 182.91,49.54 Z" style="stroke-width: 2; stroke: rgb(74, 74, 74); fill: rgb(223, 240, 255);"/></g><g class="arrow-line"><path class="connection real" stroke-dasharray="" d="  M222.33,103.74 L198.72,89.78" style="stroke: rgb(74, 74, 74); stroke-width: 2; fill: none;"/></g><g class="composite-shape"><path class="real" d=" M212.69,113.38 C212.69,108.06 217,103.74 222.33,103.74 C227.65,103.74 231.96,108.06 231.96,113.38 C231.96,118.7 227.65,123.02 222.33,123.02 C217,123.02 212.69,118.7 212.69,113.38 Z" style="stroke-width: 2; stroke: rgb(74, 74, 74); fill: rgba(245, 166, 35, 0.33);"/></g><g class="arrow-line"><path class="connection real" stroke-dasharray="" d="  M282.16,92.12 L282.16,103.68" style="stroke: rgb(74, 74, 74); stroke-width: 2; fill: none;"/></g><g class="composite-shape"><path class="real" d=" M272.52,112.93 C272.52,107.61 276.84,103.3 282.16,103.3 C287.48,103.3 291.8,107.61 291.8,112.93 C291.8,118.26 287.48,122.57 282.16,122.57 C276.84,122.57 272.52,118.26 272.52,112.93 Z" style="stroke-width: 2; stroke: rgb(74, 74, 74); fill: rgba(144, 19, 254, 0.17);"/></g><g class="arrow-line"><path class="connection real" stroke-dasharray="" d="  M282.65,59.29 L282.65,72.35" style="stroke: rgb(74, 74, 74); stroke-width: 2; fill: none;"/></g><g class="arrow-line"><path class="connection real" stroke-dasharray="" d="  M296.29,28.11 L284.6,39.8" style="stroke: rgb(74, 74, 74); stroke-width: 2; fill: none;"/></g><g class="arrow-line"><path class="connection real" stroke-dasharray="" d="  M326.94,91.84 L326.94,103.53" style="stroke: rgb(74, 74, 74); stroke-width: 2; fill: none;"/></g><g class="arrow-line"><path class="connection real" stroke-dasharray="" d="  M307.98,28.11 L319.67,43.7" style="stroke: rgb(74, 74, 74); stroke-width: 2; fill: none;"/></g><g class="arrow-line"><path class="connection real" stroke-dasharray="7.5 6" d="  M292.39,49.54 L311.88,49.54" style="stroke: rgb(74, 144, 226); stroke-width: 2; fill: none;"/></g><g class="arrow-line"><path class="connection real" stroke-dasharray="7.5 6" d="  M326.27,72.35 L326.27,59.29" style="stroke: rgb(74, 74, 74); stroke-width: 2; fill: none;"/></g><g class="arrow-line"><path class="connection real" stroke-dasharray="7.5 6" d="  M287.81,56.54 L326.94,82.1" style="stroke: rgb(74, 74, 74); stroke-width: 2; fill: none;"/></g><g class="composite-shape"><path class="real" d=" M292.39,22.26 C292.39,16.88 296.75,12.52 302.14,12.52 C307.52,12.52 311.88,16.88 311.88,22.26 C311.88,27.65 307.52,32.01 302.14,32.01 C296.75,32.01 292.39,27.65 292.39,22.26 Z" style="stroke-width: 2; stroke: rgb(74, 74, 74); fill: rgb(243, 243, 243);"/></g><g class="composite-shape"><path class="real" d=" M294.91,113.27 C294.91,107.89 299.28,103.53 304.66,103.53 C310.04,103.53 314.4,107.89 314.4,113.27 C314.4,118.65 310.04,123.02 304.66,123.02 C299.28,123.02 294.91,118.65 294.91,113.27 Z" style="stroke-width: 2; stroke: rgb(74, 74, 74); fill: rgb(255, 227, 249);"/></g><g class="composite-shape"><path class="real" d=" M272.91,49.54 C272.91,44.16 277.27,39.8 282.65,39.8 C288.03,39.8 292.39,44.16 292.39,49.54 C292.39,54.93 288.03,59.29 282.65,59.29 C277.27,59.29 272.91,54.93 272.91,49.54 Z" style="stroke-width: 2; stroke: rgb(74, 74, 74); fill: rgb(255, 228, 228);"/></g><g class="composite-shape"><path class="real" d=" M317.2,82.1 C317.2,76.72 321.56,72.35 326.94,72.35 C332.32,72.35 336.68,76.72 336.68,82.1 C336.68,87.48 332.32,91.84 326.94,91.84 C321.56,91.84 317.2,87.48 317.2,82.1 Z" style="stroke-width: 2; stroke: rgb(74, 74, 74); fill: rgb(255, 254, 214);"/></g><g class="composite-shape"><path class="real" d=" M272.91,82.1 C272.91,76.72 277.27,72.35 282.65,72.35 C288.03,72.35 292.39,76.72 292.39,82.1 C292.39,87.48 288.03,91.84 282.65,91.84 C277.27,91.84 272.91,87.48 272.91,82.1 Z" style="stroke-width: 2; stroke: rgb(74, 74, 74); fill: rgb(237, 255, 237);"/></g><g class="composite-shape"><path class="real" d=" M317.2,49.54 C317.2,44.16 321.56,39.8 326.94,39.8 C332.32,39.8 336.68,44.16 336.68,49.54 C336.68,54.93 332.32,59.29 326.94,59.29 C321.56,59.29 317.2,54.93 317.2,49.54 Z" style="stroke-width: 2; stroke: rgb(74, 74, 74); fill: rgb(223, 240, 255);"/></g><g class="arrow-line"><path class="connection real" stroke-dasharray="" d="  M356.62,103.74 L333.01,89.78" style="stroke: rgb(74, 74, 74); stroke-width: 2; fill: none;"/></g><g class="composite-shape"><path class="real" d=" M344.99,113.38 C344.99,108.06 349.3,103.74 354.62,103.74 C359.95,103.74 364.26,108.06 364.26,113.38 C364.26,118.7 359.95,123.02 354.62,123.02 C349.3,123.02 344.99,118.7 344.99,113.38 Z" style="stroke-width: 2; stroke: rgb(74, 74, 74); fill: rgba(245, 166, 35, 0.33);"/></g><g class="arrow-line"><path class="connection real" stroke-dasharray="" d="  M321.05,89.78 L307.75,103.07" style="stroke: rgb(74, 74, 74); stroke-width: 2; fill: none;"/></g><g class="composite-shape"><path class="real" d=" M317.72,113.38 C317.72,108.06 322.04,103.74 327.36,103.74 C332.68,103.74 337,108.06 337,113.38 C337,118.7 332.68,123.02 327.36,123.02 C322.04,123.02 317.72,118.7 317.72,113.38 Z" style="stroke-width: 2; stroke: rgb(74, 74, 74); fill: rgba(144, 19, 254, 0.17);"/></g><g class="arrow-line"><path class="connection real" stroke-dasharray="" d="  M227.56,62.94 L258.8,62.94" style="stroke: rgb(74, 74, 74); stroke-width: 1; fill: none;"/><g stroke="none" fill="rgba(74,74,74,1)" transform="matrix(-1,1.2246467991473532e-16,-1.2246467991473532e-16,-1,260.8016848493927,62.93813561325073)" style="stroke: none; fill: rgb(74, 74, 74); stroke-width: 1;"><path d=" M8.93,-4.29 L0,0 L8.93,4.29 Z"/></g></g><g class="arrow-line"><path class="connection real" stroke-dasharray="" d="  M730.36,71 L696.26,52.88" style="stroke: rgb(74, 74, 74); stroke-width: 2; fill: none;"/></g><g class="arrow-line"><path class="connection real" stroke-dasharray="" d="  M697.12,71.83 L696.26,52.88" style="stroke: rgb(74, 74, 74); stroke-width: 2; fill: none;"/></g><g class="arrow-line"><path class="connection real" stroke-dasharray="" d="  M615.78,60.11 L615.78,71.68" style="stroke: rgb(74, 74, 74); stroke-width: 2; fill: none;"/></g><g class="arrow-line"><path class="connection real" stroke-dasharray="" d="  M640.95,23.3 L615.78,40.84" style="stroke: rgb(74, 74, 74); stroke-width: 2; fill: none;"/></g><g class="arrow-line"><path class="connection real" stroke-dasharray="" d="  M615.78,122.18 L615.78,133.74" style="stroke: rgb(74, 74, 74); stroke-width: 2; fill: none;"/></g><g class="arrow-line"><path class="connection real" stroke-dasharray="" d="  M660.89,23.3 L700.78,56.54" style="stroke: rgb(74, 74, 74); stroke-width: 2; fill: none;"/></g><g class="arrow-line"><path class="connection real" stroke-dasharray="" d="  M586.87,71.68 L608.07,56.26" style="stroke: rgb(74, 74, 74); stroke-width: 2; fill: none;"/></g><g class="arrow-line"><path class="connection real" stroke-dasharray="" d="  M588.8,133.74 L610,120.25" style="stroke: rgb(74, 74, 74); stroke-width: 2; fill: none;"/></g><g class="arrow-line"><path class="connection real" stroke-dasharray="" d="  M623.49,56.26 L640.84,71.68" style="stroke: rgb(74, 74, 74); stroke-width: 2; fill: none;"/></g><g class="composite-shape"><path class="real" d=" M641.62,19.64 C641.62,14.31 645.93,10 651.26,10 C656.58,10 660.89,14.31 660.89,19.64 C660.89,24.96 656.58,29.27 651.26,29.27 C645.93,29.27 641.62,24.96 641.62,19.64 Z" style="stroke-width: 2; stroke: rgb(74, 74, 74); fill: rgb(243, 243, 243);"/></g><g class="composite-shape"><path class="real" d=" M579.16,142.99 C579.16,137.67 583.47,133.35 588.8,133.35 C594.12,133.35 598.43,137.67 598.43,142.99 C598.43,148.31 594.12,152.63 588.8,152.63 C583.47,152.63 579.16,148.31 579.16,142.99 Z" style="stroke-width: 2; stroke: rgb(74, 74, 74); fill: rgb(255, 227, 249);"/></g><g class="composite-shape"><path class="real" d=" M606.14,50.48 C606.14,45.15 610.46,40.84 615.78,40.84 C621.1,40.84 625.42,45.15 625.42,50.48 C625.42,55.8 621.1,60.11 615.78,60.11 C610.46,60.11 606.14,55.8 606.14,50.48 Z" style="stroke-width: 2; stroke: rgb(74, 74, 74); fill: rgb(255, 228, 228);"/></g><g class="composite-shape"><path class="real" d=" M605.76,112.15 C605.76,106.83 610.07,102.52 615.39,102.52 C620.72,102.52 625.03,106.83 625.03,112.15 C625.03,117.48 620.72,121.79 615.39,121.79 C610.07,121.79 605.76,117.48 605.76,112.15 Z" style="stroke-width: 2; stroke: rgb(74, 74, 74); fill: rgb(255, 254, 214);"/></g><g class="composite-shape"><path class="real" d=" M577.23,81.31 C577.23,75.99 581.55,71.68 586.87,71.68 C592.19,71.68 596.51,75.99 596.51,81.31 C596.51,86.64 592.19,90.95 586.87,90.95 C581.55,90.95 577.23,86.64 577.23,81.31 Z" style="stroke-width: 2; stroke: rgb(74, 74, 74); fill: rgb(237, 255, 237);"/></g><g class="composite-shape"><path class="real" d=" M686.62,52.88 C686.62,47.55 690.93,43.24 696.26,43.24 C701.58,43.24 705.89,47.55 705.89,52.88 C705.89,58.2 701.58,62.51 696.26,62.51 C690.93,62.51 686.62,58.2 686.62,52.88 Z" style="stroke-width: 2; stroke: rgb(74, 74, 74); fill: rgb(223, 240, 255);"/></g><g class="arrow-line"><path class="connection real" stroke-dasharray="" d="  M642.76,133.74 L621.56,119.86" style="stroke: rgb(74, 74, 74); stroke-width: 2; fill: none;"/></g><g class="arrow-line"><path class="connection real" stroke-dasharray="" d="  M586.87,90.95 L586.87,102.52" style="stroke: rgb(74, 74, 74); stroke-width: 2; fill: none;"/></g><g class="composite-shape"><path class="real" d=" M635.05,81.31 C635.05,75.99 639.37,71.68 644.69,71.68 C650.01,71.68 654.33,75.99 654.33,81.31 C654.33,86.64 650.01,90.95 644.69,90.95 C639.37,90.95 635.05,86.64 635.05,81.31 Z" style="stroke-width: 2; stroke: rgb(74, 74, 74); fill: rgba(28, 248, 217, 0.2);"/></g><g class="composite-shape"><path class="real" d=" M577.23,112.15 C577.23,106.83 581.55,102.52 586.87,102.52 C592.19,102.52 596.51,106.83 596.51,112.15 C596.51,117.48 592.19,121.79 586.87,121.79 C581.55,121.79 577.23,117.48 577.23,112.15 Z" style="stroke-width: 2; stroke: rgb(74, 74, 74); fill: rgba(144, 19, 254, 0.17);"/></g><g class="composite-shape"><path class="real" d=" M606.14,142.99 C606.14,137.67 610.46,133.35 615.78,133.35 C621.1,133.35 625.42,137.67 625.42,142.99 C625.42,148.31 621.1,152.63 615.78,152.63 C610.46,152.63 606.14,148.31 606.14,142.99 Z" style="stroke-width: 2; stroke: rgb(74, 74, 74); fill: rgba(144, 19, 254, 0.17);"/></g><g class="composite-shape"><path class="real" d=" M633.13,143.38 C633.13,138.05 637.44,133.74 642.76,133.74 C648.09,133.74 652.4,138.05 652.4,143.38 C652.4,148.7 648.09,153.01 642.76,153.01 C637.44,153.01 633.13,148.7 633.13,143.38 Z" style="stroke-width: 2; stroke: rgb(74, 74, 74); fill: rgba(245, 166, 35, 0.33);"/></g><g class="composite-shape"><path class="real" d=" M606.14,81.31 C606.14,75.99 610.46,71.68 615.78,71.68 C621.1,71.68 625.42,75.99 625.42,81.31 C625.42,86.64 621.1,90.95 615.78,90.95 C610.46,90.95 606.14,86.64 606.14,81.31 Z" style="stroke-width: 2; stroke: rgb(74, 74, 74); fill: rgba(65, 117, 5, 0.32);"/></g><g class="arrow-line"><path class="connection real" stroke-dasharray="" d="  M615.78,90.95 L615.78,102.52" style="stroke: rgb(74, 74, 74); stroke-width: 2; fill: none;"/></g><g class="arrow-line"><path class="connection real" stroke-dasharray="" d="  M697.51,123.02 L697.51,134.59" style="stroke: rgb(74, 74, 74); stroke-width: 2; fill: none;"/></g><g class="arrow-line"><path class="connection real" stroke-dasharray="" d="  M670.53,134.59 L691.73,121.1" style="stroke: rgb(74, 74, 74); stroke-width: 2; fill: none;"/></g><g class="composite-shape"><path class="real" d=" M660.89,143.84 C660.89,138.52 665.21,134.2 670.53,134.2 C675.85,134.2 680.17,138.52 680.17,143.84 C680.17,149.16 675.85,153.48 670.53,153.48 C665.21,153.48 660.89,149.16 660.89,143.84 Z" style="stroke-width: 2; stroke: rgb(74, 74, 74); fill: rgb(255, 227, 249);"/></g><g class="composite-shape"><path class="real" d=" M687.49,113 C687.49,107.68 691.81,103.36 697.13,103.36 C702.45,103.36 706.77,107.68 706.77,113 C706.77,118.32 702.45,122.64 697.13,122.64 C691.81,122.64 687.49,118.32 687.49,113 Z" style="stroke-width: 2; stroke: rgb(74, 74, 74); fill: rgb(255, 254, 214);"/></g><g class="arrow-line"><path class="connection real" stroke-dasharray="" d="  M724.5,134.59 L703.3,120.71" style="stroke: rgb(74, 74, 74); stroke-width: 2; fill: none;"/></g><g class="composite-shape"><path class="real" d=" M687.88,143.84 C687.88,138.52 692.19,134.2 697.51,134.2 C702.84,134.2 707.15,138.52 707.15,143.84 C707.15,149.16 702.84,153.48 697.51,153.48 C692.19,153.48 687.88,149.16 687.88,143.84 Z" style="stroke-width: 2; stroke: rgb(74, 74, 74); fill: rgba(144, 19, 254, 0.17);"/></g><g class="composite-shape"><path class="real" d=" M714.86,144.22 C714.86,138.9 719.18,134.59 724.5,134.59 C729.82,134.59 734.14,138.9 734.14,144.22 C734.14,149.55 729.82,153.86 724.5,153.86 C719.18,153.86 714.86,149.55 714.86,144.22 Z" style="stroke-width: 2; stroke: rgb(74, 74, 74); fill: rgba(245, 166, 35, 0.33);"/></g><g class="arrow-line"><path class="connection real" stroke-dasharray="" d="  M697.51,91.8 L697.51,103.36" style="stroke: rgb(74, 74, 74); stroke-width: 2; fill: none;"/></g><g class="composite-shape"><path class="real" d=" M687.49,81.47 C687.49,76.15 691.8,71.83 697.12,71.83 C702.45,71.83 706.76,76.15 706.76,81.47 C706.76,86.79 702.45,91.11 697.12,91.11 C691.8,91.11 687.49,86.79 687.49,81.47 Z" style="stroke-width: 2; stroke: rgb(74, 74, 74); fill: rgba(65, 117, 5, 0.32);"/></g><g class="composite-shape"><path class="real" d=" M720.73,80.64 C720.73,75.31 725.04,71 730.36,71 C735.69,71 740,75.31 740,80.64 C740,85.96 735.69,90.27 730.36,90.27 C725.04,90.27 720.73,85.96 720.73,80.64 Z" style="stroke-width: 2; stroke: rgb(74, 74, 74); fill: rgba(28, 248, 217, 0.2);"/></g><g class="arrow-line"><path class="connection real" stroke-dasharray="" d="  M415.34,98.73 L415.34,110.3" style="stroke: rgb(74, 74, 74); stroke-width: 2; fill: none;"/></g><g class="composite-shape"><path class="real" d=" M405.21,119.83 C405.21,114.5 409.53,110.19 414.85,110.19 C420.17,110.19 424.49,114.5 424.49,119.83 C424.49,125.15 420.17,129.46 414.85,129.46 C409.53,129.46 405.21,125.15 405.21,119.83 Z" style="stroke-width: 2; stroke: rgb(74, 74, 74); fill: rgba(144, 19, 254, 0.17);"/></g><g class="arrow-line"><path class="connection real" stroke-dasharray="" d="  M415.34,66.18 L415.34,79.25" style="stroke: rgb(74, 74, 74); stroke-width: 2; fill: none;"/></g><g class="arrow-line"><path class="connection real" stroke-dasharray="" d="  M452.48,20.31 L413.3,46.69" style="stroke: rgb(74, 74, 74); stroke-width: 2; fill: none;"/></g><g class="arrow-line"><path class="connection real" stroke-dasharray="" d="  M456.47,20.31 L487.44,47.93" style="stroke: rgb(74, 74, 74); stroke-width: 2; fill: none;"/></g><g class="arrow-line"><path class="connection real" stroke-dasharray="7.5 6" d="  M494.04,76.59 L494.04,63.52" style="stroke: rgb(74, 144, 226); stroke-width: 2; fill: none;"/></g><g class="arrow-line"><path class="connection real" stroke-dasharray="7.5 6" d="  M415.34,56.44 L493.03,88.91" style="stroke: rgb(74, 144, 226); stroke-width: 2; fill: none;"/></g><g class="composite-shape"><path class="real" d=" M442.74,20.31 C442.74,14.93 447.1,10.57 452.48,10.57 C457.86,10.57 462.22,14.93 462.22,20.31 C462.22,25.69 457.86,30.05 452.48,30.05 C447.1,30.05 442.74,25.69 442.74,20.31 Z" style="stroke-width: 2; stroke: rgb(74, 74, 74); fill: rgb(243, 243, 243);"/></g><g class="composite-shape"><path class="real" d=" M405.6,56.44 C405.6,51.06 409.96,46.69 415.34,46.69 C420.72,46.69 425.08,51.06 425.08,56.44 C425.08,61.82 420.72,66.18 415.34,66.18 C409.96,66.18 405.6,61.82 405.6,56.44 Z" style="stroke-width: 2; stroke: rgb(74, 74, 74); fill: rgb(255, 228, 228);"/></g><g class="composite-shape"><path class="real" d=" M405.6,88.99 C405.6,83.61 409.96,79.25 415.34,79.25 C420.72,79.25 425.08,83.61 425.08,88.99 C425.08,94.37 420.72,98.73 415.34,98.73 C409.96,98.73 405.6,94.37 405.6,88.99 Z" style="stroke-width: 2; stroke: rgb(74, 74, 74); fill: rgb(237, 255, 237);"/></g><g class="composite-shape"><path class="real" d=" M484.96,53.78 C484.96,48.4 489.33,44.03 494.71,44.03 C500.09,44.03 504.45,48.4 504.45,53.78 C504.45,59.16 500.09,63.52 494.71,63.52 C489.33,63.52 484.96,59.16 484.96,53.78 Z" style="stroke-width: 2; stroke: rgb(74, 74, 74); fill: rgb(223, 240, 255);"/></g><g class="arrow-line"><path class="connection real" stroke-dasharray="" d="  M422.33,63.83 L439.68,79.25" style="stroke: rgb(74, 74, 74); stroke-width: 2; fill: none;"/></g><g class="composite-shape"><path class="real" d=" M433.9,88.89 C433.9,83.57 438.21,79.25 443.54,79.25 C448.86,79.25 453.17,83.57 453.17,88.89 C453.17,94.21 448.86,98.53 443.54,98.53 C438.21,98.53 433.9,94.21 433.9,88.89 Z" style="stroke-width: 2; stroke: rgb(74, 74, 74); fill: rgba(28, 248, 217, 0.2);"/></g><g class="arrow-line"><path class="connection real" stroke-dasharray="" d="  M493.41,98.93 L493.41,110.5" style="stroke: rgb(74, 74, 74); stroke-width: 2; fill: none;"/></g><g class="arrow-line"><path class="connection real" stroke-dasharray="" d="  M466.43,110.5 L487.63,97.01" style="stroke: rgb(74, 74, 74); stroke-width: 2; fill: none;"/></g><g class="composite-shape"><path class="real" d=" M456.79,119.75 C456.79,114.43 461.11,110.11 466.43,110.11 C471.75,110.11 476.06,114.43 476.06,119.75 C476.06,125.07 471.75,129.39 466.43,129.39 C461.11,129.39 456.79,125.07 456.79,119.75 Z" style="stroke-width: 2; stroke: rgb(74, 74, 74); fill: rgb(255, 227, 249);"/></g><g class="composite-shape"><path class="real" d=" M483.39,88.91 C483.39,83.59 487.7,79.27 493.03,79.27 C498.35,79.27 502.66,83.59 502.66,88.91 C502.66,94.23 498.35,98.55 493.03,98.55 C487.7,98.55 483.39,94.23 483.39,88.91 Z" style="stroke-width: 2; stroke: rgb(74, 74, 74); fill: rgb(255, 254, 214);"/></g><g class="arrow-line"><path class="connection real" stroke-dasharray="" d="  M520.4,110.5 L499.19,96.62" style="stroke: rgb(74, 74, 74); stroke-width: 2; fill: none;"/></g><g class="composite-shape"><path class="real" d=" M483.77,119.75 C483.77,114.43 488.09,110.11 493.41,110.11 C498.73,110.11 503.05,114.43 503.05,119.75 C503.05,125.07 498.73,129.39 493.41,129.39 C488.09,129.39 483.77,125.07 483.77,119.75 Z" style="stroke-width: 2; stroke: rgb(74, 74, 74); fill: rgba(144, 19, 254, 0.17);"/></g><g class="composite-shape"><path class="real" d=" M510.76,120.13 C510.76,114.81 515.07,110.5 520.4,110.5 C525.72,110.5 530.03,114.81 530.03,120.13 C530.03,125.46 525.72,129.77 520.4,129.77 C515.07,129.77 510.76,125.46 510.76,120.13 Z" style="stroke-width: 2; stroke: rgb(74, 74, 74); fill: rgba(245, 166, 35, 0.33);"/></g><g class="arrow-line"><path class="connection real" stroke-dasharray="" d="  M501.85,61.96 L519.2,77.38" style="stroke: rgb(74, 74, 74); stroke-width: 2; fill: none;"/></g><g class="composite-shape"><path class="real" d=" M513.42,87.02 C513.42,81.7 517.73,77.38 523.05,77.38 C528.38,77.38 532.69,81.7 532.69,87.02 C532.69,92.34 528.38,96.66 523.05,96.66 C517.73,96.66 513.42,92.34 513.42,87.02 Z" style="stroke-width: 2; stroke: rgb(74, 74, 74); fill: rgba(28, 248, 217, 0.2);"/></g><g class="arrow-line"><path class="connection real" stroke-dasharray="" d="  M92.35,63.18 L123.6,63.18" style="stroke: rgb(74, 74, 74); stroke-width: 1; fill: none;"/><g stroke="none" fill="rgba(74,74,74,1)" transform="matrix(-1,1.2246467991473532e-16,-1.2246467991473532e-16,-1,125.5950544447076,63.184359499824)" style="stroke: none; fill: rgb(74, 74, 74); stroke-width: 1;"><path d=" M8.93,-4.29 L0,0 L8.93,4.29 Z"/></g></g><g class="arrow-line"><path class="connection real" stroke-dasharray="" d="  M357.79,62.94 L389.03,62.94" style="stroke: rgb(74, 74, 74); stroke-width: 1; fill: none;"/><g stroke="none" fill="rgba(74,74,74,1)" transform="matrix(-1,1.2246467991473532e-16,-1.2246467991473532e-16,-1,391.0294984579894,62.938135613250736)" style="stroke: none; fill: rgb(74, 74, 74); stroke-width: 1;"><path d=" M8.93,-4.29 L0,0 L8.93,4.29 Z"/></g></g><g class="arrow-line"><path class="connection real" stroke-dasharray="" d="  M537.78,62.94 L569.02,62.94" style="stroke: rgb(74, 74, 74); stroke-width: 1; fill: none;"/><g stroke="none" fill="rgba(74,74,74,1)" transform="matrix(-1,1.2246467991473532e-16,-1.2246467991473532e-16,-1,571.019159543042,62.93813561325073)" style="stroke: none; fill: rgb(74, 74, 74); stroke-width: 1;"><path d=" M8.93,-4.29 L0,0 L8.93,4.29 Z"/></g></g><g/></g><g/><g/><g/></svg>
        <svg xmlns="http://www.w3.org/2000/svg" width="745" height="161" style="width:745px;height:161px;font-family:Asana-Math, Asana;background:transparent;"><g><g><text x="44.953125" y="12.734375" style="white-space:pre;stroke:none;fill:rgb(74, 74, 74);font-size:12px;font-family:Arial, Helvetica, sans-serif;font-weight:400;font-style:normal;dominant-baseline:text-before-edge;text-decoration:none solid rgb(74, 74, 74);">r</text></g></g><g><g><text x="23.953125" y="40.578125" style="white-space:pre;stroke:none;fill:rgb(74, 74, 74);font-size:12px;font-family:Arial, Helvetica, sans-serif;font-weight:400;font-style:normal;dominant-baseline:text-before-edge;text-decoration:none solid rgb(74, 74, 74);">A</text></g></g><g><g><text x="62.53125" y="40.015625" style="white-space:pre;stroke:none;fill:rgb(74, 74, 74);font-size:12px;font-family:Arial, Helvetica, sans-serif;font-weight:400;font-style:normal;dominant-baseline:text-before-edge;text-decoration:none solid rgb(74, 74, 74);">B</text></g></g><g><g><text x="24.015625" y="72.5625" style="white-space:pre;stroke:none;fill:rgb(74, 74, 74);font-size:12px;font-family:Arial, Helvetica, sans-serif;font-weight:400;font-style:normal;dominant-baseline:text-before-edge;text-decoration:none solid rgb(74, 74, 74);">C</text></g></g><g><g><text x="62.984375" y="72.5625" style="white-space:pre;stroke:none;fill:rgb(74, 74, 74);font-size:12px;font-family:Arial, Helvetica, sans-serif;font-weight:400;font-style:normal;dominant-baseline:text-before-edge;text-decoration:none solid rgb(74, 74, 74);">D</text></g></g><g><g><text x="62.984375" y="103.75" style="white-space:pre;stroke:none;fill:rgb(74, 74, 74);font-size:12px;font-family:Arial, Helvetica, sans-serif;font-weight:400;font-style:normal;dominant-baseline:text-before-edge;text-decoration:none solid rgb(74, 74, 74);">E</text></g></g><g><g><g style="transform:matrix(1,0,0,1,23.21875,33.509375);"><path d="M271 204L242 77C238 60 236 42 236 26C236 4 245 -9 260 -9C283 -9 324 17 406 85L399 106C375 86 346 59 324 59C315 59 309 68 309 82C309 87 309 90 310 93L402 472L392 481L359 463C318 478 301 482 274 482C246 482 226 477 199 464C137 433 104 403 79 354C35 265 4 145 4 67C4 23 19 -11 38 -11C75 -11 155 41 271 204ZM319 414C297 305 278 253 244 201C187 117 126 59 94 59C82 59 76 72 76 99C76 163 104 280 139 360C163 415 186 433 234 433C257 433 275 429 319 414Z" stroke="rgb(0, 0, 0)" stroke-width="8" fill="rgb(0, 0, 0)" style="transform:matrix(0.0119,0,0,-0.0119,0,0);"></path></g></g></g><g><g><g style="transform:matrix(1,0,0,1,63.34375,33.509375);"><path d="M235 722L223 733C171 707 135 698 63 691L59 670L107 670C131 670 141 663 141 646C141 639 140 628 139 622L38 71C37 68 37 64 37 61C37 22 85 -11 140 -11C177 -11 228 8 271 39C367 107 433 244 433 376C433 414 424 453 412 468C405 477 392 482 377 482C353 482 323 474 295 460C244 433 211 403 149 324ZM322 424C348 424 361 401 361 352C361 288 340 202 310 137C277 68 237 36 183 36C137 36 112 59 112 101C112 135 127 276 208 361C241 395 293 424 322 424Z" stroke="rgb(0, 0, 0)" stroke-width="8" fill="rgb(0, 0, 0)" style="transform:matrix(0.0119,0,0,-0.0119,0,0);"></path></g></g></g><g><g><g style="transform:matrix(1,0,0,1,43.15625,42.80625);"><path d="M342 330L365 330C373 395 380 432 389 458C365 473 330 482 293 482C248 483 175 463 118 400C64 352 25 241 25 136C25 40 67 -11 147 -11C201 -11 249 9 304 54L354 95L346 115L331 105C259 57 221 40 186 40C130 40 101 80 101 159C101 267 136 371 185 409C206 425 230 433 261 433C306 433 342 414 342 390Z" stroke="rgb(0, 0, 0)" stroke-width="8" fill="rgb(0, 0, 0)" style="transform:matrix(0.0119,0,0,-0.0119,0,0);"></path></g></g></g><g><g><g style="transform:matrix(1,0,0,1,16.5625,66.74375);"><path d="M483 722L471 733C419 707 383 698 311 691L307 670L355 670C379 670 389 663 389 646C389 638 388 629 387 622L359 468C329 477 302 482 277 482C208 482 114 410 68 323C37 265 17 170 17 86C17 21 32 -11 61 -11C88 -11 125 6 159 33C213 77 246 116 313 217L290 126C279 82 274 50 274 24C274 3 283 -9 300 -9C317 -9 341 3 375 28L456 88L446 107L402 76C388 66 372 59 363 59C355 59 349 68 349 82C349 90 350 99 357 128ZM114 59C98 59 89 73 89 98C89 224 135 380 184 418C197 428 216 433 243 433C287 433 316 427 349 410L337 351C300 171 159 59 114 59Z" stroke="rgb(0, 0, 0)" stroke-width="8" fill="rgb(0, 0, 0)" style="transform:matrix(0.0119,0,0,-0.0119,0,0);"></path></g></g></g><g><g><g style="transform:matrix(1,0,0,1,69.75,66.815625);"><path d="M328 111L304 94C251 56 203 36 167 36C120 36 91 73 91 133C91 158 94 185 99 214C116 218 225 248 250 259C335 296 374 342 374 404C374 451 340 482 290 482C222 496 112 423 75 349C45 299 15 180 15 113C15 35 59 -11 131 -11C188 -11 244 17 336 92ZM113 274C130 343 150 386 179 412C197 428 228 440 252 440C281 440 300 420 300 388C300 344 265 297 213 272C185 258 149 247 104 237Z" stroke="rgb(0, 0, 0)" stroke-width="8" fill="rgb(0, 0, 0)" style="transform:matrix(0.015300000000000001,0,0,-0.015300000000000001,0,0);"></path></g></g></g><g><g><g style="transform:matrix(1,0,0,1,81.9375,85.821875);"><path d="M236 722L224 733C179 711 138 697 64 691L60 670L108 670C126 670 142 667 142 647C142 641 142 632 140 622L98 388C78 272 36 80 10 2L17 -9L86 7C94 64 108 164 148 236C193 317 296 414 338 414C349 414 360 407 360 393C360 375 355 342 345 303L294 107C288 85 281 55 281 31C281 6 291 -9 312 -9C344 -9 412 41 471 85L461 103L435 86C412 71 386 56 374 56C367 56 361 65 361 76C361 88 364 101 368 116L432 372C438 398 443 423 443 447C443 464 437 482 411 482C376 482 299 437 231 374C198 343 172 308 144 273L140 275Z" stroke="rgb(0, 0, 0)" stroke-width="8" fill="rgb(0, 0, 0)" style="transform:matrix(0.0119,0,0,-0.0119,0,0);"></path></g></g></g><g><g><g style="transform:matrix(1,0,0,1,50.609375,64.978125);"><path d="M345 437L329 437L350 549C366 635 394 673 440 673C470 673 497 658 512 634L522 638C527 654 537 685 545 705L550 720C534 727 503 733 480 733C469 733 453 730 445 726C421 715 339 654 316 630C294 608 282 578 271 521L256 442C215 422 195 414 170 405L165 383L246 383L237 327C207 132 170 -54 148 -123C130 -182 100 -213 64 -213C41 -213 30 -206 12 -184L-2 -188C-6 -211 -20 -259 -25 -268C-16 -273 -1 -276 10 -276C51 -276 105 -245 144 -198C215 -114 235 -18 319 383L423 383C427 402 434 425 440 439L436 446C407 439 408 437 345 437Z" stroke="rgb(0, 0, 0)" stroke-width="8" fill="rgb(0, 0, 0)" style="transform:matrix(0.0119,0,0,-0.0119,0,0);"></path></g></g></g><g><g><g style="transform:matrix(1,0,0,1,43.15625,92.8375);"><path d="M275 482C208 482 55 419 55 259C55 182 100 136 177 136C185 136 196 136 207 137L166 99C150 84 139 66 139 52C139 42 146 31 160 19C91 -4 -37 -48 -37 -159C-37 -230 33 -276 142 -276C271 -276 384 -204 384 -121C384 -85 363 -49 320 -14L260 35C226 62 213 81 213 100C213 114 228 128 240 146C338 170 409 253 409 342C409 357 406 376 405 380C422 378 430 378 439 378C456 378 466 379 489 382L498 427L495 433C467 426 447 424 393 424C393 425 369 482 275 482ZM176 1L253 -58C299 -94 318 -121 318 -154C318 -206 249 -248 166 -248C84 -248 27 -206 27 -145C27 -43 137 -11 176 1ZM250 448C308 448 337 412 337 341C337 238 289 168 219 168C158 168 126 209 126 288C126 383 177 448 250 448Z" stroke="rgb(0, 0, 0)" stroke-width="8" fill="rgb(0, 0, 0)" style="transform:matrix(0.0119,0,0,-0.0119,0,0);"></path></g></g></g><g><g><g style="transform:matrix(1,0,0,1,56.78125,99.634375);"><path d="M34 388L41 368L73 389C110 412 113 414 120 414C130 414 138 404 138 391C138 384 134 361 130 347L64 107C56 76 51 49 51 30C51 6 62 -9 81 -9C107 -9 143 12 241 85L231 103L205 86C176 67 153 56 144 56C137 56 131 66 131 76C131 86 133 95 138 116L215 420C219 437 221 448 221 456C221 473 212 482 196 482C174 482 137 461 62 408ZM228 712C199 712 170 679 170 645C170 620 185 604 209 604C240 604 264 633 264 671C264 695 249 712 228 712Z" stroke="rgb(0, 0, 0)" stroke-width="8" fill="rgb(0, 0, 0)" style="transform:matrix(0.0119,0,0,-0.0119,0,0);"></path></g></g></g><g><g><text x="170.703125" y="15.25" style="white-space:pre;stroke:none;fill:rgb(74, 74, 74);font-size:12px;font-family:Arial, Helvetica, sans-serif;font-weight:400;font-style:normal;dominant-baseline:text-before-edge;text-decoration:none solid rgb(74, 74, 74);">r</text></g></g><g><g><text x="149.765625" y="42.53125" style="white-space:pre;stroke:none;fill:rgb(74, 74, 74);font-size:12px;font-family:Arial, Helvetica, sans-serif;font-weight:400;font-style:normal;dominant-baseline:text-before-edge;text-decoration:none solid rgb(74, 74, 74);">A</text></g></g><g><g><text x="188.734375" y="42.53125" style="white-space:pre;stroke:none;fill:rgb(74, 74, 74);font-size:12px;font-family:Arial, Helvetica, sans-serif;font-weight:400;font-style:normal;dominant-baseline:text-before-edge;text-decoration:none solid rgb(74, 74, 74);">B</text></g></g><g><g><text x="149.765625" y="75.09375" style="white-space:pre;stroke:none;fill:rgb(74, 74, 74);font-size:12px;font-family:Arial, Helvetica, sans-serif;font-weight:400;font-style:normal;dominant-baseline:text-before-edge;text-decoration:none solid rgb(74, 74, 74);">C</text></g></g><g><g><text x="188.734375" y="75.09375" style="white-space:pre;stroke:none;fill:rgb(74, 74, 74);font-size:12px;font-family:Arial, Helvetica, sans-serif;font-weight:400;font-style:normal;dominant-baseline:text-before-edge;text-decoration:none solid rgb(74, 74, 74);">D</text></g></g><g><g><text x="188.734375" y="106.265625" style="white-space:pre;stroke:none;fill:rgb(74, 74, 74);font-size:12px;font-family:Arial, Helvetica, sans-serif;font-weight:400;font-style:normal;dominant-baseline:text-before-edge;text-decoration:none solid rgb(74, 74, 74);">E</text></g></g><g><g><g style="transform:matrix(1,0,0,1,148.953125,36.025);"><path d="M271 204L242 77C238 60 236 42 236 26C236 4 245 -9 260 -9C283 -9 324 17 406 85L399 106C375 86 346 59 324 59C315 59 309 68 309 82C309 87 309 90 310 93L402 472L392 481L359 463C318 478 301 482 274 482C246 482 226 477 199 464C137 433 104 403 79 354C35 265 4 145 4 67C4 23 19 -11 38 -11C75 -11 155 41 271 204ZM319 414C297 305 278 253 244 201C187 117 126 59 94 59C82 59 76 72 76 99C76 163 104 280 139 360C163 415 186 433 234 433C257 433 275 429 319 414Z" stroke="rgb(0, 0, 0)" stroke-width="8" fill="rgb(0, 0, 0)" style="transform:matrix(0.0119,0,0,-0.0119,0,0);"></path></g></g></g><g><g><g style="transform:matrix(1,0,0,1,189.09375,36.025);"><path d="M235 722L223 733C171 707 135 698 63 691L59 670L107 670C131 670 141 663 141 646C141 639 140 628 139 622L38 71C37 68 37 64 37 61C37 22 85 -11 140 -11C177 -11 228 8 271 39C367 107 433 244 433 376C433 414 424 453 412 468C405 477 392 482 377 482C353 482 323 474 295 460C244 433 211 403 149 324ZM322 424C348 424 361 401 361 352C361 288 340 202 310 137C277 68 237 36 183 36C137 36 112 59 112 101C112 135 127 276 208 361C241 395 293 424 322 424Z" stroke="rgb(0, 0, 0)" stroke-width="8" fill="rgb(0, 0, 0)" style="transform:matrix(0.0119,0,0,-0.0119,0,0);"></path></g></g></g><g><g><g style="transform:matrix(1,0,0,1,168.90625,45.3375);"><path d="M342 330L365 330C373 395 380 432 389 458C365 473 330 482 293 482C248 483 175 463 118 400C64 352 25 241 25 136C25 40 67 -11 147 -11C201 -11 249 9 304 54L354 95L346 115L331 105C259 57 221 40 186 40C130 40 101 80 101 159C101 267 136 371 185 409C206 425 230 433 261 433C306 433 342 414 342 390Z" stroke="rgb(0, 0, 0)" stroke-width="8" fill="rgb(0, 0, 0)" style="transform:matrix(0.0119,0,0,-0.0119,0,0);"></path></g></g></g><g><g><g style="transform:matrix(1,0,0,1,142.3125,69.275);"><path d="M483 722L471 733C419 707 383 698 311 691L307 670L355 670C379 670 389 663 389 646C389 638 388 629 387 622L359 468C329 477 302 482 277 482C208 482 114 410 68 323C37 265 17 170 17 86C17 21 32 -11 61 -11C88 -11 125 6 159 33C213 77 246 116 313 217L290 126C279 82 274 50 274 24C274 3 283 -9 300 -9C317 -9 341 3 375 28L456 88L446 107L402 76C388 66 372 59 363 59C355 59 349 68 349 82C349 90 350 99 357 128ZM114 59C98 59 89 73 89 98C89 224 135 380 184 418C197 428 216 433 243 433C287 433 316 427 349 410L337 351C300 171 159 59 114 59Z" stroke="rgb(0, 0, 0)" stroke-width="8" fill="rgb(0, 0, 0)" style="transform:matrix(0.0119,0,0,-0.0119,0,0);"></path></g></g></g><g><g><g style="transform:matrix(1,0,0,1,195.484375,67.93125);"><path d="M328 111L304 94C251 56 203 36 167 36C120 36 91 73 91 133C91 158 94 185 99 214C116 218 225 248 250 259C335 296 374 342 374 404C374 451 340 482 290 482C222 496 112 423 75 349C45 299 15 180 15 113C15 35 59 -11 131 -11C188 -11 244 17 336 92ZM113 274C130 343 150 386 179 412C197 428 228 440 252 440C281 440 300 420 300 388C300 344 265 297 213 272C185 258 149 247 104 237Z" stroke="rgb(0, 0, 0)" stroke-width="8" fill="rgb(0, 0, 0)" style="transform:matrix(0.0119,0,0,-0.0119,0,0);"></path></g></g></g><g><g><g style="transform:matrix(1,0,0,1,177.3125,66.540625);"><path d="M345 437L329 437L350 549C366 635 394 673 440 673C470 673 497 658 512 634L522 638C527 654 537 685 545 705L550 720C534 727 503 733 480 733C469 733 453 730 445 726C421 715 339 654 316 630C294 608 282 578 271 521L256 442C215 422 195 414 170 405L165 383L246 383L237 327C207 132 170 -54 148 -123C130 -182 100 -213 64 -213C41 -213 30 -206 12 -184L-2 -188C-6 -211 -20 -259 -25 -268C-16 -273 -1 -276 10 -276C51 -276 105 -245 144 -198C215 -114 235 -18 319 383L423 383C427 402 434 425 440 439L436 446C407 439 408 437 345 437Z" stroke="rgb(0, 0, 0)" stroke-width="8" fill="rgb(0, 0, 0)" style="transform:matrix(0.0119,0,0,-0.0119,0,0);"></path></g></g></g><g><g><g style="transform:matrix(1,0,0,1,168.90625,95.36875);"><path d="M275 482C208 482 55 419 55 259C55 182 100 136 177 136C185 136 196 136 207 137L166 99C150 84 139 66 139 52C139 42 146 31 160 19C91 -4 -37 -48 -37 -159C-37 -230 33 -276 142 -276C271 -276 384 -204 384 -121C384 -85 363 -49 320 -14L260 35C226 62 213 81 213 100C213 114 228 128 240 146C338 170 409 253 409 342C409 357 406 376 405 380C422 378 430 378 439 378C456 378 466 379 489 382L498 427L495 433C467 426 447 424 393 424C393 425 369 482 275 482ZM176 1L253 -58C299 -94 318 -121 318 -154C318 -206 249 -248 166 -248C84 -248 27 -206 27 -145C27 -43 137 -11 176 1ZM250 448C308 448 337 412 337 341C337 238 289 168 219 168C158 168 126 209 126 288C126 383 177 448 250 448Z" stroke="rgb(0, 0, 0)" stroke-width="8" fill="rgb(0, 0, 0)" style="transform:matrix(0.0119,0,0,-0.0119,0,0);"></path></g></g></g><g><g><g style="transform:matrix(1,0,0,1,183.578125,103.2125);"><path d="M34 388L41 368L73 389C110 412 113 414 120 414C130 414 138 404 138 391C138 384 134 361 130 347L64 107C56 76 51 49 51 30C51 6 62 -9 81 -9C107 -9 143 12 241 85L231 103L205 86C176 67 153 56 144 56C137 56 131 66 131 76C131 86 133 95 138 116L215 420C219 437 221 448 221 456C221 473 212 482 196 482C174 482 137 461 62 408ZM228 712C199 712 170 679 170 645C170 620 185 604 209 604C240 604 264 633 264 671C264 695 249 712 228 712Z" stroke="rgb(0, 0, 0)" stroke-width="8" fill="rgb(0, 0, 0)" style="transform:matrix(0.0119,0,0,-0.0119,0,0);"></path></g></g></g><g><g><text x="218.40625" y="106.375" style="white-space:pre;stroke:none;fill:rgb(74, 74, 74);font-size:12px;font-family:Arial, Helvetica, sans-serif;font-weight:400;font-style:normal;dominant-baseline:text-before-edge;text-decoration:none solid rgb(74, 74, 74);">§</text></g></g><g><g><g style="transform:matrix(1,0,0,1,218.375,99.634375);"><path d="M236 722L224 733C179 711 138 697 64 691L60 670L108 670C126 670 142 667 142 647C142 641 142 632 140 622L98 388C78 272 36 80 10 2L17 -9L86 7C94 64 108 164 148 236C193 317 296 414 338 414C349 414 360 407 360 393C360 375 355 342 345 303L294 107C288 85 281 55 281 31C281 6 291 -9 312 -9C344 -9 412 41 471 85L461 103L435 86C412 71 386 56 374 56C367 56 361 65 361 76C361 88 364 101 368 116L432 372C438 398 443 423 443 447C443 464 437 482 411 482C376 482 299 437 231 374C198 343 172 308 144 273L140 275Z" stroke="rgb(0, 0, 0)" stroke-width="8" fill="rgb(0, 0, 0)" style="transform:matrix(0.0119,0,0,-0.0119,0,0);"></path></g></g></g><g><g><text x="274.96875" y="106.921875" style="white-space:pre;stroke:none;fill:rgb(74, 74, 74);font-size:10.5px;font-family:Arial, Helvetica, sans-serif;font-weight:400;font-style:normal;dominant-baseline:text-before-edge;text-decoration:none solid rgb(74, 74, 74);">*</text><text x="279.046875" y="108.921875" style="white-space:pre;stroke:none;fill:rgb(74, 74, 74);font-size:8.4px;font-family:Arial, Helvetica, sans-serif;font-weight:400;font-style:normal;dominant-baseline:text-before-edge;text-decoration:none solid rgb(74, 74, 74);">{1}</text></g></g><g><g><g style="transform:matrix(1,0,0,1,272.3125,101.446875);"><path d="M275 482C208 482 55 419 55 259C55 182 100 136 177 136C185 136 196 136 207 137L166 99C150 84 139 66 139 52C139 42 146 31 160 19C91 -4 -37 -48 -37 -159C-37 -230 33 -276 142 -276C271 -276 384 -204 384 -121C384 -85 363 -49 320 -14L260 35C226 62 213 81 213 100C213 114 228 128 240 146C338 170 409 253 409 342C409 357 406 376 405 380C422 378 430 378 439 378C456 378 466 379 489 382L498 427L495 433C467 426 447 424 393 424C393 425 369 482 275 482ZM176 1L253 -58C299 -94 318 -121 318 -154C318 -206 249 -248 166 -248C84 -248 27 -206 27 -145C27 -43 137 -11 176 1ZM250 448C308 448 337 412 337 341C337 238 289 168 219 168C158 168 126 209 126 288C126 383 177 448 250 448Z" stroke="rgb(0, 0, 0)" stroke-width="8" fill="rgb(0, 0, 0)" style="transform:matrix(0.0119,0,0,-0.0119,0,0);"></path></g></g></g><g><g><text x="299.671875" y="15.25" style="white-space:pre;stroke:none;fill:rgb(74, 74, 74);font-size:12px;font-family:Arial, Helvetica, sans-serif;font-weight:400;font-style:normal;dominant-baseline:text-before-edge;text-decoration:none solid rgb(74, 74, 74);">r</text></g></g><g><g><text x="278.734375" y="42.53125" style="white-space:pre;stroke:none;fill:rgb(74, 74, 74);font-size:12px;font-family:Arial, Helvetica, sans-serif;font-weight:400;font-style:normal;dominant-baseline:text-before-edge;text-decoration:none solid rgb(74, 74, 74);">A</text></g></g><g><g><text x="323.015625" y="42.53125" style="white-space:pre;stroke:none;fill:rgb(74, 74, 74);font-size:12px;font-family:Arial, Helvetica, sans-serif;font-weight:400;font-style:normal;dominant-baseline:text-before-edge;text-decoration:none solid rgb(74, 74, 74);">B</text></g></g><g><g><text x="278.734375" y="75.09375" style="white-space:pre;stroke:none;fill:rgb(74, 74, 74);font-size:12px;font-family:Arial, Helvetica, sans-serif;font-weight:400;font-style:normal;dominant-baseline:text-before-edge;text-decoration:none solid rgb(74, 74, 74);">C</text></g></g><g><g><text x="323.015625" y="75.09375" style="white-space:pre;stroke:none;fill:rgb(74, 74, 74);font-size:12px;font-family:Arial, Helvetica, sans-serif;font-weight:400;font-style:normal;dominant-baseline:text-before-edge;text-decoration:none solid rgb(74, 74, 74);">D</text></g></g><g><g><text x="300.734375" y="106.265625" style="white-space:pre;stroke:none;fill:rgb(74, 74, 74);font-size:12px;font-family:Arial, Helvetica, sans-serif;font-weight:400;font-style:normal;dominant-baseline:text-before-edge;text-decoration:none solid rgb(74, 74, 74);">E</text></g></g><g><g><g style="transform:matrix(1,0,0,1,277.921875,36.025);"><path d="M271 204L242 77C238 60 236 42 236 26C236 4 245 -9 260 -9C283 -9 324 17 406 85L399 106C375 86 346 59 324 59C315 59 309 68 309 82C309 87 309 90 310 93L402 472L392 481L359 463C318 478 301 482 274 482C246 482 226 477 199 464C137 433 104 403 79 354C35 265 4 145 4 67C4 23 19 -11 38 -11C75 -11 155 41 271 204ZM319 414C297 305 278 253 244 201C187 117 126 59 94 59C82 59 76 72 76 99C76 163 104 280 139 360C163 415 186 433 234 433C257 433 275 429 319 414Z" stroke="rgb(0, 0, 0)" stroke-width="8" fill="rgb(0, 0, 0)" style="transform:matrix(0.0119,0,0,-0.0119,0,0);"></path></g></g></g><g><g><g style="transform:matrix(1,0,0,1,319.125,36.025);"><path d="M235 722L223 733C171 707 135 698 63 691L59 670L107 670C131 670 141 663 141 646C141 639 140 628 139 622L38 71C37 68 37 64 37 61C37 22 85 -11 140 -11C177 -11 228 8 271 39C367 107 433 244 433 376C433 414 424 453 412 468C405 477 392 482 377 482C353 482 323 474 295 460C244 433 211 403 149 324ZM322 424C348 424 361 401 361 352C361 288 340 202 310 137C277 68 237 36 183 36C137 36 112 59 112 101C112 135 127 276 208 361C241 395 293 424 322 424Z" stroke="rgb(0, 0, 0)" stroke-width="8" fill="rgb(0, 0, 0)" style="transform:matrix(0.0119,0,0,-0.0119,0,0);"></path></g></g></g><g><g><g style="transform:matrix(1,0,0,1,297.875,45.3375);"><path d="M342 330L365 330C373 395 380 432 389 458C365 473 330 482 293 482C248 483 175 463 118 400C64 352 25 241 25 136C25 40 67 -11 147 -11C201 -11 249 9 304 54L354 95L346 115L331 105C259 57 221 40 186 40C130 40 101 80 101 159C101 267 136 371 185 409C206 425 230 433 261 433C306 433 342 414 342 390Z" stroke="rgb(0, 0, 0)" stroke-width="8" fill="rgb(0, 0, 0)" style="transform:matrix(0.0119,0,0,-0.0119,0,0);"></path></g></g></g><g><g><g style="transform:matrix(1,0,0,1,271.28125,69.275);"><path d="M483 722L471 733C419 707 383 698 311 691L307 670L355 670C379 670 389 663 389 646C389 638 388 629 387 622L359 468C329 477 302 482 277 482C208 482 114 410 68 323C37 265 17 170 17 86C17 21 32 -11 61 -11C88 -11 125 6 159 33C213 77 246 116 313 217L290 126C279 82 274 50 274 24C274 3 283 -9 300 -9C317 -9 341 3 375 28L456 88L446 107L402 76C388 66 372 59 363 59C355 59 349 68 349 82C349 90 350 99 357 128ZM114 59C98 59 89 73 89 98C89 224 135 380 184 418C197 428 216 433 243 433C287 433 316 427 349 410L337 351C300 171 159 59 114 59Z" stroke="rgb(0, 0, 0)" stroke-width="8" fill="rgb(0, 0, 0)" style="transform:matrix(0.0119,0,0,-0.0119,0,0);"></path></g></g></g><g><g><g style="transform:matrix(1,0,0,1,329.78125,67.93125);"><path d="M328 111L304 94C251 56 203 36 167 36C120 36 91 73 91 133C91 158 94 185 99 214C116 218 225 248 250 259C335 296 374 342 374 404C374 451 340 482 290 482C222 496 112 423 75 349C45 299 15 180 15 113C15 35 59 -11 131 -11C188 -11 244 17 336 92ZM113 274C130 343 150 386 179 412C197 428 228 440 252 440C281 440 300 420 300 388C300 344 265 297 213 272C185 258 149 247 104 237Z" stroke="rgb(0, 0, 0)" stroke-width="8" fill="rgb(0, 0, 0)" style="transform:matrix(0.0119,0,0,-0.0119,0,0);"></path></g></g></g><g><g><g style="transform:matrix(1,0,0,1,307.390625,67.49375);"><path d="M345 437L329 437L350 549C366 635 394 673 440 673C470 673 497 658 512 634L522 638C527 654 537 685 545 705L550 720C534 727 503 733 480 733C469 733 453 730 445 726C421 715 339 654 316 630C294 608 282 578 271 521L256 442C215 422 195 414 170 405L165 383L246 383L237 327C207 132 170 -54 148 -123C130 -182 100 -213 64 -213C41 -213 30 -206 12 -184L-2 -188C-6 -211 -20 -259 -25 -268C-16 -273 -1 -276 10 -276C51 -276 105 -245 144 -198C215 -114 235 -18 319 383L423 383C427 402 434 425 440 439L436 446C407 439 408 437 345 437Z" stroke="rgb(0, 0, 0)" stroke-width="8" fill="rgb(0, 0, 0)" style="transform:matrix(0.0119,0,0,-0.0119,0,0);"></path></g></g></g><g><g><g style="transform:matrix(1,0,0,1,303.09375,101.0875);"><path d="M34 388L41 368L73 389C110 412 113 414 120 414C130 414 138 404 138 391C138 384 134 361 130 347L64 107C56 76 51 49 51 30C51 6 62 -9 81 -9C107 -9 143 12 241 85L231 103L205 86C176 67 153 56 144 56C137 56 131 66 131 76C131 86 133 95 138 116L215 420C219 437 221 448 221 456C221 473 212 482 196 482C174 482 137 461 62 408ZM228 712C199 712 170 679 170 645C170 620 185 604 209 604C240 604 264 633 264 671C264 695 249 712 228 712Z" stroke="rgb(0, 0, 0)" stroke-width="8" fill="rgb(0, 0, 0)" style="transform:matrix(0.0119,0,0,-0.0119,0,0);"></path></g></g></g><g><g><text x="350.703125" y="106.375" style="white-space:pre;stroke:none;fill:rgb(74, 74, 74);font-size:12px;font-family:Arial, Helvetica, sans-serif;font-weight:400;font-style:normal;dominant-baseline:text-before-edge;text-decoration:none solid rgb(74, 74, 74);">§</text></g></g><g><g><g style="transform:matrix(1,0,0,1,354.734375,99.634375);"><path d="M236 722L224 733C179 711 138 697 64 691L60 670L108 670C126 670 142 667 142 647C142 641 142 632 140 622L98 388C78 272 36 80 10 2L17 -9L86 7C94 64 108 164 148 236C193 317 296 414 338 414C349 414 360 407 360 393C360 375 355 342 345 303L294 107C288 85 281 55 281 31C281 6 291 -9 312 -9C344 -9 412 41 471 85L461 103L435 86C412 71 386 56 374 56C367 56 361 65 361 76C361 88 364 101 368 116L432 372C438 398 443 423 443 447C443 464 437 482 411 482C376 482 299 437 231 374C198 343 172 308 144 273L140 275Z" stroke="rgb(0, 0, 0)" stroke-width="8" fill="rgb(0, 0, 0)" style="transform:matrix(0.0119,0,0,-0.0119,0,0);"></path></g></g></g><g><g><text x="320.171875" y="107.375" style="white-space:pre;stroke:none;fill:rgb(74, 74, 74);font-size:10.5px;font-family:Arial, Helvetica, sans-serif;font-weight:400;font-style:normal;dominant-baseline:text-before-edge;text-decoration:none solid rgb(74, 74, 74);">*</text><text x="324.25" y="109.375" style="white-space:pre;stroke:none;fill:rgb(74, 74, 74);font-size:8.4px;font-family:Arial, Helvetica, sans-serif;font-weight:400;font-style:normal;dominant-baseline:text-before-edge;text-decoration:none solid rgb(74, 74, 74);">{1}</text></g></g><g><g><g style="transform:matrix(1,0,0,1,329.6875,98.7125);"><path d="M275 482C208 482 55 419 55 259C55 182 100 136 177 136C185 136 196 136 207 137L166 99C150 84 139 66 139 52C139 42 146 31 160 19C91 -4 -37 -48 -37 -159C-37 -230 33 -276 142 -276C271 -276 384 -204 384 -121C384 -85 363 -49 320 -14L260 35C226 62 213 81 213 100C213 114 228 128 240 146C338 170 409 253 409 342C409 357 406 376 405 380C422 378 430 378 439 378C456 378 466 379 489 382L498 427L495 433C467 426 447 424 393 424C393 425 369 482 275 482ZM176 1L253 -58C299 -94 318 -121 318 -154C318 -206 249 -248 166 -248C84 -248 27 -206 27 -145C27 -43 137 -11 176 1ZM250 448C308 448 337 412 337 341C337 238 289 168 219 168C158 168 126 209 126 288C126 383 177 448 250 448Z" stroke="rgb(0, 0, 0)" stroke-width="8" fill="rgb(0, 0, 0)" style="transform:matrix(0.0119,0,0,-0.0119,0,0);"></path></g></g></g><g><g><text x="611.390625" y="42.46875" style="white-space:pre;stroke:none;fill:rgb(74, 74, 74);font-size:12px;font-family:Arial, Helvetica, sans-serif;font-weight:400;font-style:normal;dominant-baseline:text-before-edge;text-decoration:none solid rgb(74, 74, 74);">A</text></g></g><g><g><text x="691.875" y="44.875" style="white-space:pre;stroke:none;fill:rgb(74, 74, 74);font-size:12px;font-family:Arial, Helvetica, sans-serif;font-weight:400;font-style:normal;dominant-baseline:text-before-edge;text-decoration:none solid rgb(74, 74, 74);">B</text></g></g><g><g><text x="582.484375" y="73.3125" style="white-space:pre;stroke:none;fill:rgb(74, 74, 74);font-size:12px;font-family:Arial, Helvetica, sans-serif;font-weight:400;font-style:normal;dominant-baseline:text-before-edge;text-decoration:none solid rgb(74, 74, 74);">C</text></g></g><g><g><text x="611.015625" y="104.15625" style="white-space:pre;stroke:none;fill:rgb(74, 74, 74);font-size:12px;font-family:Arial, Helvetica, sans-serif;font-weight:400;font-style:normal;dominant-baseline:text-before-edge;text-decoration:none solid rgb(74, 74, 74);">D</text></g></g><g><g><text x="584.40625" y="137.109375" style="white-space:pre;stroke:none;fill:rgb(74, 74, 74);font-size:12px;font-family:Arial, Helvetica, sans-serif;font-weight:400;font-style:normal;dominant-baseline:text-before-edge;text-decoration:none solid rgb(74, 74, 74);">E</text></g></g><g><g><text x="689.640625" y="77.46875" style="white-space:pre;stroke:none;fill:rgb(74, 74, 74);font-size:8.4px;font-family:Arial, Helvetica, sans-serif;font-weight:400;font-style:normal;dominant-baseline:text-before-edge;text-decoration:none solid rgb(74, 74, 74);">#{2}</text></g></g><g><g><text x="637.5" y="75.3125" style="white-space:pre;stroke:none;fill:rgb(74, 74, 74);font-size:10.5px;font-family:Arial, Helvetica, sans-serif;font-weight:400;font-style:normal;dominant-baseline:text-before-edge;text-decoration:none solid rgb(74, 74, 74);">*</text><text x="641.578125" y="77.3125" style="white-space:pre;stroke:none;fill:rgb(74, 74, 74);font-size:8.4px;font-family:Arial, Helvetica, sans-serif;font-weight:400;font-style:normal;dominant-baseline:text-before-edge;text-decoration:none solid rgb(74, 74, 74);">{3}</text></g></g><g><g><text x="723.171875" y="74.625" style="white-space:pre;stroke:none;fill:rgb(74, 74, 74);font-size:10.5px;font-family:Arial, Helvetica, sans-serif;font-weight:400;font-style:normal;dominant-baseline:text-before-edge;text-decoration:none solid rgb(74, 74, 74);">*</text><text x="727.25" y="76.625" style="white-space:pre;stroke:none;fill:rgb(74, 74, 74);font-size:8.4px;font-family:Arial, Helvetica, sans-serif;font-weight:400;font-style:normal;dominant-baseline:text-before-edge;text-decoration:none solid rgb(74, 74, 74);">{3}</text></g></g><g><g><text x="638.375" y="136.375" style="white-space:pre;stroke:none;fill:rgb(74, 74, 74);font-size:12px;font-family:Arial, Helvetica, sans-serif;font-weight:400;font-style:normal;dominant-baseline:text-before-edge;text-decoration:none solid rgb(74, 74, 74);">§</text></g></g><g><g><text x="581.71875" y="107.640625" style="white-space:pre;stroke:none;fill:rgb(74, 74, 74);font-size:7.5px;font-family:Arial, Helvetica, sans-serif;font-weight:400;font-style:normal;dominant-baseline:text-before-edge;text-decoration:none solid rgb(74, 74, 74);">*</text><text x="584.625" y="109.640625" style="white-space:pre;stroke:none;fill:rgb(74, 74, 74);font-size:6px;font-family:Arial, Helvetica, sans-serif;font-weight:400;font-style:normal;dominant-baseline:text-before-edge;text-decoration:none solid rgb(74, 74, 74);">{1}</text></g></g><g><g><text x="608.578125" y="136.984375" style="white-space:pre;stroke:none;fill:rgb(74, 74, 74);font-size:10.5px;font-family:Arial, Helvetica, sans-serif;font-weight:400;font-style:normal;dominant-baseline:text-before-edge;text-decoration:none solid rgb(74, 74, 74);">*</text><text x="612.65625" y="138.984375" style="white-space:pre;stroke:none;fill:rgb(74, 74, 74);font-size:8.4px;font-family:Arial, Helvetica, sans-serif;font-weight:400;font-style:normal;dominant-baseline:text-before-edge;text-decoration:none solid rgb(74, 74, 74);">{1}</text></g></g><g><g><g style="transform:matrix(1,0,0,1,620.3125,29.353125);"><path d="M271 204L242 77C238 60 236 42 236 26C236 4 245 -9 260 -9C283 -9 324 17 406 85L399 106C375 86 346 59 324 59C315 59 309 68 309 82C309 87 309 90 310 93L402 472L392 481L359 463C318 478 301 482 274 482C246 482 226 477 199 464C137 433 104 403 79 354C35 265 4 145 4 67C4 23 19 -11 38 -11C75 -11 155 41 271 204ZM319 414C297 305 278 253 244 201C187 117 126 59 94 59C82 59 76 72 76 99C76 163 104 280 139 360C163 415 186 433 234 433C257 433 275 429 319 414Z" stroke="rgb(0, 0, 0)" stroke-width="8" fill="rgb(0, 0, 0)" style="transform:matrix(0.0119,0,0,-0.0119,0,0);"></path></g></g></g><g><g><g style="transform:matrix(1,0,0,1,675.484375,31.4625);"><path d="M235 722L223 733C171 707 135 698 63 691L59 670L107 670C131 670 141 663 141 646C141 639 140 628 139 622L38 71C37 68 37 64 37 61C37 22 85 -11 140 -11C177 -11 228 8 271 39C367 107 433 244 433 376C433 414 424 453 412 468C405 477 392 482 377 482C353 482 323 474 295 460C244 433 211 403 149 324ZM322 424C348 424 361 401 361 352C361 288 340 202 310 137C277 68 237 36 183 36C137 36 112 59 112 101C112 135 127 276 208 361C241 395 293 424 322 424Z" stroke="rgb(0, 0, 0)" stroke-width="8" fill="rgb(0, 0, 0)" style="transform:matrix(0.0119,0,0,-0.0119,0,0);"></path></g></g></g><g><g><g style="transform:matrix(1,0,0,1,641.078125,67.696875);"><path d="M342 330L365 330C373 395 380 432 389 458C365 473 330 482 293 482C248 483 175 463 118 400C64 352 25 241 25 136C25 40 67 -11 147 -11C201 -11 249 9 304 54L354 95L346 115L331 105C259 57 221 40 186 40C130 40 101 80 101 159C101 267 136 371 185 409C206 425 230 433 261 433C306 433 342 414 342 390Z" stroke="rgb(0, 0, 0)" stroke-width="8" fill="rgb(0, 0, 0)" style="transform:matrix(0.0119,0,0,-0.0119,0,0);"></path></g></g></g><g><g><g style="transform:matrix(1,0,0,1,727.625,66.353125);"><path d="M342 330L365 330C373 395 380 432 389 458C365 473 330 482 293 482C248 483 175 463 118 400C64 352 25 241 25 136C25 40 67 -11 147 -11C201 -11 249 9 304 54L354 95L346 115L331 105C259 57 221 40 186 40C130 40 101 80 101 159C101 267 136 371 185 409C206 425 230 433 261 433C306 433 342 414 342 390Z" stroke="rgb(0, 0, 0)" stroke-width="8" fill="rgb(0, 0, 0)" style="transform:matrix(0.0119,0,0,-0.0119,0,0);"></path></g></g></g><g><g><g style="transform:matrix(1,0,0,1,584.34375,68.0875);"><path d="M483 722L471 733C419 707 383 698 311 691L307 670L355 670C379 670 389 663 389 646C389 638 388 629 387 622L359 468C329 477 302 482 277 482C208 482 114 410 68 323C37 265 17 170 17 86C17 21 32 -11 61 -11C88 -11 125 6 159 33C213 77 246 116 313 217L290 126C279 82 274 50 274 24C274 3 283 -9 300 -9C317 -9 341 3 375 28L456 88L446 107L402 76C388 66 372 59 363 59C355 59 349 68 349 82C349 90 350 99 357 128ZM114 59C98 59 89 73 89 98C89 224 135 380 184 418C197 428 216 433 243 433C287 433 316 427 349 410L337 351C300 171 159 59 114 59Z" stroke="rgb(0, 0, 0)" stroke-width="8" fill="rgb(0, 0, 0)" style="transform:matrix(0.0119,0,0,-0.0119,0,0);"></path></g></g></g><g><g><g style="transform:matrix(1,0,0,1,617.359375,69.80625);"><path d="M345 437L329 437L350 549C366 635 394 673 440 673C470 673 497 658 512 634L522 638C527 654 537 685 545 705L550 720C534 727 503 733 480 733C469 733 453 730 445 726C421 715 339 654 316 630C294 608 282 578 271 521L256 442C215 422 195 414 170 405L165 383L246 383L237 327C207 132 170 -54 148 -123C130 -182 100 -213 64 -213C41 -213 30 -206 12 -184L-2 -188C-6 -211 -20 -259 -25 -268C-16 -273 -1 -276 10 -276C51 -276 105 -245 144 -198C215 -114 235 -18 319 383L423 383C427 402 434 425 440 439L436 446C407 439 408 437 345 437Z" stroke="rgb(0, 0, 0)" stroke-width="8" fill="rgb(0, 0, 0)" style="transform:matrix(0.0119,0,0,-0.0119,0,0);"></path></g></g></g><g><g><g style="transform:matrix(1,0,0,1,686.25,70.4625);"><path d="M328 111L304 94C251 56 203 36 167 36C120 36 91 73 91 133C91 158 94 185 99 214C116 218 225 248 250 259C335 296 374 342 374 404C374 451 340 482 290 482C222 496 112 423 75 349C45 299 15 180 15 113C15 35 59 -11 131 -11C188 -11 244 17 336 92ZM113 274C130 343 150 386 179 412C197 428 228 440 252 440C281 440 300 420 300 388C300 344 265 297 213 272C185 258 149 247 104 237Z" stroke="rgb(0, 0, 0)" stroke-width="8" fill="rgb(0, 0, 0)" style="transform:matrix(0.0119,0,0,-0.0119,0,0);"></path></g></g></g><g><g><g style="transform:matrix(1,0,0,1,577.015625,101.040625);"><path d="M275 482C208 482 55 419 55 259C55 182 100 136 177 136C185 136 196 136 207 137L166 99C150 84 139 66 139 52C139 42 146 31 160 19C91 -4 -37 -48 -37 -159C-37 -230 33 -276 142 -276C271 -276 384 -204 384 -121C384 -85 363 -49 320 -14L260 35C226 62 213 81 213 100C213 114 228 128 240 146C338 170 409 253 409 342C409 357 406 376 405 380C422 378 430 378 439 378C456 378 466 379 489 382L498 427L495 433C467 426 447 424 393 424C393 425 369 482 275 482ZM176 1L253 -58C299 -94 318 -121 318 -154C318 -206 249 -248 166 -248C84 -248 27 -206 27 -145C27 -43 137 -11 176 1ZM250 448C308 448 337 412 337 341C337 238 289 168 219 168C158 168 126 209 126 288C126 383 177 448 250 448Z" stroke="rgb(0, 0, 0)" stroke-width="8" fill="rgb(0, 0, 0)" style="transform:matrix(0.0119,0,0,-0.0119,0,0);"></path></g></g></g><g><g><g style="transform:matrix(1,0,0,1,605.875,130.525);"><path d="M275 482C208 482 55 419 55 259C55 182 100 136 177 136C185 136 196 136 207 137L166 99C150 84 139 66 139 52C139 42 146 31 160 19C91 -4 -37 -48 -37 -159C-37 -230 33 -276 142 -276C271 -276 384 -204 384 -121C384 -85 363 -49 320 -14L260 35C226 62 213 81 213 100C213 114 228 128 240 146C338 170 409 253 409 342C409 357 406 376 405 380C422 378 430 378 439 378C456 378 466 379 489 382L498 427L495 433C467 426 447 424 393 424C393 425 369 482 275 482ZM176 1L253 -58C299 -94 318 -121 318 -154C318 -206 249 -248 166 -248C84 -248 27 -206 27 -145C27 -43 137 -11 176 1ZM250 448C308 448 337 412 337 341C337 238 289 168 219 168C158 168 126 209 126 288C126 383 177 448 250 448Z" stroke="rgb(0, 0, 0)" stroke-width="8" fill="rgb(0, 0, 0)" style="transform:matrix(0.0119,0,0,-0.0119,0,0);"></path></g></g></g><g><g><g style="transform:matrix(1,0,0,1,587.578125,131.353125);"><path d="M34 388L41 368L73 389C110 412 113 414 120 414C130 414 138 404 138 391C138 384 134 361 130 347L64 107C56 76 51 49 51 30C51 6 62 -9 81 -9C107 -9 143 12 241 85L231 103L205 86C176 67 153 56 144 56C137 56 131 66 131 76C131 86 133 95 138 116L215 420C219 437 221 448 221 456C221 473 212 482 196 482C174 482 137 461 62 408ZM228 712C199 712 170 679 170 645C170 620 185 604 209 604C240 604 264 633 264 671C264 695 249 712 228 712Z" stroke="rgb(0, 0, 0)" stroke-width="8" fill="rgb(0, 0, 0)" style="transform:matrix(0.0119,0,0,-0.0119,0,0);"></path></g></g></g><g><g><g style="transform:matrix(1,0,0,1,641.859375,130.696875);"><path d="M236 722L224 733C179 711 138 697 64 691L60 670L108 670C126 670 142 667 142 647C142 641 142 632 140 622L98 388C78 272 36 80 10 2L17 -9L86 7C94 64 108 164 148 236C193 317 296 414 338 414C349 414 360 407 360 393C360 375 355 342 345 303L294 107C288 85 281 55 281 31C281 6 291 -9 312 -9C344 -9 412 41 471 85L461 103L435 86C412 71 386 56 374 56C367 56 361 65 361 76C361 88 364 101 368 116L432 372C438 398 443 423 443 447C443 464 437 482 411 482C376 482 299 437 231 374C198 343 172 308 144 273L140 275Z" stroke="rgb(0, 0, 0)" stroke-width="8" fill="rgb(0, 0, 0)" style="transform:matrix(0.0119,0,0,-0.0119,0,0);"></path></g></g></g><g><g><text x="608.296875" y="77.3125" style="white-space:pre;stroke:none;fill:rgb(74, 74, 74);font-size:8.4px;font-family:Arial, Helvetica, sans-serif;font-weight:400;font-style:normal;dominant-baseline:text-before-edge;text-decoration:none solid rgb(74, 74, 74);">#{2}</text></g></g><g><g><g style="transform:matrix(1,0,0,1,620.265625,98.74375);"><path d="M345 437L329 437L350 549C366 635 394 673 440 673C470 673 497 658 512 634L522 638C527 654 537 685 545 705L550 720C534 727 503 733 480 733C469 733 453 730 445 726C421 715 339 654 316 630C294 608 282 578 271 521L256 442C215 422 195 414 170 405L165 383L246 383L237 327C207 132 170 -54 148 -123C130 -182 100 -213 64 -213C41 -213 30 -206 12 -184L-2 -188C-6 -211 -20 -259 -25 -268C-16 -273 -1 -276 10 -276C51 -276 105 -245 144 -198C215 -114 235 -18 319 383L423 383C427 402 434 425 440 439L436 446C407 439 408 437 345 437Z" stroke="rgb(0, 0, 0)" stroke-width="8" fill="rgb(0, 0, 0)" style="transform:matrix(0.0119,0,0,-0.0119,0,0);"></path></g></g></g><g><g><text x="648.796875" y="12.625" style="white-space:pre;stroke:none;fill:rgb(74, 74, 74);font-size:12px;font-family:Arial, Helvetica, sans-serif;font-weight:400;font-style:normal;dominant-baseline:text-before-edge;text-decoration:none solid rgb(74, 74, 74);">r</text></g></g><g><g><text x="692.75" y="105" style="white-space:pre;stroke:none;fill:rgb(74, 74, 74);font-size:12px;font-family:Arial, Helvetica, sans-serif;font-weight:400;font-style:normal;dominant-baseline:text-before-edge;text-decoration:none solid rgb(74, 74, 74);">D</text></g></g><g><g><text x="666.140625" y="137.953125" style="white-space:pre;stroke:none;fill:rgb(74, 74, 74);font-size:12px;font-family:Arial, Helvetica, sans-serif;font-weight:400;font-style:normal;dominant-baseline:text-before-edge;text-decoration:none solid rgb(74, 74, 74);">E</text></g></g><g><g><text x="720.109375" y="137.21875" style="white-space:pre;stroke:none;fill:rgb(74, 74, 74);font-size:12px;font-family:Arial, Helvetica, sans-serif;font-weight:400;font-style:normal;dominant-baseline:text-before-edge;text-decoration:none solid rgb(74, 74, 74);">§</text></g></g><g><g><text x="690.3125" y="137.828125" style="white-space:pre;stroke:none;fill:rgb(74, 74, 74);font-size:10.5px;font-family:Arial, Helvetica, sans-serif;font-weight:400;font-style:normal;dominant-baseline:text-before-edge;text-decoration:none solid rgb(74, 74, 74);">*</text><text x="694.390625" y="139.828125" style="white-space:pre;stroke:none;fill:rgb(74, 74, 74);font-size:8.4px;font-family:Arial, Helvetica, sans-serif;font-weight:400;font-style:normal;dominant-baseline:text-before-edge;text-decoration:none solid rgb(74, 74, 74);">{1}</text></g></g><g><g><g style="transform:matrix(1,0,0,1,688.140625,131.478125);"><path d="M275 482C208 482 55 419 55 259C55 182 100 136 177 136C185 136 196 136 207 137L166 99C150 84 139 66 139 52C139 42 146 31 160 19C91 -4 -37 -48 -37 -159C-37 -230 33 -276 142 -276C271 -276 384 -204 384 -121C384 -85 363 -49 320 -14L260 35C226 62 213 81 213 100C213 114 228 128 240 146C338 170 409 253 409 342C409 357 406 376 405 380C422 378 430 378 439 378C456 378 466 379 489 382L498 427L495 433C467 426 447 424 393 424C393 425 369 482 275 482ZM176 1L253 -58C299 -94 318 -121 318 -154C318 -206 249 -248 166 -248C84 -248 27 -206 27 -145C27 -43 137 -11 176 1ZM250 448C308 448 337 412 337 341C337 238 289 168 219 168C158 168 126 209 126 288C126 383 177 448 250 448Z" stroke="rgb(0, 0, 0)" stroke-width="8" fill="rgb(0, 0, 0)" style="transform:matrix(0.0119,0,0,-0.0119,0,0);"></path></g></g></g><g><g><g style="transform:matrix(1,0,0,1,668.390625,131.009375);"><path d="M34 388L41 368L73 389C110 412 113 414 120 414C130 414 138 404 138 391C138 384 134 361 130 347L64 107C56 76 51 49 51 30C51 6 62 -9 81 -9C107 -9 143 12 241 85L231 103L205 86C176 67 153 56 144 56C137 56 131 66 131 76C131 86 133 95 138 116L215 420C219 437 221 448 221 456C221 473 212 482 196 482C174 482 137 461 62 408ZM228 712C199 712 170 679 170 645C170 620 185 604 209 604C240 604 264 633 264 671C264 695 249 712 228 712Z" stroke="rgb(0, 0, 0)" stroke-width="8" fill="rgb(0, 0, 0)" style="transform:matrix(0.0119,0,0,-0.0119,0,0);"></path></g></g></g><g><g><g style="transform:matrix(1,0,0,1,722.578125,131.540625);"><path d="M236 722L224 733C179 711 138 697 64 691L60 670L108 670C126 670 142 667 142 647C142 641 142 632 140 622L98 388C78 272 36 80 10 2L17 -9L86 7C94 64 108 164 148 236C193 317 296 414 338 414C349 414 360 407 360 393C360 375 355 342 345 303L294 107C288 85 281 55 281 31C281 6 291 -9 312 -9C344 -9 412 41 471 85L461 103L435 86C412 71 386 56 374 56C367 56 361 65 361 76C361 88 364 101 368 116L432 372C438 398 443 423 443 447C443 464 437 482 411 482C376 482 299 437 231 374C198 343 172 308 144 273L140 275Z" stroke="rgb(0, 0, 0)" stroke-width="8" fill="rgb(0, 0, 0)" style="transform:matrix(0.0119,0,0,-0.0119,0,0);"></path></g></g></g><g><g><g style="transform:matrix(1,0,0,1,702,98.540625);"><path d="M345 437L329 437L350 549C366 635 394 673 440 673C470 673 497 658 512 634L522 638C527 654 537 685 545 705L550 720C534 727 503 733 480 733C469 733 453 730 445 726C421 715 339 654 316 630C294 608 282 578 271 521L256 442C215 422 195 414 170 405L165 383L246 383L237 327C207 132 170 -54 148 -123C130 -182 100 -213 64 -213C41 -213 30 -206 12 -184L-2 -188C-6 -211 -20 -259 -25 -268C-16 -273 -1 -276 10 -276C51 -276 105 -245 144 -198C215 -114 235 -18 319 383L423 383C427 402 434 425 440 439L436 446C407 439 408 437 345 437Z" stroke="rgb(0, 0, 0)" stroke-width="8" fill="rgb(0, 0, 0)" style="transform:matrix(0.0119,0,0,-0.0119,0,0);"></path></g></g></g><g><g><text x="407.65625" y="113.8125" style="white-space:pre;stroke:none;fill:rgb(74, 74, 74);font-size:10.5px;font-family:Arial, Helvetica, sans-serif;font-weight:400;font-style:normal;dominant-baseline:text-before-edge;text-decoration:none solid rgb(74, 74, 74);">*</text><text x="411.734375" y="115.8125" style="white-space:pre;stroke:none;fill:rgb(74, 74, 74);font-size:8.4px;font-family:Arial, Helvetica, sans-serif;font-weight:400;font-style:normal;dominant-baseline:text-before-edge;text-decoration:none solid rgb(74, 74, 74);">{1}</text></g></g><g><g><g style="transform:matrix(1,0,0,1,405,108.3375);"><path d="M275 482C208 482 55 419 55 259C55 182 100 136 177 136C185 136 196 136 207 137L166 99C150 84 139 66 139 52C139 42 146 31 160 19C91 -4 -37 -48 -37 -159C-37 -230 33 -276 142 -276C271 -276 384 -204 384 -121C384 -85 363 -49 320 -14L260 35C226 62 213 81 213 100C213 114 228 128 240 146C338 170 409 253 409 342C409 357 406 376 405 380C422 378 430 378 439 378C456 378 466 379 489 382L498 427L495 433C467 426 447 424 393 424C393 425 369 482 275 482ZM176 1L253 -58C299 -94 318 -121 318 -154C318 -206 249 -248 166 -248C84 -248 27 -206 27 -145C27 -43 137 -11 176 1ZM250 448C308 448 337 412 337 341C337 238 289 168 219 168C158 168 126 209 126 288C126 383 177 448 250 448Z" stroke="rgb(0, 0, 0)" stroke-width="8" fill="rgb(0, 0, 0)" style="transform:matrix(0.0119,0,0,-0.0119,0,0);"></path></g></g></g><g><g><text x="450.015625" y="13.296875" style="white-space:pre;stroke:none;fill:rgb(74, 74, 74);font-size:12px;font-family:Arial, Helvetica, sans-serif;font-weight:400;font-style:normal;dominant-baseline:text-before-edge;text-decoration:none solid rgb(74, 74, 74);">r</text></g></g><g><g><text x="411.421875" y="49.421875" style="white-space:pre;stroke:none;fill:rgb(74, 74, 74);font-size:12px;font-family:Arial, Helvetica, sans-serif;font-weight:400;font-style:normal;dominant-baseline:text-before-edge;text-decoration:none solid rgb(74, 74, 74);">A</text></g></g><g><g><text x="490.328125" y="46.765625" style="white-space:pre;stroke:none;fill:rgb(74, 74, 74);font-size:12px;font-family:Arial, Helvetica, sans-serif;font-weight:400;font-style:normal;dominant-baseline:text-before-edge;text-decoration:none solid rgb(74, 74, 74);">B</text></g></g><g><g><text x="410.953125" y="81.984375" style="white-space:pre;stroke:none;fill:rgb(74, 74, 74);font-size:12px;font-family:Arial, Helvetica, sans-serif;font-weight:400;font-style:normal;dominant-baseline:text-before-edge;text-decoration:none solid rgb(74, 74, 74);">C</text></g></g><g><g><g style="transform:matrix(1,0,0,1,415.453125,37.11875);"><path d="M271 204L242 77C238 60 236 42 236 26C236 4 245 -9 260 -9C283 -9 324 17 406 85L399 106C375 86 346 59 324 59C315 59 309 68 309 82C309 87 309 90 310 93L402 472L392 481L359 463C318 478 301 482 274 482C246 482 226 477 199 464C137 433 104 403 79 354C35 265 4 145 4 67C4 23 19 -11 38 -11C75 -11 155 41 271 204ZM319 414C297 305 278 253 244 201C187 117 126 59 94 59C82 59 76 72 76 99C76 163 104 280 139 360C163 415 186 433 234 433C257 433 275 429 319 414Z" stroke="rgb(0, 0, 0)" stroke-width="8" fill="rgb(0, 0, 0)" style="transform:matrix(0.0119,0,0,-0.0119,0,0);"></path></g></g></g><g><g><g style="transform:matrix(1,0,0,1,482.65625,38.15);"><path d="M235 722L223 733C171 707 135 698 63 691L59 670L107 670C131 670 141 663 141 646C141 639 140 628 139 622L38 71C37 68 37 64 37 61C37 22 85 -11 140 -11C177 -11 228 8 271 39C367 107 433 244 433 376C433 414 424 453 412 468C405 477 392 482 377 482C353 482 323 474 295 460C244 433 211 403 149 324ZM322 424C348 424 361 401 361 352C361 288 340 202 310 137C277 68 237 36 183 36C137 36 112 59 112 101C112 135 127 276 208 361C241 395 293 424 322 424Z" stroke="rgb(0, 0, 0)" stroke-width="8" fill="rgb(0, 0, 0)" style="transform:matrix(0.0119,0,0,-0.0119,0,0);"></path></g></g></g><g><g><g style="transform:matrix(1,0,0,1,403.96875,76.165625);"><path d="M483 722L471 733C419 707 383 698 311 691L307 670L355 670C379 670 389 663 389 646C389 638 388 629 387 622L359 468C329 477 302 482 277 482C208 482 114 410 68 323C37 265 17 170 17 86C17 21 32 -11 61 -11C88 -11 125 6 159 33C213 77 246 116 313 217L290 126C279 82 274 50 274 24C274 3 283 -9 300 -9C317 -9 341 3 375 28L456 88L446 107L402 76C388 66 372 59 363 59C355 59 349 68 349 82C349 90 350 99 357 128ZM114 59C98 59 89 73 89 98C89 224 135 380 184 418C197 428 216 433 243 433C287 433 316 427 349 410L337 351C300 171 159 59 114 59Z" stroke="rgb(0, 0, 0)" stroke-width="8" fill="rgb(0, 0, 0)" style="transform:matrix(0.0119,0,0,-0.0119,0,0);"></path></g></g></g><g><g><g style="transform:matrix(1,0,0,1,498.34375,74.8375);"><path d="M328 111L304 94C251 56 203 36 167 36C120 36 91 73 91 133C91 158 94 185 99 214C116 218 225 248 250 259C335 296 374 342 374 404C374 451 340 482 290 482C222 496 112 423 75 349C45 299 15 180 15 113C15 35 59 -11 131 -11C188 -11 244 17 336 92ZM113 274C130 343 150 386 179 412C197 428 228 440 252 440C281 440 300 420 300 388C300 344 265 297 213 272C185 258 149 247 104 237Z" stroke="rgb(0, 0, 0)" stroke-width="8" fill="rgb(0, 0, 0)" style="transform:matrix(0.0119,0,0,-0.0119,0,0);"></path></g></g></g><g><g><g style="transform:matrix(1,0,0,1,455.21875,67.525);"><path d="M345 437L329 437L350 549C366 635 394 673 440 673C470 673 497 658 512 634L522 638C527 654 537 685 545 705L550 720C534 727 503 733 480 733C469 733 453 730 445 726C421 715 339 654 316 630C294 608 282 578 271 521L256 442C215 422 195 414 170 405L165 383L246 383L237 327C207 132 170 -54 148 -123C130 -182 100 -213 64 -213C41 -213 30 -206 12 -184L-2 -188C-6 -211 -20 -259 -25 -268C-16 -273 -1 -276 10 -276C51 -276 105 -245 144 -198C215 -114 235 -18 319 383L423 383C427 402 434 425 440 439L436 446C407 439 408 437 345 437Z" stroke="rgb(0, 0, 0)" stroke-width="8" fill="rgb(0, 0, 0)" style="transform:matrix(0.0119,0,0,-0.0119,0,0);"></path></g></g></g><g><g><text x="436.34375" y="82.875" style="white-space:pre;stroke:none;fill:rgb(74, 74, 74);font-size:10.5px;font-family:Arial, Helvetica, sans-serif;font-weight:400;font-style:normal;dominant-baseline:text-before-edge;text-decoration:none solid rgb(74, 74, 74);">*</text><text x="440.421875" y="84.875" style="white-space:pre;stroke:none;fill:rgb(74, 74, 74);font-size:8.4px;font-family:Arial, Helvetica, sans-serif;font-weight:400;font-style:normal;dominant-baseline:text-before-edge;text-decoration:none solid rgb(74, 74, 74);">{3}</text></g></g><g><g><g style="transform:matrix(1,0,0,1,439.796875,76.30625);"><path d="M342 330L365 330C373 395 380 432 389 458C365 473 330 482 293 482C248 483 175 463 118 400C64 352 25 241 25 136C25 40 67 -11 147 -11C201 -11 249 9 304 54L354 95L346 115L331 105C259 57 221 40 186 40C130 40 101 80 101 159C101 267 136 371 185 409C206 425 230 433 261 433C306 433 342 414 342 390Z" stroke="rgb(0, 0, 0)" stroke-width="8" fill="rgb(0, 0, 0)" style="transform:matrix(0.0119,0,0,-0.0119,0,0);"></path></g></g></g><g><g><text x="488.640625" y="80.90625" style="white-space:pre;stroke:none;fill:rgb(74, 74, 74);font-size:12px;font-family:Arial, Helvetica, sans-serif;font-weight:400;font-style:normal;dominant-baseline:text-before-edge;text-decoration:none solid rgb(74, 74, 74);">D</text></g></g><g><g><text x="462.046875" y="113.859375" style="white-space:pre;stroke:none;fill:rgb(74, 74, 74);font-size:12px;font-family:Arial, Helvetica, sans-serif;font-weight:400;font-style:normal;dominant-baseline:text-before-edge;text-decoration:none solid rgb(74, 74, 74);">E</text></g></g><g><g><text x="516.015625" y="113.125" style="white-space:pre;stroke:none;fill:rgb(74, 74, 74);font-size:12px;font-family:Arial, Helvetica, sans-serif;font-weight:400;font-style:normal;dominant-baseline:text-before-edge;text-decoration:none solid rgb(74, 74, 74);">§</text></g></g><g><g><text x="486.21875" y="113.734375" style="white-space:pre;stroke:none;fill:rgb(74, 74, 74);font-size:10.5px;font-family:Arial, Helvetica, sans-serif;font-weight:400;font-style:normal;dominant-baseline:text-before-edge;text-decoration:none solid rgb(74, 74, 74);">*</text><text x="490.296875" y="115.734375" style="white-space:pre;stroke:none;fill:rgb(74, 74, 74);font-size:8.4px;font-family:Arial, Helvetica, sans-serif;font-weight:400;font-style:normal;dominant-baseline:text-before-edge;text-decoration:none solid rgb(74, 74, 74);">{1}</text></g></g><g><g><g style="transform:matrix(1,0,0,1,483.5625,108.259375);"><path d="M275 482C208 482 55 419 55 259C55 182 100 136 177 136C185 136 196 136 207 137L166 99C150 84 139 66 139 52C139 42 146 31 160 19C91 -4 -37 -48 -37 -159C-37 -230 33 -276 142 -276C271 -276 384 -204 384 -121C384 -85 363 -49 320 -14L260 35C226 62 213 81 213 100C213 114 228 128 240 146C338 170 409 253 409 342C409 357 406 376 405 380C422 378 430 378 439 378C456 378 466 379 489 382L498 427L495 433C467 426 447 424 393 424C393 425 369 482 275 482ZM176 1L253 -58C299 -94 318 -121 318 -154C318 -206 249 -248 166 -248C84 -248 27 -206 27 -145C27 -43 137 -11 176 1ZM250 448C308 448 337 412 337 341C337 238 289 168 219 168C158 168 126 209 126 288C126 383 177 448 250 448Z" stroke="rgb(0, 0, 0)" stroke-width="8" fill="rgb(0, 0, 0)" style="transform:matrix(0.0119,0,0,-0.0119,0,0);"></path></g></g></g><g><g><g style="transform:matrix(1,0,0,1,462.171875,108.071875);"><path d="M34 388L41 368L73 389C110 412 113 414 120 414C130 414 138 404 138 391C138 384 134 361 130 347L64 107C56 76 51 49 51 30C51 6 62 -9 81 -9C107 -9 143 12 241 85L231 103L205 86C176 67 153 56 144 56C137 56 131 66 131 76C131 86 133 95 138 116L215 420C219 437 221 448 221 456C221 473 212 482 196 482C174 482 137 461 62 408ZM228 712C199 712 170 679 170 645C170 620 185 604 209 604C240 604 264 633 264 671C264 695 249 712 228 712Z" stroke="rgb(0, 0, 0)" stroke-width="8" fill="rgb(0, 0, 0)" style="transform:matrix(0.0119,0,0,-0.0119,0,0);"></path></g></g></g><g><g><g style="transform:matrix(1,0,0,1,516.453125,108.509375);"><path d="M236 722L224 733C179 711 138 697 64 691L60 670L108 670C126 670 142 667 142 647C142 641 142 632 140 622L98 388C78 272 36 80 10 2L17 -9L86 7C94 64 108 164 148 236C193 317 296 414 338 414C349 414 360 407 360 393C360 375 355 342 345 303L294 107C288 85 281 55 281 31C281 6 291 -9 312 -9C344 -9 412 41 471 85L461 103L435 86C412 71 386 56 374 56C367 56 361 65 361 76C361 88 364 101 368 116L432 372C438 398 443 423 443 447C443 464 437 482 411 482C376 482 299 437 231 374C198 343 172 308 144 273L140 275Z" stroke="rgb(0, 0, 0)" stroke-width="8" fill="rgb(0, 0, 0)" style="transform:matrix(0.0119,0,0,-0.0119,0,0);"></path></g></g></g><g><g><text x="515.859375" y="81.015625" style="white-space:pre;stroke:none;fill:rgb(74, 74, 74);font-size:10.5px;font-family:Arial, Helvetica, sans-serif;font-weight:400;font-style:normal;dominant-baseline:text-before-edge;text-decoration:none solid rgb(74, 74, 74);">*</text><text x="519.9375" y="83.015625" style="white-space:pre;stroke:none;fill:rgb(74, 74, 74);font-size:8.4px;font-family:Arial, Helvetica, sans-serif;font-weight:400;font-style:normal;dominant-baseline:text-before-edge;text-decoration:none solid rgb(74, 74, 74);">{3}</text></g></g><g><g><g style="transform:matrix(1,0,0,1,517.328125,72.353125);"><path d="M342 330L365 330C373 395 380 432 389 458C365 473 330 482 293 482C248 483 175 463 118 400C64 352 25 241 25 136C25 40 67 -11 147 -11C201 -11 249 9 304 54L354 95L346 115L331 105C259 57 221 40 186 40C130 40 101 80 101 159C101 267 136 371 185 409C206 425 230 433 261 433C306 433 342 414 342 390Z" stroke="rgb(0, 0, 0)" stroke-width="8" fill="rgb(0, 0, 0)" style="transform:matrix(0.0119,0,0,-0.0119,0,0);"></path></g></g></g></svg>
</svg>
